<svg xmlns="http://www.w3.org/2000/svg" xmlns:xlink="http://www.w3.org/1999/xlink" width="100" zoomAndPan="magnify" viewBox="0 0 75 74.999997" height="100" preserveAspectRatio="xMidYMid meet" version="1.0"><defs><clipPath id="3552d32d23"><path d="M 11.625 11.625 L 63.375 11.625 L 63.375 63.375 L 11.625 63.375 Z M 11.625 11.625 " clip-rule="nonzero"/></clipPath></defs><g clip-path="url(#3552d32d23)"><path fill="#2c74dd" d="M 37.734375 43.347656 L 36.238281 43.347656 L 36.238281 33.613281 C 36.238281 33.257812 35.949219 32.96875 35.59375 32.96875 L 31.472656 32.96875 C 31.117188 32.96875 30.828125 33.257812 30.828125 33.613281 L 30.828125 43.347656 L 29.1875 43.347656 L 29.1875 36.121094 C 29.1875 35.765625 28.898438 35.476562 28.542969 35.476562 L 24.421875 35.476562 C 24.066406 35.476562 23.777344 35.765625 23.777344 36.121094 L 23.777344 43.347656 L 22.136719 43.347656 L 22.136719 38.625 C 22.136719 38.269531 21.847656 37.980469 21.492188 37.980469 L 17.371094 37.980469 C 17.015625 37.980469 16.726562 38.269531 16.726562 38.625 L 16.726562 43.347656 L 15.234375 43.347656 C 14.878906 43.347656 14.589844 43.636719 14.589844 43.988281 C 14.589844 44.34375 14.878906 44.632812 15.234375 44.632812 L 37.734375 44.632812 C 38.089844 44.632812 38.378906 44.34375 38.378906 43.988281 C 38.378906 43.636719 38.089844 43.347656 37.734375 43.347656 Z M 32.117188 34.257812 L 34.949219 34.257812 L 34.949219 43.347656 L 32.117188 43.347656 Z M 25.066406 36.765625 L 27.898438 36.765625 L 27.898438 43.347656 L 25.066406 43.347656 Z M 18.015625 39.269531 L 20.847656 39.269531 L 20.847656 43.347656 L 18.015625 43.347656 Z M 17.300781 34.246094 C 17.179688 33.914062 17.355469 33.542969 17.691406 33.425781 L 32.238281 28.253906 L 31.242188 27.78125 C 30.917969 27.628906 30.78125 27.246094 30.9375 26.921875 C 31.089844 26.601562 31.472656 26.464844 31.792969 26.617188 L 34.195312 27.757812 C 34.515625 27.910156 34.652344 28.296875 34.5 28.617188 L 33.359375 31.019531 C 33.25 31.25 33.015625 31.386719 32.777344 31.386719 C 32.683594 31.386719 32.589844 31.363281 32.5 31.324219 C 32.179688 31.171875 32.042969 30.785156 32.195312 30.464844 L 32.667969 29.46875 L 18.121094 34.640625 C 18.050781 34.664062 17.980469 34.675781 17.90625 34.675781 C 17.640625 34.675781 17.394531 34.511719 17.300781 34.246094 Z M 63.070312 21.628906 L 57.980469 12.753906 C 57.578125 12.046875 56.851562 11.625 56.039062 11.625 C 55.226562 11.625 54.496094 12.046875 54.09375 12.753906 L 51.628906 17.050781 C 50.734375 15.429688 49.171875 14.492188 47.269531 14.492188 C 44.40625 14.492188 42.339844 16.664062 42.128906 19.894531 C 42.117188 20.046875 42.105469 20.195312 42.09375 20.34375 L 17.5625 20.34375 C 14.289062 20.34375 11.625 23.007812 11.625 26.28125 L 11.625 47.164062 C 11.625 50.4375 14.289062 53.101562 17.5625 53.101562 L 28.972656 53.101562 L 26.78125 59.03125 L 24.929688 59.03125 C 24.207031 59.03125 23.621094 59.617188 23.621094 60.339844 L 23.621094 62.066406 C 23.621094 62.785156 24.207031 63.375 24.929688 63.375 L 45.53125 63.375 C 46.253906 63.375 46.839844 62.785156 46.839844 62.066406 L 46.839844 60.339844 C 46.839844 59.617188 46.253906 59.03125 45.53125 59.03125 L 43.679688 59.03125 L 41.488281 53.101562 L 52.898438 53.101562 C 56.171875 53.101562 58.835938 50.4375 58.835938 47.164062 L 58.835938 26.28125 C 58.835938 25.84375 58.785156 25.410156 58.691406 24.984375 L 61.125 24.984375 C 61.945312 24.984375 62.652344 24.578125 63.066406 23.867188 C 63.476562 23.15625 63.476562 22.339844 63.070312 21.628906 Z M 47.269531 15.78125 C 48.96875 15.78125 50.257812 16.75 50.828125 18.441406 L 49 21.628906 C 48.59375 22.339844 48.59375 23.15625 49.007812 23.867188 C 49.417969 24.578125 50.125 24.984375 50.945312 24.984375 L 51.894531 24.984375 C 52.269531 26.390625 52.78125 27.667969 53.4375 28.84375 L 41.097656 28.84375 C 42.792969 25.808594 43.238281 22.601562 43.414062 19.976562 C 43.585938 17.386719 45.0625 15.777344 47.269531 15.777344 Z M 39.675781 32.460938 C 39.371094 32.460938 39.136719 32.203125 39.136719 31.855469 C 39.136719 31.632812 39.1875 31.53125 39.273438 31.433594 C 39.644531 31.007812 39.980469 30.574219 40.289062 30.132812 L 54.246094 30.132812 C 54.5625 30.582031 54.898438 31.015625 55.265625 31.433594 C 55.351562 31.53125 55.398438 31.632812 55.398438 31.855469 C 55.398438 32.203125 55.167969 32.460938 54.863281 32.460938 Z M 49.15625 33.75 C 48.949219 34.601562 48.183594 35.234375 47.269531 35.234375 C 46.355469 35.234375 45.589844 34.601562 45.382812 33.75 Z M 45.550781 60.339844 L 45.550781 62.066406 C 45.550781 62.074219 45.542969 62.085938 45.53125 62.085938 L 24.929688 62.085938 C 24.921875 62.085938 24.910156 62.074219 24.910156 62.066406 L 24.910156 60.339844 C 24.910156 60.332031 24.921875 60.320312 24.929688 60.320312 L 45.53125 60.320312 C 45.542969 60.320312 45.550781 60.332031 45.550781 60.339844 Z M 42.308594 59.03125 L 28.15625 59.03125 L 30.347656 53.101562 L 40.117188 53.101562 Z M 52.902344 51.8125 L 17.5625 51.8125 C 15.082031 51.8125 13.046875 49.859375 12.917969 47.410156 L 57.542969 47.410156 C 57.414062 49.859375 55.382812 51.8125 52.902344 51.8125 Z M 57.550781 26.28125 L 57.550781 46.121094 L 12.914062 46.121094 L 12.914062 26.28125 C 12.914062 23.71875 15 21.632812 17.5625 21.632812 L 41.964844 21.632812 C 41.492188 25.457031 40.335938 28.261719 38.300781 30.585938 C 38 30.933594 37.851562 31.351562 37.851562 31.859375 C 37.851562 32.917969 38.652344 33.75 39.675781 33.75 L 44.070312 33.75 C 44.292969 35.316406 45.640625 36.523438 47.269531 36.523438 C 48.894531 36.523438 50.246094 35.316406 50.46875 33.75 L 54.859375 33.75 C 55.882812 33.75 56.6875 32.917969 56.6875 31.859375 C 56.6875 31.351562 56.539062 30.933594 56.234375 30.585938 C 54.839844 28.996094 53.855469 27.15625 53.230469 24.984375 L 57.363281 24.984375 C 57.484375 25.40625 57.546875 25.839844 57.546875 26.28125 Z M 61.953125 23.222656 C 61.773438 23.527344 61.480469 23.695312 61.125 23.695312 L 50.945312 23.695312 C 50.59375 23.695312 50.300781 23.527344 50.121094 23.222656 C 49.945312 22.914062 49.941406 22.578125 50.117188 22.269531 L 55.207031 13.394531 C 55.386719 13.085938 55.679688 12.914062 56.035156 12.914062 C 56.390625 12.914062 56.683594 13.085938 56.863281 13.394531 L 61.953125 22.269531 C 62.128906 22.578125 62.128906 22.914062 61.953125 23.222656 Z M 55.390625 19.808594 L 55.390625 16.519531 C 55.390625 16.164062 55.679688 15.875 56.035156 15.875 C 56.390625 15.875 56.679688 16.164062 56.679688 16.519531 L 56.679688 19.808594 C 56.679688 20.164062 56.390625 20.453125 56.035156 20.453125 C 55.679688 20.453125 55.390625 20.164062 55.390625 19.808594 Z M 56.679688 21.566406 C 56.679688 21.921875 56.390625 22.210938 56.035156 22.210938 C 55.679688 22.210938 55.390625 21.921875 55.390625 21.566406 C 55.390625 21.210938 55.679688 20.921875 56.035156 20.921875 C 56.390625 20.921875 56.679688 21.210938 56.679688 21.566406 Z M 55.875 43.988281 C 55.875 44.34375 55.585938 44.632812 55.230469 44.632812 L 44.03125 44.632812 C 43.679688 44.632812 43.390625 44.34375 43.390625 43.988281 C 43.390625 43.636719 43.679688 43.347656 44.03125 43.347656 L 55.230469 43.347656 C 55.585938 43.347656 55.875 43.636719 55.875 43.988281 Z M 42.140625 43.988281 C 42.140625 44.34375 41.851562 44.632812 41.496094 44.632812 L 40.015625 44.632812 C 39.660156 44.632812 39.371094 44.34375 39.371094 43.988281 C 39.371094 43.636719 39.660156 43.347656 40.015625 43.347656 L 41.496094 43.347656 C 41.851562 43.347656 42.140625 43.636719 42.140625 43.988281 Z M 55.875 41.007812 C 55.875 41.363281 55.585938 41.652344 55.230469 41.652344 L 44.03125 41.652344 C 43.679688 41.652344 43.390625 41.363281 43.390625 41.007812 C 43.390625 40.652344 43.679688 40.363281 44.03125 40.363281 L 55.230469 40.363281 C 55.585938 40.363281 55.875 40.652344 55.875 41.007812 Z M 42.140625 41.007812 C 42.140625 41.363281 41.851562 41.652344 41.496094 41.652344 L 40.015625 41.652344 C 39.660156 41.652344 39.371094 41.363281 39.371094 41.007812 C 39.371094 40.652344 39.660156 40.363281 40.015625 40.363281 L 41.496094 40.363281 C 41.851562 40.363281 42.140625 40.652344 42.140625 41.007812 Z M 55.875 38.027344 C 55.875 38.382812 55.585938 38.671875 55.230469 38.671875 L 44.03125 38.671875 C 43.679688 38.671875 43.390625 38.382812 43.390625 38.027344 C 43.390625 37.671875 43.679688 37.382812 44.03125 37.382812 L 55.230469 37.382812 C 55.585938 37.382812 55.875 37.671875 55.875 38.027344 Z M 42.140625 38.027344 C 42.140625 38.382812 41.851562 38.671875 41.496094 38.671875 L 40.015625 38.671875 C 39.660156 38.671875 39.371094 38.382812 39.371094 38.027344 C 39.371094 37.671875 39.660156 37.382812 40.015625 37.382812 L 41.496094 37.382812 C 41.851562 37.382812 42.140625 37.671875 42.140625 38.027344 Z M 36.746094 49.613281 C 36.746094 49.96875 36.457031 50.257812 36.101562 50.257812 L 34.359375 50.257812 C 34.003906 50.257812 33.714844 49.96875 33.714844 49.613281 C 33.714844 49.257812 34.003906 48.96875 34.359375 48.96875 L 36.101562 48.96875 C 36.457031 48.96875 36.746094 49.257812 36.746094 49.613281 Z M 53.296875 49.613281 C 53.296875 49.96875 53.011719 50.257812 52.65625 50.257812 L 52.046875 50.257812 C 51.691406 50.257812 51.402344 49.96875 51.402344 49.613281 C 51.402344 49.257812 51.691406 48.96875 52.046875 48.96875 L 52.65625 48.96875 C 53.011719 48.96875 53.296875 49.257812 53.296875 49.613281 Z M 53.296875 49.613281 " fill-opacity="1" fill-rule="nonzero"/></g></svg>