<svg xmlns="http://www.w3.org/2000/svg" xmlns:xlink="http://www.w3.org/1999/xlink" width="100" zoomAndPan="magnify" viewBox="0 0 75 74.999997" height="100" preserveAspectRatio="xMidYMid meet" version="1.0"><defs><clipPath id="e1955fb365"><path d="M 12.347656 12.1875 L 62.597656 12.1875 L 62.597656 62.4375 L 12.347656 62.4375 Z M 12.347656 12.1875 " clip-rule="nonzero"/></clipPath></defs><g clip-path="url(#e1955fb365)"><path fill="#2c74dd" d="M 15.140625 30.601562 C 14.722656 30.601562 14.378906 30.257812 14.378906 29.839844 C 14.378906 29.414062 14.722656 29.074219 15.140625 29.074219 L 20.941406 29.074219 C 21.363281 29.074219 21.703125 29.414062 21.703125 29.839844 C 21.703125 30.257812 21.363281 30.601562 20.941406 30.601562 Z M 15.140625 28.113281 C 14.722656 28.113281 14.378906 27.773438 14.378906 27.351562 C 14.378906 26.929688 14.722656 26.585938 15.140625 26.585938 L 23.644531 26.585938 C 24.066406 26.585938 24.410156 26.929688 24.410156 27.351562 C 24.410156 27.773438 24.066406 28.113281 23.644531 28.113281 Z M 26.667969 28.113281 C 26.246094 28.113281 25.902344 27.773438 25.902344 27.351562 C 25.902344 26.929688 26.246094 26.585938 26.667969 26.585938 L 29.699219 26.585938 C 30.121094 26.585938 30.460938 26.929688 30.460938 27.351562 C 30.460938 27.773438 30.121094 28.113281 29.699219 28.113281 Z M 18.171875 24.101562 C 18.597656 24.101562 18.9375 24.445312 18.9375 24.867188 C 18.9375 25.285156 18.597656 25.628906 18.171875 25.628906 L 15.140625 25.628906 C 14.722656 25.628906 14.378906 25.285156 14.378906 24.867188 C 14.378906 24.445312 14.722656 24.101562 15.140625 24.101562 Z M 29.699219 24.101562 C 30.121094 24.101562 30.460938 24.445312 30.460938 24.867188 C 30.460938 25.285156 30.121094 25.628906 29.699219 25.628906 L 21.199219 25.628906 C 20.773438 25.628906 20.433594 25.285156 20.433594 24.867188 C 20.433594 24.445312 20.773438 24.101562 21.199219 24.101562 Z M 26.667969 23.140625 C 26.246094 23.140625 25.902344 22.800781 25.902344 22.378906 C 25.902344 21.960938 26.246094 21.617188 26.667969 21.617188 L 29.699219 21.617188 C 30.121094 21.617188 30.460938 21.960938 30.460938 22.378906 C 30.460938 22.800781 30.121094 23.140625 29.699219 23.140625 Z M 15.140625 23.140625 C 14.722656 23.140625 14.378906 22.800781 14.378906 22.378906 C 14.378906 21.960938 14.722656 21.617188 15.140625 21.617188 L 23.644531 21.617188 C 24.066406 21.617188 24.410156 21.960938 24.410156 22.378906 C 24.410156 22.800781 24.066406 23.140625 23.644531 23.140625 Z M 15.867188 14.472656 L 23.40625 14.472656 C 23.828125 14.472656 24.171875 14.816406 24.171875 15.234375 L 24.171875 19.945312 C 24.171875 20.367188 23.828125 20.710938 23.40625 20.710938 L 15.867188 20.710938 C 15.445312 20.710938 15.109375 20.367188 15.109375 19.945312 L 15.109375 15.234375 C 15.109375 14.816406 15.449219 14.472656 15.867188 14.472656 Z M 22.644531 15.996094 L 16.628906 15.996094 L 16.628906 19.183594 L 22.644531 19.183594 Z M 53.515625 35.957031 L 61.015625 35.957031 C 61.460938 35.957031 61.867188 36.136719 62.160156 36.433594 C 62.453125 36.726562 62.636719 37.132812 62.636719 37.578125 L 62.636719 43.644531 C 62.636719 44.089844 62.453125 44.496094 62.160156 44.789062 C 61.867188 45.082031 61.460938 45.265625 61.015625 45.265625 L 53.515625 45.265625 C 53.074219 45.265625 52.667969 45.082031 52.375 44.789062 C 52.082031 44.496094 51.898438 44.089844 51.898438 43.644531 L 51.898438 43.042969 L 47.796875 43.042969 L 50.742188 49.847656 L 53.277344 49.847656 C 53.722656 49.847656 54.128906 50.027344 54.421875 50.320312 C 54.714844 50.613281 54.898438 51.019531 54.898438 51.464844 L 54.898438 57.53125 C 54.898438 57.976562 54.714844 58.382812 54.421875 58.675781 C 54.128906 58.96875 53.722656 59.152344 53.277344 59.152344 L 45.777344 59.152344 C 45.328125 59.152344 44.925781 58.96875 44.628906 58.675781 C 44.339844 58.382812 44.15625 57.976562 44.15625 57.53125 L 44.15625 51.464844 C 44.15625 51.019531 44.339844 50.613281 44.628906 50.320312 C 44.925781 50.027344 45.328125 49.84375 45.777344 49.84375 L 45.890625 49.84375 L 42.914062 43.039062 L 40.101562 43.039062 C 40.027344 43.300781 39.941406 43.554688 39.84375 43.8125 C 38.773438 46.667969 36.652344 48.816406 34.085938 49.984375 C 32.734375 50.597656 31.257812 50.941406 29.746094 50.972656 L 29.636719 51.261719 C 29.398438 51.902344 29.035156 52.4375 28.640625 52.789062 C 28.144531 53.230469 27.578125 53.417969 27.042969 53.257812 L 24.261719 60.679688 C 23.78125 61.964844 22.917969 62.609375 22.074219 62.738281 C 21.710938 62.792969 21.355469 62.753906 21.027344 62.632812 C 20.695312 62.507812 20.398438 62.300781 20.160156 62.019531 C 19.613281 61.371094 19.386719 60.316406 19.863281 59.035156 L 22.644531 51.609375 C 22.132812 51.378906 21.828125 50.863281 21.746094 50.203125 C 21.679688 49.683594 21.757812 49.039062 21.996094 48.402344 L 22.105469 48.113281 C 20.984375 47.09375 20.097656 45.867188 19.484375 44.515625 C 18.390625 42.113281 18.15625 39.320312 19.003906 36.636719 L 13.941406 36.636719 C 13.503906 36.636719 13.101562 36.457031 12.8125 36.167969 C 12.523438 35.875 12.34375 35.476562 12.34375 35.035156 L 12.34375 13.785156 C 12.34375 13.34375 12.523438 12.945312 12.8125 12.652344 C 13.101562 12.363281 13.503906 12.183594 13.941406 12.183594 L 30.898438 12.183594 C 31.339844 12.183594 31.738281 12.363281 32.027344 12.652344 C 32.316406 12.945312 32.5 13.34375 32.5 13.785156 L 32.5 29.332031 C 32.792969 29.417969 33.089844 29.511719 33.386719 29.625 C 36.238281 30.695312 38.390625 32.8125 39.558594 35.382812 C 40.019531 36.394531 40.328125 37.476562 40.464844 38.589844 L 41.566406 38.589844 L 44.441406 34.425781 L 38.023438 25.03125 L 36.347656 25.03125 C 35.902344 25.03125 35.496094 24.847656 35.203125 24.554688 C 34.910156 24.261719 34.726562 23.855469 34.726562 23.410156 L 34.726562 17.34375 C 34.726562 16.898438 34.910156 16.496094 35.203125 16.203125 C 35.496094 15.90625 35.902344 15.726562 36.347656 15.726562 L 43.847656 15.726562 C 44.292969 15.726562 44.699219 15.90625 44.992188 16.203125 C 45.285156 16.496094 45.46875 16.898438 45.46875 17.34375 L 45.46875 23.410156 C 45.46875 23.855469 45.285156 24.261719 44.992188 24.554688 C 44.703125 24.847656 44.292969 25.03125 43.847656 25.03125 L 43.390625 25.03125 L 47.175781 30.589844 L 50.390625 26.539062 C 50.019531 26.496094 49.679688 26.328125 49.425781 26.074219 C 49.132812 25.78125 48.949219 25.375 48.949219 24.925781 L 48.949219 18.863281 C 48.949219 18.417969 49.128906 18.011719 49.425781 17.71875 C 49.71875 17.425781 50.125 17.242188 50.570312 17.242188 L 58.070312 17.242188 C 58.515625 17.242188 58.921875 17.425781 59.214844 17.71875 C 59.507812 18.011719 59.691406 18.417969 59.691406 18.863281 L 59.691406 24.925781 C 59.691406 25.375 59.507812 25.78125 59.214844 26.074219 C 58.921875 26.363281 58.515625 26.546875 58.070312 26.546875 L 56.191406 26.546875 C 55.089844 28.011719 53.601562 29.941406 52.117188 31.871094 C 50.167969 34.40625 48.214844 36.945312 46.996094 38.589844 L 51.898438 38.589844 L 51.898438 37.578125 C 51.898438 37.128906 52.078125 36.726562 52.375 36.429688 C 52.667969 36.140625 53.070312 35.957031 53.515625 35.957031 Z M 51.898438 41.515625 L 51.898438 40.117188 L 44.054688 40.117188 L 44.878906 38.921875 C 45.84375 37.53125 48.378906 34.234375 50.914062 30.941406 C 52.078125 29.429688 53.238281 27.917969 54.285156 26.546875 L 52.332031 26.546875 L 47.085938 33.160156 L 41.546875 25.03125 L 39.871094 25.03125 L 46.289062 34.429688 L 42.363281 40.117188 L 40.546875 40.117188 C 40.542969 40.582031 40.503906 41.046875 40.4375 41.515625 L 43.90625 41.515625 L 47.554688 49.847656 L 49.089844 49.847656 L 45.480469 41.515625 Z M 61.015625 37.484375 L 53.515625 37.484375 C 53.492188 37.484375 53.46875 37.496094 53.449219 37.511719 C 53.433594 37.53125 53.421875 37.550781 53.421875 37.578125 L 53.421875 43.644531 C 53.421875 43.667969 53.433594 43.691406 53.449219 43.710938 C 53.46875 43.726562 53.492188 43.738281 53.515625 43.738281 L 61.015625 43.738281 C 61.042969 43.738281 61.066406 43.726562 61.082031 43.710938 C 61.101562 43.691406 61.109375 43.667969 61.109375 43.644531 L 61.109375 37.578125 C 61.109375 37.550781 61.101562 37.53125 61.082031 37.511719 C 61.066406 37.496094 61.042969 37.484375 61.015625 37.484375 Z M 53.277344 51.371094 L 45.777344 51.371094 C 45.753906 51.371094 45.730469 51.382812 45.714844 51.398438 C 45.695312 51.414062 45.683594 51.441406 45.683594 51.464844 L 45.683594 57.53125 C 45.683594 57.554688 45.695312 57.578125 45.714844 57.597656 C 45.726562 57.613281 45.753906 57.625 45.777344 57.625 L 53.277344 57.625 C 53.304688 57.625 53.324219 57.617188 53.34375 57.597656 C 53.359375 57.582031 53.371094 57.554688 53.371094 57.53125 L 53.371094 51.464844 C 53.371094 51.441406 53.359375 51.414062 53.34375 51.398438 C 53.324219 51.382812 53.304688 51.371094 53.277344 51.371094 Z M 58.070312 18.769531 L 50.570312 18.769531 C 50.546875 18.769531 50.523438 18.777344 50.503906 18.796875 C 50.488281 18.816406 50.476562 18.839844 50.476562 18.863281 L 50.476562 24.929688 C 50.476562 24.953125 50.488281 24.976562 50.503906 24.992188 C 50.523438 25.011719 50.546875 25.023438 50.570312 25.023438 L 58.070312 25.023438 C 58.09375 25.023438 58.117188 25.011719 58.136719 24.992188 C 58.152344 24.980469 58.164062 24.953125 58.164062 24.929688 L 58.164062 18.863281 C 58.164062 18.835938 58.152344 18.816406 58.136719 18.796875 C 58.117188 18.777344 58.09375 18.769531 58.070312 18.769531 Z M 29.523438 38.269531 C 29.058594 38.269531 28.640625 38.457031 28.332031 38.757812 C 28.03125 39.066406 27.84375 39.484375 27.84375 39.949219 C 27.84375 40.414062 28.03125 40.832031 28.332031 41.136719 C 28.640625 41.441406 29.058594 41.628906 29.523438 41.628906 C 29.988281 41.628906 30.40625 41.441406 30.710938 41.136719 C 31.015625 40.832031 31.203125 40.414062 31.203125 39.949219 C 31.203125 39.484375 31.015625 39.066406 30.710938 38.757812 C 30.40625 38.457031 29.988281 38.269531 29.523438 38.269531 Z M 27.253906 37.679688 C 27.835938 37.097656 28.636719 36.742188 29.523438 36.742188 C 30.40625 36.742188 31.210938 37.097656 31.792969 37.679688 C 32.371094 38.261719 32.730469 39.0625 32.730469 39.949219 C 32.730469 40.835938 32.371094 41.636719 31.792969 42.21875 C 31.210938 42.796875 30.40625 43.15625 29.523438 43.15625 C 28.636719 43.15625 27.835938 42.796875 27.253906 42.21875 C 26.671875 41.636719 26.316406 40.835938 26.316406 39.949219 C 26.316406 39.0625 26.671875 38.261719 27.253906 37.679688 Z M 29.660156 34.835938 L 29.386719 34.835938 L 29.386719 34.875 C 29.386719 35.148438 29.292969 35.410156 29.132812 35.617188 C 28.972656 35.828125 28.75 35.984375 28.480469 36.058594 C 28.304688 36.105469 28.140625 36.160156 27.980469 36.226562 C 27.816406 36.292969 27.660156 36.371094 27.511719 36.457031 C 27.269531 36.597656 27 36.644531 26.738281 36.613281 C 26.472656 36.578125 26.226562 36.460938 26.03125 36.265625 C 26.023438 36.257812 26.011719 36.246094 26.003906 36.238281 L 25.8125 36.429688 L 25.839844 36.457031 C 26.035156 36.652344 26.152344 36.898438 26.183594 37.164062 C 26.21875 37.425781 26.171875 37.699219 26.03125 37.9375 C 25.941406 38.089844 25.863281 38.246094 25.796875 38.40625 L 25.796875 38.410156 C 25.734375 38.570312 25.675781 38.734375 25.632812 38.90625 C 25.558594 39.175781 25.402344 39.402344 25.191406 39.5625 C 24.980469 39.722656 24.722656 39.8125 24.449219 39.8125 L 24.40625 39.8125 L 24.40625 40.089844 L 24.449219 40.089844 L 24.449219 40.085938 C 24.722656 40.085938 24.980469 40.175781 25.191406 40.335938 C 25.402344 40.5 25.554688 40.726562 25.632812 40.996094 C 25.675781 41.167969 25.734375 41.332031 25.796875 41.492188 C 25.804688 41.503906 25.808594 41.515625 25.8125 41.523438 C 25.875 41.671875 25.945312 41.816406 26.03125 41.960938 C 26.167969 42.203125 26.21875 42.472656 26.183594 42.734375 C 26.152344 42.996094 26.03125 43.246094 25.839844 43.441406 L 25.808594 43.46875 L 26.003906 43.660156 L 26.03125 43.632812 C 26.050781 43.613281 26.078125 43.589844 26.101562 43.570312 C 26.285156 43.414062 26.503906 43.316406 26.738281 43.285156 C 26.996094 43.25 27.269531 43.300781 27.511719 43.441406 C 27.660156 43.527344 27.816406 43.605469 27.980469 43.671875 C 28.140625 43.738281 28.304688 43.792969 28.476562 43.839844 C 28.746094 43.914062 28.972656 44.070312 29.132812 44.28125 C 29.292969 44.488281 29.386719 44.75 29.386719 45.023438 L 29.386719 45.0625 L 29.65625 45.0625 L 29.65625 45.023438 C 29.65625 44.746094 29.746094 44.488281 29.90625 44.28125 C 30.070312 44.070312 30.296875 43.914062 30.566406 43.839844 C 30.742188 43.792969 30.910156 43.738281 31.0625 43.671875 C 31.226562 43.605469 31.386719 43.527344 31.535156 43.441406 C 31.773438 43.300781 32.046875 43.253906 32.304688 43.285156 C 32.570312 43.320312 32.816406 43.4375 33.011719 43.632812 L 33.011719 43.636719 L 33.011719 43.632812 L 33.042969 43.660156 L 33.234375 43.46875 L 33.207031 43.441406 C 33.011719 43.246094 32.894531 42.996094 32.855469 42.734375 C 32.824219 42.472656 32.875 42.199219 33.015625 41.960938 C 33.097656 41.8125 33.179688 41.652344 33.246094 41.492188 L 33.261719 41.457031 C 33.316406 41.3125 33.371094 41.15625 33.414062 40.992188 C 33.484375 40.722656 33.644531 40.5 33.851562 40.335938 C 34.0625 40.175781 34.320312 40.085938 34.597656 40.085938 L 34.632812 40.085938 L 34.632812 39.8125 L 34.597656 39.8125 C 34.320312 39.8125 34.0625 39.71875 33.851562 39.558594 C 33.644531 39.398438 33.484375 39.171875 33.414062 38.90625 C 33.367188 38.726562 33.3125 38.5625 33.246094 38.40625 C 33.179688 38.242188 33.097656 38.085938 33.015625 37.9375 C 32.875 37.695312 32.824219 37.425781 32.855469 37.164062 C 32.894531 36.902344 33.011719 36.65625 33.207031 36.457031 L 33.234375 36.429688 L 33.042969 36.238281 L 33.011719 36.265625 C 32.820312 36.460938 32.570312 36.578125 32.304688 36.609375 C 32.046875 36.644531 31.773438 36.597656 31.535156 36.457031 C 31.378906 36.367188 31.226562 36.289062 31.066406 36.222656 L 31.0625 36.222656 C 30.902344 36.160156 30.738281 36.101562 30.566406 36.058594 C 30.296875 35.984375 30.070312 35.828125 29.90625 35.617188 C 29.746094 35.40625 29.65625 35.148438 29.65625 34.875 L 29.660156 34.875 Z M 29.085938 33.3125 L 29.957031 33.3125 C 30.296875 33.3125 30.601562 33.449219 30.824219 33.667969 C 31.046875 33.890625 31.1875 34.199219 31.1875 34.535156 L 31.183594 34.535156 L 31.183594 34.648438 C 31.339844 34.699219 31.492188 34.753906 31.648438 34.820312 C 31.800781 34.886719 31.953125 34.953125 32.09375 35.03125 L 32.175781 34.945312 C 32.414062 34.707031 32.726562 34.585938 33.042969 34.585938 C 33.328125 34.585938 33.613281 34.6875 33.84375 34.886719 C 33.863281 34.90625 33.886719 34.925781 33.910156 34.945312 L 34.527344 35.566406 L 34.523438 35.566406 L 34.527344 35.566406 C 34.765625 35.804688 34.886719 36.117188 34.886719 36.429688 C 34.886719 36.714844 34.78125 37 34.585938 37.230469 C 34.566406 37.253906 34.546875 37.277344 34.527344 37.296875 L 34.441406 37.378906 C 34.519531 37.523438 34.589844 37.671875 34.652344 37.824219 L 34.652344 37.828125 C 34.71875 37.980469 34.773438 38.136719 34.824219 38.289062 L 34.9375 38.289062 C 35.273438 38.289062 35.582031 38.425781 35.804688 38.648438 C 36.027344 38.867188 36.160156 39.179688 36.160156 39.515625 L 36.160156 40.386719 C 36.160156 40.722656 36.027344 41.03125 35.804688 41.25 C 35.582031 41.472656 35.273438 41.613281 34.9375 41.613281 L 34.824219 41.613281 C 34.777344 41.753906 34.726562 41.894531 34.667969 42.035156 C 34.664062 42.050781 34.660156 42.0625 34.652344 42.078125 C 34.589844 42.230469 34.519531 42.378906 34.441406 42.523438 L 34.527344 42.605469 C 34.765625 42.84375 34.886719 43.15625 34.886719 43.472656 C 34.886719 43.757812 34.78125 44.042969 34.585938 44.273438 C 34.566406 44.292969 34.546875 44.320312 34.527344 44.335938 L 33.910156 44.957031 L 33.910156 44.953125 L 33.90625 44.957031 C 33.667969 45.191406 33.355469 45.3125 33.042969 45.3125 C 32.726562 45.3125 32.417969 45.191406 32.175781 44.957031 L 32.09375 44.871094 C 31.949219 44.949219 31.800781 45.019531 31.648438 45.082031 L 31.644531 45.082031 C 31.492188 45.148438 31.335938 45.203125 31.183594 45.253906 L 31.183594 45.367188 C 31.183594 45.703125 31.046875 46.007812 30.824219 46.230469 C 30.601562 46.453125 30.296875 46.589844 29.957031 46.589844 L 29.085938 46.589844 C 28.75 46.589844 28.441406 46.453125 28.222656 46.230469 C 28 46.007812 27.859375 45.703125 27.859375 45.367188 L 27.859375 45.253906 C 27.703125 45.203125 27.546875 45.148438 27.394531 45.082031 C 27.246094 45.019531 27.097656 44.949219 26.953125 44.871094 L 26.867188 44.957031 L 26.867188 44.953125 L 26.863281 44.957031 C 26.625 45.191406 26.3125 45.3125 26.003906 45.3125 C 25.6875 45.3125 25.375 45.191406 25.132812 44.957031 L 24.519531 44.335938 L 24.523438 44.335938 L 24.519531 44.335938 C 24.28125 44.101562 24.164062 43.785156 24.164062 43.472656 L 24.160156 43.472656 C 24.160156 43.15625 24.28125 42.84375 24.519531 42.601562 L 24.597656 42.523438 C 24.53125 42.394531 24.46875 42.257812 24.40625 42.117188 C 24.402344 42.101562 24.394531 42.089844 24.390625 42.078125 C 24.328125 41.921875 24.269531 41.769531 24.222656 41.609375 L 24.109375 41.609375 L 24.109375 41.613281 C 23.800781 41.613281 23.523438 41.5 23.308594 41.3125 C 23.285156 41.296875 23.265625 41.273438 23.242188 41.253906 C 23.019531 41.035156 22.878906 40.722656 22.878906 40.386719 L 22.878906 39.515625 C 22.878906 39.179688 23.019531 38.871094 23.242188 38.652344 C 23.464844 38.429688 23.769531 38.289062 24.109375 38.289062 L 24.222656 38.289062 C 24.269531 38.132812 24.328125 37.976562 24.390625 37.824219 C 24.457031 37.671875 24.523438 37.523438 24.597656 37.378906 L 24.519531 37.296875 C 24.28125 37.058594 24.160156 36.742188 24.160156 36.429688 C 24.160156 36.117188 24.28125 35.804688 24.519531 35.566406 L 25.132812 34.949219 C 25.375 34.710938 25.6875 34.589844 26.003906 34.589844 C 26.3125 34.589844 26.625 34.710938 26.863281 34.949219 L 26.949219 35.03125 C 27.097656 34.953125 27.246094 34.882812 27.394531 34.820312 C 27.546875 34.753906 27.703125 34.699219 27.859375 34.652344 L 27.859375 34.535156 C 27.859375 34.199219 28 33.894531 28.222656 33.671875 C 28.441406 33.449219 28.75 33.3125 29.085938 33.3125 Z M 32.585938 31.769531 C 34.847656 32.617188 36.550781 34.296875 37.472656 36.328125 C 38.390625 38.339844 38.546875 40.703125 37.726562 42.941406 C 37.714844 42.992188 37.695312 43.035156 37.671875 43.078125 C 36.820312 45.308594 35.152344 46.984375 33.140625 47.898438 C 31.125 48.816406 28.769531 48.972656 26.527344 48.152344 C 26.480469 48.140625 26.433594 48.121094 26.390625 48.097656 C 24.164062 47.246094 22.488281 45.578125 21.570312 43.566406 C 20.644531 41.535156 20.496094 39.144531 21.34375 36.886719 C 22.191406 34.625 23.871094 32.921875 25.902344 31.996094 C 27.9375 31.070312 30.324219 30.921875 32.585938 31.769531 Z M 36.085938 36.960938 C 35.320312 35.28125 33.917969 33.890625 32.054688 33.195312 C 30.191406 32.496094 28.21875 32.621094 26.535156 33.386719 C 24.851562 34.152344 23.464844 35.554688 22.769531 37.417969 C 22.070312 39.28125 22.195312 41.253906 22.960938 42.933594 C 23.722656 44.617188 25.128906 46.007812 26.988281 46.703125 L 26.992188 46.703125 C 28.855469 47.402344 30.828125 47.277344 32.507812 46.511719 C 34.191406 45.746094 35.578125 44.34375 36.277344 42.480469 C 36.976562 40.617188 36.851562 38.644531 36.085938 36.960938 Z M 28.152344 50.890625 C 27.316406 50.785156 26.480469 50.582031 25.65625 50.273438 C 24.832031 49.964844 24.070312 49.566406 23.367188 49.097656 C 23.257812 49.441406 23.226562 49.765625 23.257812 50.023438 C 23.273438 50.148438 23.246094 50.214844 23.261719 50.21875 L 26.863281 51.566406 L 27.492188 51.804688 C 27.503906 51.808594 27.53125 51.742188 27.632812 51.65625 C 27.824219 51.488281 28.007812 51.21875 28.152344 50.890625 Z M 19.617188 35.109375 C 20.773438 32.738281 22.691406 30.941406 24.957031 29.914062 C 26.804688 29.070312 28.886719 28.738281 30.972656 29.015625 L 30.972656 13.785156 C 30.972656 13.765625 30.960938 13.75 30.949219 13.734375 C 30.933594 13.722656 30.917969 13.710938 30.898438 13.710938 L 13.941406 13.710938 C 13.925781 13.710938 13.90625 13.71875 13.894531 13.734375 C 13.882812 13.75 13.871094 13.765625 13.871094 13.785156 L 13.871094 35.035156 C 13.871094 35.058594 13.882812 35.074219 13.894531 35.089844 C 13.90625 35.101562 13.925781 35.109375 13.941406 35.109375 Z M 38.167969 36.015625 C 37.160156 33.800781 35.308594 31.96875 32.855469 31.050781 C 32.449219 30.894531 32.039062 30.773438 31.625 30.679688 C 31.585938 30.675781 31.550781 30.667969 31.511719 30.652344 C 29.472656 30.214844 27.402344 30.476562 25.585938 31.300781 C 23.523438 32.238281 21.792969 33.90625 20.824219 36.113281 C 20.8125 36.15625 20.796875 36.195312 20.773438 36.230469 C 20.722656 36.355469 20.671875 36.484375 20.625 36.613281 C 19.703125 39.070312 19.867188 41.664062 20.875 43.878906 C 21.882812 46.097656 23.734375 47.929688 26.191406 48.847656 C 28.644531 49.765625 31.242188 49.601562 33.457031 48.59375 C 35.671875 47.585938 37.503906 45.734375 38.421875 43.28125 C 39.34375 40.828125 39.179688 38.226562 38.167969 36.015625 Z M 25.621094 52.726562 L 24.070312 52.144531 L 21.289062 59.566406 C 21.03125 60.265625 21.097656 60.773438 21.328125 61.042969 C 21.394531 61.117188 21.46875 61.175781 21.558594 61.207031 C 21.644531 61.242188 21.746094 61.25 21.84375 61.234375 C 22.195312 61.179688 22.578125 60.847656 22.839844 60.148438 Z M 43.847656 17.253906 L 36.347656 17.253906 C 36.324219 17.253906 36.300781 17.261719 36.28125 17.28125 C 36.265625 17.296875 36.253906 17.320312 36.253906 17.347656 L 36.253906 23.410156 C 36.253906 23.4375 36.265625 23.460938 36.28125 23.476562 C 36.300781 23.496094 36.324219 23.503906 36.347656 23.503906 L 43.847656 23.503906 C 43.875 23.503906 43.898438 23.496094 43.914062 23.476562 C 43.933594 23.460938 43.941406 23.4375 43.941406 23.410156 L 43.941406 17.34375 C 43.941406 17.320312 43.933594 17.296875 43.914062 17.277344 C 43.898438 17.261719 43.875 17.253906 43.847656 17.253906 Z M 43.847656 17.253906 " fill-opacity="1" fill-rule="nonzero"/></g></svg>