<svg xmlns="http://www.w3.org/2000/svg" xmlns:xlink="http://www.w3.org/1999/xlink" width="100" zoomAndPan="magnify" viewBox="0 0 75 74.999997" height="100" preserveAspectRatio="xMidYMid meet" version="1.0"><defs><clipPath id="62cca70419"><path d="M 15.886719 13.382812 L 59.386719 13.382812 L 59.386719 61.382812 L 15.886719 61.382812 Z M 15.886719 13.382812 " clip-rule="nonzero"/></clipPath></defs><g clip-path="url(#62cca70419)"><path fill="#2c74dd" d="M 55.535156 18.414062 L 36.617188 18.414062 L 36.898438 18.011719 C 37.066406 17.773438 37.039062 17.449219 36.832031 17.242188 L 34.644531 15.058594 C 34.441406 14.855469 34.113281 14.824219 33.878906 14.992188 L 32.84375 15.71875 C 32.386719 15.476562 31.90625 15.277344 31.410156 15.125 L 31.195312 13.882812 C 31.144531 13.597656 30.894531 13.386719 30.605469 13.386719 L 27.515625 13.386719 C 27.222656 13.386719 26.972656 13.597656 26.921875 13.882812 L 26.707031 15.125 C 26.210938 15.277344 25.730469 15.476562 25.273438 15.71875 L 24.242188 14.992188 C 24.003906 14.824219 23.679688 14.851562 23.472656 15.058594 L 21.289062 17.242188 C 21.082031 17.449219 21.054688 17.773438 21.222656 18.011719 L 21.5 18.410156 L 19.445312 18.410156 C 17.480469 18.410156 15.882812 20.007812 15.882812 21.972656 L 15.882812 50.296875 C 15.882812 52.261719 17.480469 53.859375 19.445312 53.859375 L 32.289062 53.859375 L 32.289062 56.660156 L 30.101562 57.796875 C 30.035156 57.832031 29.96875 57.867188 29.90625 57.898438 C 29.285156 58.210938 28.429688 58.644531 28.429688 59.679688 C 28.429688 60.75 29.304688 61.625 30.378906 61.625 L 44.601562 61.625 C 45.675781 61.625 46.546875 60.753906 46.546875 59.679688 C 46.546875 58.644531 45.695312 58.210938 45.070312 57.898438 C 45.007812 57.863281 44.941406 57.832031 44.878906 57.796875 L 42.6875 56.660156 L 42.6875 53.859375 L 55.535156 53.859375 C 57.5 53.859375 59.09375 52.261719 59.09375 50.296875 L 59.09375 21.972656 C 59.097656 20.007812 57.5 18.414062 55.535156 18.414062 Z M 23.964844 16.265625 L 24.894531 16.921875 C 25.089844 17.054688 25.34375 17.066406 25.546875 16.945312 C 26.117188 16.601562 26.734375 16.347656 27.378906 16.183594 C 27.609375 16.128906 27.78125 15.941406 27.824219 15.707031 L 28.019531 14.585938 L 30.097656 14.585938 L 30.292969 15.707031 C 30.335938 15.9375 30.507812 16.128906 30.738281 16.183594 C 31.382812 16.347656 31.996094 16.601562 32.570312 16.945312 C 32.773438 17.066406 33.027344 17.054688 33.222656 16.921875 L 34.15625 16.265625 L 35.625 17.734375 L 34.972656 18.667969 C 34.835938 18.859375 34.824219 19.117188 34.945312 19.320312 C 35.289062 19.890625 35.542969 20.507812 35.707031 21.152344 C 35.765625 21.382812 35.953125 21.554688 36.183594 21.59375 L 37.304688 21.792969 L 37.304688 23.871094 L 36.1875 24.066406 C 35.953125 24.109375 35.765625 24.28125 35.707031 24.511719 C 35.546875 25.15625 35.289062 25.773438 34.949219 26.34375 C 34.828125 26.546875 34.835938 26.800781 34.972656 26.996094 L 35.625 27.925781 L 34.15625 29.398438 L 33.222656 28.746094 C 33.03125 28.609375 32.773438 28.597656 32.570312 28.71875 C 32 29.0625 31.382812 29.316406 30.738281 29.480469 C 30.507812 29.539062 30.335938 29.722656 30.296875 29.957031 L 30.101562 31.078125 L 28.019531 31.078125 L 27.824219 29.957031 C 27.78125 29.726562 27.609375 29.539062 27.378906 29.480469 C 26.738281 29.316406 26.121094 29.0625 25.546875 28.71875 C 25.34375 28.597656 25.089844 28.609375 24.894531 28.746094 L 23.964844 29.398438 L 22.492188 27.929688 L 23.148438 26.996094 C 23.285156 26.804688 23.292969 26.546875 23.171875 26.34375 C 22.828125 25.773438 22.574219 25.15625 22.414062 24.511719 C 22.355469 24.28125 22.167969 24.109375 21.933594 24.070312 L 20.8125 23.871094 L 20.8125 21.792969 L 21.933594 21.597656 C 22.164062 21.554688 22.355469 21.382812 22.410156 21.152344 C 22.574219 20.507812 22.828125 19.890625 23.171875 19.320312 C 23.292969 19.117188 23.28125 18.863281 23.148438 18.667969 L 22.492188 17.738281 Z M 19.445312 19.613281 L 21.675781 19.613281 C 21.554688 19.894531 21.445312 20.183594 21.355469 20.476562 L 20.109375 20.695312 C 19.824219 20.746094 19.613281 20.996094 19.613281 21.285156 L 19.613281 24.375 C 19.613281 24.667969 19.824219 24.917969 20.109375 24.96875 L 21.355469 25.183594 C 21.507812 25.679688 21.703125 26.15625 21.949219 26.613281 L 21.222656 27.648438 C 21.054688 27.886719 21.082031 28.210938 21.289062 28.417969 L 23.472656 30.601562 C 23.679688 30.808594 24.003906 30.835938 24.242188 30.667969 L 25.273438 29.941406 C 25.730469 30.1875 26.210938 30.386719 26.707031 30.535156 L 26.921875 31.78125 C 26.972656 32.066406 27.222656 32.277344 27.515625 32.277344 L 30.605469 32.277344 C 30.894531 32.277344 31.144531 32.066406 31.195312 31.78125 L 31.410156 30.535156 C 31.90625 30.382812 32.386719 30.183594 32.84375 29.941406 L 33.878906 30.667969 C 34.117188 30.835938 34.441406 30.808594 34.644531 30.601562 L 36.832031 28.417969 C 37.035156 28.210938 37.0625 27.886719 36.898438 27.648438 L 36.171875 26.613281 C 36.414062 26.15625 36.613281 25.679688 36.765625 25.183594 L 38.007812 24.96875 C 38.296875 24.917969 38.503906 24.667969 38.503906 24.375 L 38.503906 21.285156 C 38.503906 20.996094 38.296875 20.746094 38.007812 20.695312 L 36.765625 20.476562 C 36.675781 20.183594 36.566406 19.894531 36.441406 19.613281 L 55.535156 19.613281 C 56.835938 19.613281 57.894531 20.671875 57.894531 21.972656 L 57.894531 46.96875 L 17.082031 46.96875 L 17.082031 21.972656 C 17.082031 20.671875 18.140625 19.613281 19.445312 19.613281 Z M 41.8125 57.558594 L 44.324219 58.863281 C 44.394531 58.898438 44.464844 58.933594 44.53125 58.96875 C 45.15625 59.285156 45.347656 59.421875 45.347656 59.679688 C 45.347656 60.089844 45.015625 60.425781 44.601562 60.425781 L 30.378906 60.425781 C 29.964844 60.425781 29.628906 60.089844 29.628906 59.679688 C 29.628906 59.421875 29.824219 59.285156 30.449219 58.96875 C 30.515625 58.933594 30.585938 58.898438 30.65625 58.863281 L 33.167969 57.558594 C 33.367188 57.453125 33.492188 57.25 33.492188 57.027344 L 33.492188 53.859375 L 41.488281 53.859375 L 41.488281 57.027344 C 41.488281 57.25 41.613281 57.453125 41.8125 57.558594 Z M 55.535156 52.660156 L 19.445312 52.660156 C 18.140625 52.660156 17.082031 51.601562 17.082031 50.300781 L 17.082031 48.167969 L 57.894531 48.167969 L 57.894531 50.300781 C 57.894531 51.601562 56.835938 52.660156 55.535156 52.660156 Z M 30.125 45.160156 C 31.257812 45.160156 32.390625 44.730469 33.253906 43.867188 C 34.292969 42.828125 34.742188 41.339844 34.46875 39.910156 L 44.195312 30.183594 C 45.625 30.457031 47.113281 30.007812 48.152344 28.96875 C 49.410156 27.710938 49.792969 25.832031 49.128906 24.183594 C 49.050781 23.996094 48.886719 23.859375 48.691406 23.820312 C 48.492188 23.777344 48.289062 23.839844 48.144531 23.984375 L 45.949219 26.179688 L 44.847656 26.015625 L 44.683594 24.914062 L 46.882812 22.71875 C 47.023438 22.578125 47.085938 22.371094 47.046875 22.175781 C 47.003906 21.980469 46.867188 21.816406 46.683594 21.738281 C 45.03125 21.074219 43.15625 21.457031 41.898438 22.714844 C 40.859375 23.753906 40.410156 25.242188 40.679688 26.671875 L 30.957031 36.398438 C 29.527344 36.125 28.035156 36.574219 26.996094 37.613281 C 25.273438 39.339844 25.273438 42.144531 26.996094 43.871094 C 27.859375 44.730469 28.992188 45.160156 30.125 45.160156 Z M 27.84375 38.460938 C 28.457031 37.847656 29.285156 37.519531 30.128906 37.519531 C 30.414062 37.519531 30.703125 37.554688 30.984375 37.632812 C 31.195312 37.691406 31.417969 37.632812 31.570312 37.480469 L 41.765625 27.285156 C 41.917969 27.132812 41.976562 26.910156 41.917969 26.699219 C 41.609375 25.582031 41.925781 24.378906 42.746094 23.5625 C 43.425781 22.882812 44.355469 22.550781 45.277344 22.625 L 43.621094 24.28125 C 43.488281 24.414062 43.425781 24.605469 43.453125 24.792969 L 43.726562 26.632812 C 43.765625 26.894531 43.972656 27.097656 44.234375 27.136719 L 46.070312 27.410156 C 46.261719 27.4375 46.449219 27.375 46.585938 27.242188 L 48.242188 25.585938 C 48.3125 26.511719 47.984375 27.441406 47.304688 28.121094 C 46.484375 28.9375 45.28125 29.257812 44.164062 28.945312 C 43.957031 28.890625 43.734375 28.949219 43.582031 29.101562 L 33.386719 39.296875 C 33.230469 39.449219 33.171875 39.671875 33.230469 39.878906 C 33.539062 40.996094 33.222656 42.199219 32.402344 43.019531 C 31.148438 44.277344 29.101562 44.277344 27.84375 43.019531 C 26.589844 41.761719 26.589844 39.71875 27.84375 38.460938 Z M 28.691406 42.597656 L 30.4375 43.066406 C 30.488281 43.078125 30.539062 43.085938 30.589844 43.085938 C 30.75 43.085938 30.902344 43.023438 31.015625 42.910156 L 32.292969 41.632812 C 32.445312 41.480469 32.503906 41.257812 32.449219 41.050781 L 31.980469 39.308594 C 31.925781 39.101562 31.765625 38.9375 31.558594 38.882812 L 29.8125 38.417969 C 29.605469 38.363281 29.382812 38.421875 29.234375 38.570312 L 27.957031 39.847656 C 27.804688 40 27.746094 40.222656 27.800781 40.429688 L 28.269531 42.171875 C 28.324219 42.378906 28.484375 42.542969 28.691406 42.597656 Z M 29.835938 39.664062 L 30.910156 39.953125 L 31.199219 41.027344 L 30.414062 41.816406 L 29.335938 41.527344 L 29.050781 40.453125 Z M 29.058594 28.570312 C 32.226562 28.570312 34.800781 25.996094 34.800781 22.832031 C 34.800781 19.667969 32.222656 17.09375 29.058594 17.09375 C 25.894531 17.09375 23.320312 19.667969 23.320312 22.832031 C 23.320312 25.996094 25.894531 28.570312 29.058594 28.570312 Z M 29.058594 18.292969 C 31.5625 18.292969 33.597656 20.328125 33.597656 22.832031 C 33.597656 25.332031 31.5625 27.371094 29.058594 27.371094 C 26.554688 27.371094 24.519531 25.332031 24.519531 22.832031 C 24.519531 20.328125 26.554688 18.292969 29.058594 18.292969 Z M 25.996094 24.972656 L 28.757812 26.582031 C 28.847656 26.636719 28.953125 26.664062 29.058594 26.664062 C 29.160156 26.664062 29.265625 26.636719 29.359375 26.582031 L 32.121094 24.972656 C 32.304688 24.863281 32.417969 24.667969 32.417969 24.453125 L 32.417969 21.234375 C 32.417969 21.023438 32.308594 20.828125 32.125 20.71875 L 32.117188 20.714844 L 29.363281 19.082031 C 29.175781 18.972656 28.941406 18.972656 28.753906 19.082031 L 26 20.714844 L 25.992188 20.71875 C 25.808594 20.828125 25.699219 21.023438 25.699219 21.234375 L 25.699219 24.453125 C 25.699219 24.667969 25.8125 24.863281 25.996094 24.972656 Z M 28.460938 25.019531 L 26.898438 24.109375 L 26.898438 22.277344 L 28.460938 23.1875 Z M 31.21875 24.109375 L 29.660156 25.019531 L 29.660156 23.191406 L 31.21875 22.28125 Z M 29.058594 20.296875 L 30.636719 21.230469 L 29.058594 22.148438 L 27.484375 21.230469 Z M 43.800781 38.101562 C 43.800781 40.628906 45.855469 42.6875 48.382812 42.6875 C 50.910156 42.6875 52.964844 40.628906 52.964844 38.101562 C 52.964844 35.574219 50.910156 33.519531 48.382812 33.519531 C 45.855469 33.519531 43.800781 35.574219 43.800781 38.101562 Z M 48.382812 34.71875 C 50.25 34.71875 51.765625 36.238281 51.765625 38.101562 C 51.765625 39.96875 50.25 41.484375 48.382812 41.484375 C 46.515625 41.484375 45 39.96875 45 38.101562 C 45 36.238281 46.515625 34.71875 48.382812 34.71875 Z M 46.59375 31.144531 L 46.441406 32.027344 C 46.105469 32.132812 45.777344 32.269531 45.460938 32.433594 L 44.726562 31.917969 C 44.488281 31.75 44.164062 31.777344 43.957031 31.984375 L 42.265625 33.675781 C 42.058594 33.882812 42.03125 34.207031 42.199219 34.445312 L 42.714844 35.179688 C 42.550781 35.496094 42.414062 35.824219 42.308594 36.160156 L 41.425781 36.3125 C 41.136719 36.363281 40.925781 36.613281 40.925781 36.90625 L 40.925781 39.300781 C 40.925781 39.589844 41.136719 39.839844 41.425781 39.890625 L 42.308594 40.042969 C 42.414062 40.382812 42.550781 40.710938 42.714844 41.023438 L 42.199219 41.757812 C 42.03125 41.996094 42.058594 42.320312 42.265625 42.527344 L 43.957031 44.21875 C 44.164062 44.425781 44.488281 44.453125 44.726562 44.289062 L 45.460938 43.773438 C 45.777344 43.933594 46.105469 44.070312 46.441406 44.175781 L 46.59375 45.0625 C 46.644531 45.347656 46.894531 45.558594 47.1875 45.558594 L 49.582031 45.558594 C 49.871094 45.558594 50.121094 45.347656 50.171875 45.0625 L 50.324219 44.175781 C 50.664062 44.070312 50.992188 43.933594 51.304688 43.773438 L 52.039062 44.289062 C 52.277344 44.457031 52.601562 44.425781 52.808594 44.21875 L 54.5 42.527344 C 54.707031 42.320312 54.734375 41.996094 54.570312 41.757812 L 54.054688 41.023438 C 54.214844 40.710938 54.351562 40.382812 54.457031 40.042969 L 55.34375 39.890625 C 55.628906 39.839844 55.839844 39.589844 55.839844 39.300781 L 55.839844 36.90625 C 55.839844 36.613281 55.628906 36.363281 55.34375 36.3125 L 54.457031 36.160156 C 54.351562 35.824219 54.214844 35.496094 54.054688 35.179688 L 54.570312 34.445312 C 54.738281 34.207031 54.707031 33.882812 54.5 33.675781 L 52.808594 31.984375 C 52.601562 31.777344 52.277344 31.75 52.039062 31.917969 L 51.304688 32.433594 C 50.992188 32.269531 50.664062 32.132812 50.324219 32.027344 L 50.171875 31.144531 C 50.121094 30.855469 49.871094 30.644531 49.582031 30.644531 L 47.1875 30.644531 C 46.894531 30.644531 46.644531 30.855469 46.59375 31.144531 Z M 47.558594 32.605469 L 47.691406 31.847656 L 49.074219 31.847656 L 49.207031 32.605469 C 49.25 32.835938 49.421875 33.023438 49.652344 33.082031 C 50.136719 33.203125 50.601562 33.398438 51.035156 33.65625 C 51.238281 33.777344 51.492188 33.769531 51.6875 33.632812 L 52.316406 33.191406 L 53.296875 34.167969 L 52.855469 34.796875 C 52.71875 34.992188 52.707031 35.246094 52.828125 35.449219 C 53.085938 35.882812 53.28125 36.347656 53.402344 36.832031 C 53.460938 37.0625 53.648438 37.238281 53.882812 37.277344 L 54.640625 37.410156 L 54.640625 38.796875 L 53.882812 38.925781 C 53.648438 38.96875 53.460938 39.140625 53.402344 39.371094 C 53.28125 39.855469 53.085938 40.320312 52.828125 40.753906 C 52.707031 40.957031 52.71875 41.214844 52.855469 41.40625 L 53.296875 42.035156 L 52.316406 43.015625 L 51.6875 42.574219 C 51.492188 42.4375 51.238281 42.425781 51.035156 42.550781 C 50.601562 42.808594 50.136719 43 49.652344 43.121094 C 49.421875 43.179688 49.246094 43.367188 49.207031 43.601562 L 49.074219 44.359375 L 47.691406 44.359375 L 47.558594 43.601562 C 47.515625 43.367188 47.34375 43.179688 47.113281 43.121094 C 46.628906 43 46.164062 42.808594 45.730469 42.550781 C 45.527344 42.429688 45.273438 42.4375 45.078125 42.574219 L 44.449219 43.015625 L 43.46875 42.035156 L 43.910156 41.40625 C 44.046875 41.214844 44.058594 40.957031 43.9375 40.753906 C 43.679688 40.320312 43.484375 39.855469 43.363281 39.371094 C 43.304688 39.140625 43.117188 38.96875 42.882812 38.925781 L 42.125 38.796875 L 42.125 37.410156 L 42.882812 37.277344 C 43.117188 37.238281 43.304688 37.0625 43.363281 36.832031 C 43.484375 36.347656 43.679688 35.882812 43.9375 35.449219 C 44.058594 35.246094 44.046875 34.992188 43.910156 34.796875 L 43.46875 34.167969 L 44.449219 33.191406 L 45.078125 33.632812 C 45.273438 33.769531 45.527344 33.777344 45.730469 33.65625 C 46.160156 33.398438 46.628906 33.203125 47.113281 33.082031 C 47.34375 33.023438 47.515625 32.835938 47.558594 32.605469 Z M 45.941406 39.878906 L 48.082031 41.125 C 48.171875 41.179688 48.277344 41.207031 48.382812 41.207031 C 48.484375 41.207031 48.589844 41.179688 48.679688 41.128906 C 48.683594 41.125 48.683594 41.125 48.683594 41.125 L 50.824219 39.878906 C 51.007812 39.769531 51.121094 39.574219 51.121094 39.359375 L 51.121094 36.867188 C 51.121094 36.652344 51.007812 36.457031 50.828125 36.351562 L 50.820312 36.347656 L 48.6875 35.082031 C 48.5 34.972656 48.265625 34.972656 48.078125 35.082031 L 45.945312 36.347656 L 45.9375 36.351562 C 45.753906 36.457031 45.644531 36.652344 45.644531 36.867188 L 45.644531 39.359375 C 45.644531 39.574219 45.757812 39.769531 45.941406 39.878906 Z M 47.785156 39.5625 L 46.84375 39.015625 L 46.84375 37.910156 L 47.785156 38.457031 Z M 49.921875 39.015625 L 48.984375 39.5625 L 48.984375 38.457031 L 49.921875 37.910156 Z M 48.382812 36.296875 L 49.339844 36.863281 L 48.382812 37.417969 L 47.429688 36.863281 Z M 48.382812 36.296875 " fill-opacity="1" fill-rule="nonzero"/></g></svg>