<svg xmlns="http://www.w3.org/2000/svg" xmlns:xlink="http://www.w3.org/1999/xlink" width="100" zoomAndPan="magnify" viewBox="0 0 75 74.999997" height="100" preserveAspectRatio="xMidYMid meet" version="1.0"><defs><clipPath id="2e102a21dc"><path d="M 11.152344 16.585938 L 63.652344 16.585938 L 63.652344 58.585938 L 11.152344 58.585938 Z M 11.152344 16.585938 " clip-rule="nonzero"/></clipPath></defs><g clip-path="url(#2e102a21dc)"><path fill="#2c74dd" d="M 30.308594 35.855469 C 30.308594 36.011719 30.171875 36.148438 30.015625 36.148438 L 25.4375 36.148438 C 25.28125 36.148438 25.148438 36.011719 25.148438 35.855469 L 25.148438 31.277344 C 25.148438 31.121094 25.28125 30.988281 25.4375 30.988281 L 30.015625 30.988281 C 30.171875 30.988281 30.308594 31.121094 30.308594 31.277344 Z M 33.671875 32.734375 C 34.113281 32.734375 34.472656 32.382812 34.472656 31.941406 C 34.472656 31.5 34.113281 31.140625 33.671875 31.140625 L 31.902344 31.140625 C 31.832031 30.207031 31.082031 29.460938 30.152344 29.394531 L 30.152344 27.621094 C 30.152344 27.183594 29.792969 26.824219 29.351562 26.824219 C 28.910156 26.824219 28.550781 27.183594 28.550781 27.621094 L 28.550781 29.386719 L 26.898438 29.386719 L 26.898438 27.621094 C 26.898438 27.183594 26.542969 26.824219 26.101562 26.824219 C 25.664062 26.824219 25.304688 27.183594 25.304688 27.621094 L 25.304688 29.394531 C 24.367188 29.460938 23.621094 30.207031 23.554688 31.140625 L 21.785156 31.140625 C 21.34375 31.140625 20.984375 31.5 20.984375 31.941406 C 20.984375 32.382812 21.34375 32.734375 21.785156 32.734375 L 23.546875 32.734375 L 23.546875 34.398438 L 21.785156 34.398438 C 21.34375 34.398438 20.984375 34.75 20.984375 35.191406 C 20.984375 35.632812 21.34375 35.992188 21.785156 35.992188 L 23.554688 35.992188 C 23.621094 36.925781 24.367188 37.671875 25.304688 37.742188 L 25.304688 39.511719 C 25.304688 39.953125 25.664062 40.3125 26.101562 40.3125 C 26.542969 40.3125 26.898438 39.953125 26.898438 39.511719 L 26.898438 37.746094 L 28.550781 37.746094 L 28.550781 39.511719 C 28.550781 39.953125 28.910156 40.3125 29.351562 40.3125 C 29.792969 40.3125 30.152344 39.953125 30.152344 39.511719 L 30.152344 37.742188 C 31.082031 37.671875 31.832031 36.925781 31.902344 35.992188 L 33.671875 35.992188 C 34.113281 35.992188 34.472656 35.632812 34.472656 35.191406 C 34.472656 34.75 34.113281 34.398438 33.671875 34.398438 L 31.910156 34.398438 L 31.910156 32.734375 Z M 36.546875 31.320312 C 36.480469 31.0625 36.546875 30.78125 36.722656 30.585938 L 37.957031 29.214844 C 38.09375 29.074219 38.105469 28.878906 38.011719 28.707031 L 37.074219 27.09375 C 36.980469 26.917969 36.804688 26.84375 36.609375 26.882812 L 34.804688 27.261719 C 34.539062 27.316406 34.269531 27.242188 34.078125 27.054688 C 32.992188 25.996094 31.644531 25.214844 30.1875 24.808594 C 29.933594 24.734375 29.726562 24.539062 29.644531 24.285156 L 29.074219 22.535156 C 29.011719 22.347656 28.855469 22.230469 28.660156 22.230469 L 26.796875 22.230469 C 26.59375 22.230469 26.441406 22.347656 26.375 22.535156 L 25.8125 24.285156 C 25.722656 24.539062 25.519531 24.734375 25.269531 24.808594 C 23.8125 25.214844 22.460938 25.996094 21.378906 27.054688 C 21.1875 27.242188 20.914062 27.316406 20.652344 27.261719 L 18.847656 26.882812 C 18.652344 26.84375 18.476562 26.917969 18.378906 27.09375 L 17.445312 28.707031 C 17.34375 28.878906 17.363281 29.074219 17.5 29.214844 L 18.730469 30.585938 C 18.910156 30.78125 18.976562 31.0625 18.910156 31.320312 C 18.535156 32.789062 18.535156 34.34375 18.910156 35.816406 C 18.976562 36.074219 18.910156 36.351562 18.730469 36.546875 L 17.5 37.917969 C 17.363281 38.058594 17.34375 38.257812 17.445312 38.425781 L 18.378906 40.046875 C 18.476562 40.214844 18.652344 40.289062 18.847656 40.25 L 20.652344 39.871094 C 20.914062 39.808594 21.183594 39.890625 21.378906 40.082031 C 22.460938 41.136719 23.8125 41.917969 25.269531 42.324219 C 25.519531 42.398438 25.722656 42.597656 25.8125 42.847656 L 26.375 44.597656 C 26.441406 44.785156 26.59375 44.902344 26.796875 44.902344 L 28.660156 44.902344 C 28.855469 44.902344 29.011719 44.785156 29.074219 44.597656 L 29.644531 42.847656 C 29.726562 42.597656 29.933594 42.398438 30.1875 42.324219 C 31.644531 41.917969 32.992188 41.144531 34.078125 40.082031 C 34.273438 39.890625 34.539062 39.816406 34.804688 39.871094 L 36.609375 40.25 C 36.804688 40.289062 36.980469 40.214844 37.074219 40.046875 L 38.011719 38.425781 C 38.105469 38.257812 38.09375 38.058594 37.957031 37.917969 L 36.722656 36.546875 C 36.546875 36.351562 36.480469 36.074219 36.546875 35.816406 C 36.921875 34.34375 36.921875 32.789062 36.546875 31.320312 Z M 38.1875 35.789062 C 38.5 34.328125 38.5 32.8125 38.1875 31.347656 L 39.144531 30.289062 C 39.734375 29.628906 39.835938 28.675781 39.394531 27.90625 L 38.460938 26.292969 C 38.019531 25.527344 37.136719 25.132812 36.277344 25.324219 L 34.878906 25.617188 C 33.765625 24.617188 32.449219 23.859375 31.035156 23.398438 L 30.59375 22.042969 C 30.320312 21.199219 29.542969 20.636719 28.660156 20.636719 L 26.796875 20.636719 C 25.914062 20.636719 25.132812 21.199219 24.863281 22.042969 L 24.421875 23.398438 C 23.003906 23.859375 21.6875 24.617188 20.578125 25.617188 L 19.179688 25.324219 C 18.320312 25.132812 17.4375 25.527344 16.996094 26.292969 L 16.058594 27.90625 C 15.621094 28.675781 15.722656 29.628906 16.3125 30.289062 L 17.265625 31.347656 C 16.957031 32.8125 16.957031 34.324219 17.265625 35.789062 L 16.3125 36.84375 C 15.722656 37.503906 15.621094 38.460938 16.058594 39.226562 L 16.996094 40.839844 C 17.4375 41.605469 18.3125 42 19.179688 41.816406 L 20.578125 41.519531 C 21.6875 42.515625 23.003906 43.273438 24.421875 43.734375 L 24.863281 45.09375 C 25.132812 45.933594 25.914062 46.496094 26.796875 46.496094 L 28.660156 46.496094 C 29.542969 46.496094 30.320312 45.933594 30.59375 45.09375 L 31.035156 43.734375 C 32.449219 43.273438 33.765625 42.515625 34.878906 41.519531 L 36.277344 41.816406 C 37.144531 42 38.019531 41.605469 38.460938 40.839844 L 39.394531 39.226562 C 39.835938 38.460938 39.734375 37.503906 39.144531 36.84375 Z M 49.832031 29.617188 L 52.089844 29.617188 L 52.089844 35.3125 L 49.832031 34.558594 Z M 55.941406 30.9375 L 55.941406 36.59375 L 53.683594 35.84375 L 53.683594 30.9375 Z M 59.792969 26.578125 L 59.792969 37.871094 L 57.535156 37.125 L 57.535156 26.578125 Z M 43.28125 40.957031 L 47.851562 38.695312 C 46.136719 36.785156 45.070312 35.429688 44.296875 34.222656 C 44.296875 34.214844 44.292969 34.214844 44.292969 34.207031 C 43.390625 32.804688 42.886719 31.589844 42.1875 29.914062 C 41.722656 28.800781 41.191406 27.535156 40.398438 25.851562 C 38.1875 21.140625 33.40625 18.191406 28.210938 18.191406 C 27.953125 18.191406 26.921875 18.21875 26.722656 18.269531 C 18.664062 18.617188 12.664062 25.683594 12.765625 34.703125 C 12.898438 46.355469 20.449219 44.308594 21.503906 55.914062 C 21.554688 56.429688 21.945312 56.824219 22.429688 56.824219 L 33.882812 56.824219 C 34.390625 56.824219 34.8125 56.371094 34.8125 55.8125 L 34.8125 53.710938 C 34.8125 52.289062 35.925781 51.113281 37.332031 51.128906 L 41.136719 51.183594 C 42.121094 51.195312 42.832031 50.355469 42.832031 49.390625 L 42.832031 41.667969 C 42.832031 41.363281 43.007812 41.089844 43.28125 40.957031 Z M 63.273438 39.03125 L 61.394531 38.40625 L 61.394531 25.785156 C 61.394531 25.34375 61.035156 24.984375 60.59375 24.984375 L 56.742188 24.984375 C 56.300781 24.984375 55.941406 25.34375 55.941406 25.785156 L 55.941406 29.339844 L 53.683594 29.339844 L 53.683594 28.824219 C 53.683594 28.382812 53.324219 28.023438 52.882812 28.023438 L 49.03125 28.023438 C 48.589844 28.023438 48.230469 28.382812 48.230469 28.824219 L 48.230469 34.03125 L 45.492188 33.121094 C 44.746094 31.914062 44.292969 30.816406 43.660156 29.304688 C 43.476562 28.863281 43.273438 28.382812 43.042969 27.847656 L 63.273438 21.125 C 63.691406 20.992188 63.917969 20.535156 63.78125 20.117188 C 63.636719 19.703125 63.191406 19.472656 62.769531 19.613281 L 42.398438 26.375 C 42.222656 26.003906 42.039062 25.59375 41.84375 25.175781 C 40.5 22.3125 38.335938 20 35.589844 18.476562 C 32.863281 16.96875 29.765625 16.34375 26.625 16.679688 C 22.125 16.882812 18.082031 18.914062 15.246094 22.421875 C 12.566406 25.738281 11.117188 30.105469 11.171875 34.722656 C 11.246094 41.261719 13.492188 43.898438 15.660156 46.453125 C 17.613281 48.753906 19.457031 50.921875 19.917969 56.058594 C 20.035156 57.398438 21.121094 58.417969 22.429688 58.417969 L 33.882812 58.417969 C 35.273438 58.417969 36.40625 57.25 36.40625 55.8125 L 36.40625 53.710938 C 36.40625 53.210938 36.753906 52.726562 37.3125 52.726562 L 41.117188 52.773438 C 42.988281 52.800781 44.425781 51.242188 44.425781 49.390625 L 44.425781 42.164062 L 49.511719 39.652344 C 50.003906 39.414062 50.09375 38.777344 49.742188 38.398438 C 48.617188 37.179688 47.757812 36.1875 47.066406 35.328125 L 62.769531 40.542969 C 63.195312 40.675781 63.640625 40.453125 63.78125 40.039062 C 63.917969 39.621094 63.691406 39.164062 63.273438 39.03125 Z M 63.273438 39.03125 " fill-opacity="1" fill-rule="evenodd"/></g></svg>