<svg xmlns="http://www.w3.org/2000/svg" xmlns:xlink="http://www.w3.org/1999/xlink" width="100" zoomAndPan="magnify" viewBox="0 0 75 74.999997" height="100" preserveAspectRatio="xMidYMid meet" version="1.0"><defs><clipPath id="254fcec2d2"><path d="M 12.527344 15.179688 L 62.777344 15.179688 L 62.777344 60 L 12.527344 60 Z M 12.527344 15.179688 " clip-rule="nonzero"/></clipPath></defs><g clip-path="url(#254fcec2d2)"><path fill="#2c74dd" d="M 29.515625 24.992188 C 29.257812 24.71875 29.265625 24.285156 29.539062 24.027344 C 31.695312 21.972656 34.523438 20.84375 37.5 20.84375 C 39.894531 20.84375 42.195312 21.578125 44.125 22.933594 L 44.042969 22.214844 C 44 21.839844 44.269531 21.503906 44.644531 21.460938 C 45.019531 21.417969 45.359375 21.6875 45.398438 22.0625 L 45.667969 24.4375 L 45.667969 24.445312 C 45.667969 24.453125 45.667969 24.460938 45.667969 24.46875 C 45.671875 24.480469 45.671875 24.496094 45.671875 24.507812 C 45.671875 24.519531 45.671875 24.53125 45.671875 24.542969 C 45.671875 24.554688 45.671875 24.566406 45.671875 24.574219 C 45.667969 24.589844 45.667969 24.601562 45.664062 24.613281 C 45.664062 24.621094 45.664062 24.632812 45.660156 24.640625 C 45.660156 24.652344 45.65625 24.664062 45.652344 24.675781 C 45.652344 24.6875 45.648438 24.695312 45.648438 24.707031 C 45.644531 24.71875 45.640625 24.726562 45.636719 24.738281 C 45.632812 24.75 45.628906 24.761719 45.625 24.769531 C 45.621094 24.78125 45.617188 24.789062 45.613281 24.800781 C 45.609375 24.808594 45.601562 24.820312 45.597656 24.832031 C 45.59375 24.839844 45.589844 24.847656 45.582031 24.859375 C 45.578125 24.867188 45.570312 24.878906 45.566406 24.890625 C 45.558594 24.898438 45.554688 24.90625 45.546875 24.914062 C 45.539062 24.925781 45.535156 24.933594 45.527344 24.945312 C 45.519531 24.953125 45.507812 24.964844 45.5 24.976562 C 45.496094 24.980469 45.488281 24.988281 45.484375 24.992188 C 45.464844 25.011719 45.449219 25.027344 45.433594 25.042969 C 45.429688 25.042969 45.429688 25.042969 45.425781 25.046875 C 45.410156 25.058594 45.394531 25.070312 45.378906 25.082031 C 45.371094 25.089844 45.363281 25.09375 45.355469 25.097656 C 45.34375 25.105469 45.332031 25.113281 45.320312 25.117188 C 45.3125 25.125 45.300781 25.128906 45.292969 25.132812 C 45.28125 25.136719 45.269531 25.144531 45.257812 25.148438 C 45.25 25.152344 45.238281 25.15625 45.230469 25.160156 C 45.21875 25.164062 45.207031 25.167969 45.195312 25.171875 C 45.183594 25.175781 45.171875 25.179688 45.160156 25.179688 C 45.152344 25.183594 45.140625 25.1875 45.128906 25.1875 C 45.117188 25.191406 45.105469 25.195312 45.089844 25.195312 C 45.082031 25.195312 45.074219 25.199219 45.066406 25.199219 L 42.683594 25.46875 C 42.660156 25.472656 42.632812 25.472656 42.605469 25.472656 C 42.265625 25.472656 41.96875 25.214844 41.929688 24.867188 C 41.886719 24.492188 42.15625 24.152344 42.53125 24.113281 L 43.304688 24.023438 C 41.609375 22.84375 39.597656 22.207031 37.5 22.207031 C 34.875 22.207031 32.382812 23.207031 30.480469 25.015625 C 30.207031 25.277344 29.777344 25.265625 29.515625 24.992188 Z M 29.332031 40.304688 C 29.332031 40.3125 29.332031 40.320312 29.332031 40.328125 L 29.597656 42.710938 C 29.636719 43.058594 29.929688 43.316406 30.273438 43.316406 C 30.300781 43.316406 30.324219 43.316406 30.351562 43.3125 C 30.726562 43.269531 30.996094 42.933594 30.953125 42.558594 L 30.875 41.839844 C 32.804688 43.199219 35.101562 43.929688 37.5 43.929688 C 40.476562 43.929688 43.304688 42.800781 45.460938 40.746094 C 45.734375 40.488281 45.746094 40.054688 45.484375 39.78125 C 45.226562 39.507812 44.792969 39.5 44.519531 39.757812 C 42.617188 41.570312 40.125 42.566406 37.5 42.566406 C 35.402344 42.566406 33.394531 41.929688 31.699219 40.75 L 32.46875 40.664062 C 32.84375 40.625 33.113281 40.285156 33.070312 39.910156 C 33.027344 39.539062 32.691406 39.265625 32.316406 39.308594 L 29.933594 39.574219 C 29.933594 39.574219 29.933594 39.574219 29.929688 39.574219 C 29.917969 39.578125 29.902344 39.578125 29.890625 39.582031 C 29.882812 39.582031 29.871094 39.585938 29.863281 39.585938 C 29.851562 39.589844 29.839844 39.59375 29.828125 39.59375 C 29.800781 39.601562 29.773438 39.613281 29.746094 39.625 C 29.742188 39.625 29.742188 39.625 29.738281 39.625 C 29.722656 39.632812 29.703125 39.640625 29.6875 39.652344 C 29.683594 39.652344 29.679688 39.65625 29.679688 39.65625 C 29.636719 39.679688 29.601562 39.703125 29.566406 39.734375 C 29.5625 39.734375 29.5625 39.738281 29.558594 39.742188 C 29.542969 39.753906 29.53125 39.765625 29.519531 39.78125 C 29.515625 39.78125 29.515625 39.78125 29.515625 39.78125 C 29.511719 39.789062 29.507812 39.792969 29.5 39.800781 C 29.492188 39.808594 29.484375 39.820312 29.472656 39.832031 C 29.46875 39.839844 29.460938 39.847656 29.453125 39.859375 C 29.449219 39.867188 29.441406 39.875 29.4375 39.886719 C 29.429688 39.894531 29.421875 39.90625 29.417969 39.917969 C 29.410156 39.925781 29.40625 39.933594 29.402344 39.941406 C 29.398438 39.953125 29.390625 39.964844 29.386719 39.976562 C 29.382812 39.984375 29.378906 39.992188 29.375 40.003906 C 29.371094 40.015625 29.367188 40.023438 29.363281 40.035156 C 29.359375 40.046875 29.355469 40.054688 29.355469 40.066406 C 29.351562 40.078125 29.347656 40.085938 29.347656 40.097656 C 29.34375 40.109375 29.339844 40.121094 29.339844 40.132812 C 29.335938 40.140625 29.335938 40.152344 29.335938 40.160156 C 29.332031 40.171875 29.332031 40.1875 29.328125 40.199219 C 29.328125 40.207031 29.328125 40.21875 29.328125 40.230469 C 29.328125 40.242188 29.328125 40.253906 29.328125 40.265625 C 29.328125 40.277344 29.328125 40.292969 29.332031 40.304688 Z M 39.90625 31.117188 L 39.90625 33.65625 C 39.90625 34.285156 39.394531 34.796875 38.769531 34.796875 L 36.230469 34.796875 C 35.601562 34.796875 35.09375 34.285156 35.09375 33.65625 L 35.09375 31.117188 C 35.09375 30.488281 35.601562 29.980469 36.230469 29.980469 L 38.769531 29.980469 C 39.394531 29.980469 39.90625 30.488281 39.90625 31.117188 Z M 38.539062 31.34375 L 36.457031 31.34375 L 36.457031 33.429688 L 38.539062 33.429688 Z M 42.15625 30.667969 L 42.15625 31.707031 L 44.570312 31.707031 C 44.945312 31.707031 45.253906 32.011719 45.253906 32.386719 C 45.253906 32.765625 44.945312 33.070312 44.570312 33.070312 L 42.15625 33.070312 L 42.15625 34.109375 L 44.570312 34.109375 C 44.945312 34.109375 45.253906 34.414062 45.253906 34.792969 C 45.253906 35.167969 44.945312 35.476562 44.570312 35.476562 L 42.148438 35.476562 C 42.070312 36.300781 41.410156 36.957031 40.585938 37.035156 L 40.585938 39.457031 C 40.585938 39.835938 40.28125 40.140625 39.902344 40.140625 C 39.527344 40.140625 39.21875 39.835938 39.21875 39.457031 L 39.21875 37.042969 L 38.179688 37.042969 L 38.179688 39.457031 C 38.179688 39.835938 37.875 40.140625 37.5 40.140625 C 37.121094 40.140625 36.816406 39.835938 36.816406 39.457031 L 36.816406 37.042969 L 35.777344 37.042969 L 35.777344 39.457031 C 35.777344 39.835938 35.472656 40.140625 35.09375 40.140625 C 34.71875 40.140625 34.410156 39.835938 34.410156 39.457031 L 34.410156 37.035156 C 33.589844 36.957031 32.929688 36.300781 32.851562 35.476562 L 30.429688 35.476562 C 30.054688 35.476562 29.746094 35.167969 29.746094 34.792969 C 29.746094 34.414062 30.054688 34.109375 30.429688 34.109375 L 32.84375 34.109375 L 32.84375 33.070312 L 30.429688 33.070312 C 30.054688 33.070312 29.746094 32.765625 29.746094 32.386719 C 29.746094 32.011719 30.054688 31.707031 30.429688 31.707031 L 32.84375 31.707031 L 32.84375 30.667969 L 30.429688 30.667969 C 30.054688 30.667969 29.746094 30.363281 29.746094 29.984375 C 29.746094 29.609375 30.054688 29.300781 30.429688 29.300781 L 32.851562 29.300781 C 32.929688 28.476562 33.585938 27.816406 34.410156 27.742188 L 34.410156 25.316406 C 34.410156 24.941406 34.71875 24.632812 35.09375 24.632812 C 35.472656 24.632812 35.777344 24.941406 35.777344 25.316406 L 35.777344 27.730469 L 36.816406 27.730469 L 36.816406 25.316406 C 36.816406 24.941406 37.121094 24.632812 37.5 24.632812 C 37.875 24.632812 38.179688 24.941406 38.179688 25.316406 L 38.179688 27.730469 L 39.21875 27.730469 L 39.21875 25.316406 C 39.21875 24.941406 39.527344 24.632812 39.902344 24.632812 C 40.28125 24.632812 40.585938 24.941406 40.585938 25.316406 L 40.585938 27.742188 C 41.410156 27.816406 42.070312 28.476562 42.148438 29.300781 L 44.570312 29.300781 C 44.945312 29.300781 45.253906 29.609375 45.253906 29.984375 C 45.253906 30.363281 44.945312 30.667969 44.570312 30.667969 Z M 40.789062 29.460938 C 40.789062 29.265625 40.621094 29.097656 40.425781 29.097656 L 34.574219 29.097656 C 34.378906 29.097656 34.210938 29.265625 34.210938 29.460938 L 34.210938 35.3125 C 34.210938 35.511719 34.375 35.675781 34.574219 35.675781 L 40.425781 35.675781 C 40.621094 35.675781 40.789062 35.511719 40.789062 35.3125 Z M 62.453125 28.339844 L 62.453125 36.4375 C 62.453125 36.679688 62.324219 36.90625 62.113281 37.027344 L 60.621094 37.890625 L 60.621094 46.585938 C 60.621094 48.246094 59.273438 49.59375 57.617188 49.59375 L 42.503906 49.59375 C 42.550781 51.75 43.457031 53.425781 45.144531 54.484375 L 45.808594 54.484375 C 47.332031 54.484375 48.574219 55.960938 48.574219 57.773438 L 48.574219 59.132812 C 48.574219 59.507812 48.269531 59.8125 47.890625 59.8125 L 27.105469 59.8125 C 26.730469 59.8125 26.421875 59.507812 26.421875 59.132812 L 26.421875 57.773438 C 26.421875 55.960938 27.664062 54.484375 29.191406 54.484375 L 29.851562 54.484375 C 31.539062 53.429688 32.445312 51.75 32.492188 49.59375 L 17.382812 49.59375 C 15.726562 49.59375 14.378906 48.246094 14.378906 46.585938 L 14.378906 37.890625 L 12.882812 37.027344 C 12.671875 36.90625 12.542969 36.679688 12.542969 36.4375 L 12.542969 28.339844 C 12.542969 28.097656 12.671875 27.871094 12.882812 27.75 L 14.378906 26.886719 L 14.378906 18.1875 C 14.378906 16.53125 15.726562 15.179688 17.382812 15.179688 L 57.617188 15.179688 C 59.273438 15.179688 60.621094 16.53125 60.621094 18.1875 L 60.621094 26.886719 L 62.113281 27.75 C 62.324219 27.871094 62.453125 28.097656 62.453125 28.339844 Z M 18.722656 44.691406 C 18.722656 44.914062 18.910156 45.101562 19.132812 45.101562 L 55.867188 45.101562 C 56.09375 45.101562 56.277344 44.917969 56.277344 44.691406 L 56.277344 40.398438 L 55.101562 41.078125 C 54.996094 41.136719 54.878906 41.167969 54.761719 41.167969 C 54.644531 41.167969 54.527344 41.136719 54.417969 41.078125 L 47.410156 37.027344 C 47.199219 36.90625 47.066406 36.679688 47.066406 36.4375 L 47.066406 28.339844 C 47.066406 28.097656 47.199219 27.871094 47.410156 27.75 L 54.417969 23.699219 C 54.632812 23.578125 54.890625 23.578125 55.101562 23.699219 L 56.277344 24.378906 L 56.277344 20.082031 C 56.277344 19.855469 56.09375 19.671875 55.867188 19.671875 L 19.132812 19.671875 C 18.910156 19.671875 18.722656 19.859375 18.722656 20.082031 L 18.722656 24.378906 L 19.898438 23.699219 C 20.109375 23.578125 20.371094 23.578125 20.582031 23.699219 L 27.589844 27.75 C 27.800781 27.871094 27.933594 28.097656 27.933594 28.339844 L 27.933594 36.4375 C 27.933594 36.679688 27.800781 36.90625 27.589844 37.027344 L 20.582031 41.078125 C 20.476562 41.136719 20.355469 41.167969 20.238281 41.167969 C 20.121094 41.167969 20.003906 41.136719 19.898438 41.078125 L 18.722656 40.398438 Z M 14.589844 28.339844 L 20.238281 31.601562 L 25.882812 28.339844 L 20.238281 25.078125 Z M 20.921875 39.304688 L 26.566406 36.042969 L 26.566406 29.519531 L 20.921875 32.78125 Z M 54.078125 32.78125 L 48.433594 29.519531 L 48.433594 36.042969 L 54.078125 39.304688 Z M 60.40625 28.339844 L 54.761719 25.082031 L 49.117188 28.339844 L 54.761719 31.601562 Z M 15.746094 26.097656 L 17.355469 25.167969 L 17.355469 20.082031 C 17.355469 19.105469 18.152344 18.308594 19.132812 18.308594 L 55.867188 18.308594 C 56.84375 18.308594 57.640625 19.105469 57.640625 20.082031 L 57.640625 25.167969 L 59.253906 26.097656 L 59.253906 18.1875 C 59.253906 17.28125 58.519531 16.546875 57.617188 16.546875 L 17.382812 16.546875 C 16.480469 16.546875 15.746094 17.28125 15.746094 18.1875 Z M 13.910156 36.042969 L 15.367188 36.882812 C 15.394531 36.898438 15.421875 36.914062 15.449219 36.929688 L 18.351562 38.605469 C 18.371094 38.617188 18.390625 38.628906 18.410156 38.640625 L 19.554688 39.304688 L 19.554688 32.78125 L 13.910156 29.523438 Z M 45.808594 55.847656 L 29.191406 55.847656 C 28.429688 55.847656 27.789062 56.730469 27.789062 57.773438 L 27.789062 58.449219 L 47.210938 58.449219 L 47.210938 57.773438 C 47.210938 56.730469 46.566406 55.847656 45.808594 55.847656 Z M 41.140625 49.59375 L 33.859375 49.59375 C 33.820312 51.542969 33.175781 53.21875 31.988281 54.484375 L 43.007812 54.484375 C 41.824219 53.21875 41.179688 51.542969 41.140625 49.59375 Z M 59.253906 38.679688 L 57.640625 39.609375 L 57.640625 44.691406 C 57.640625 45.671875 56.84375 46.46875 55.867188 46.46875 L 19.132812 46.46875 C 18.152344 46.46875 17.355469 45.671875 17.355469 44.691406 L 17.355469 39.609375 L 15.746094 38.679688 L 15.746094 46.585938 C 15.746094 47.492188 16.480469 48.226562 17.382812 48.226562 L 57.617188 48.226562 C 58.519531 48.226562 59.253906 47.492188 59.253906 46.585938 Z M 61.089844 36.042969 L 61.089844 29.523438 L 55.445312 32.78125 L 55.445312 39.304688 L 56.570312 38.652344 C 56.597656 38.632812 56.628906 38.617188 56.65625 38.601562 L 59.578125 36.914062 C 59.59375 36.90625 59.605469 36.898438 59.621094 36.890625 Z M 61.089844 36.042969 " fill-opacity="1" fill-rule="nonzero"/></g></svg>