<svg xmlns="http://www.w3.org/2000/svg" xmlns:xlink="http://www.w3.org/1999/xlink" width="100" zoomAndPan="magnify" viewBox="0 0 75 74.999997" height="100" preserveAspectRatio="xMidYMid meet" version="1.0"><defs><clipPath id="49528d2863"><path d="M 17.519531 9.699219 L 57.269531 9.699219 L 57.269531 65.199219 L 17.519531 65.199219 Z M 17.519531 9.699219 " clip-rule="nonzero"/></clipPath></defs><g clip-path="url(#49528d2863)"><path fill="#2c74dd" d="M 25.207031 9.671875 C 24.9375 9.671875 24.722656 9.894531 24.722656 10.15625 L 24.722656 18.683594 L 21.648438 18.683594 C 21.375 18.683594 21.160156 18.898438 21.160156 19.171875 L 21.160156 27.6875 L 18.09375 27.6875 C 17.832031 27.6875 17.609375 27.910156 17.609375 28.175781 L 17.609375 59.871094 C 17.609375 60.144531 17.832031 60.355469 18.09375 60.355469 L 27.691406 60.355469 C 29.292969 62.121094 30.949219 63.421875 32.339844 64.316406 C 32.84375 64.65625 33.316406 64.945312 33.707031 65.160156 C 33.785156 65.207031 33.863281 65.226562 33.9375 65.226562 C 34.027344 65.226562 34.105469 65.199219 34.183594 65.160156 C 34.53125 64.964844 35.101562 64.625 35.832031 64.128906 C 37.132812 63.257812 38.683594 62.015625 40.195312 60.355469 L 49.792969 60.355469 C 50.0625 60.355469 50.277344 60.144531 50.277344 59.871094 L 50.277344 51.351562 L 53.351562 51.351562 C 53.625 51.351562 53.839844 51.128906 53.839844 50.867188 L 53.839844 42.339844 L 56.90625 42.339844 C 57.175781 42.339844 57.390625 42.125 57.390625 41.855469 L 57.390625 10.15625 C 57.390625 9.894531 57.175781 9.671875 56.90625 9.671875 Z M 28.273438 12.835938 C 28.273438 12.707031 28.332031 12.582031 28.417969 12.496094 C 28.601562 12.3125 28.921875 12.3125 29.109375 12.496094 C 29.195312 12.582031 29.242188 12.707031 29.242188 12.835938 C 29.242188 12.894531 29.234375 12.960938 29.214844 13.019531 C 29.183594 13.078125 29.144531 13.136719 29.109375 13.175781 C 29.011719 13.269531 28.894531 13.320312 28.757812 13.320312 C 28.632812 13.320312 28.507812 13.269531 28.417969 13.175781 C 28.371094 13.136719 28.339844 13.078125 28.3125 13.019531 C 28.292969 12.960938 28.273438 12.894531 28.273438 12.835938 Z M 31.222656 12.835938 C 31.222656 12.707031 31.269531 12.582031 31.367188 12.496094 C 31.40625 12.445312 31.464844 12.40625 31.523438 12.386719 C 31.640625 12.339844 31.777344 12.339844 31.890625 12.386719 C 31.949219 12.40625 32.007812 12.445312 32.046875 12.496094 C 32.144531 12.582031 32.191406 12.707031 32.191406 12.835938 C 32.191406 12.894531 32.183594 12.960938 32.152344 13.019531 C 32.132812 13.078125 32.097656 13.136719 32.046875 13.175781 C 31.960938 13.269531 31.84375 13.320312 31.707031 13.320312 C 31.648438 13.320312 31.582031 13.308594 31.523438 13.28125 C 31.464844 13.261719 31.417969 13.222656 31.367188 13.175781 C 31.320312 13.136719 31.28125 13.078125 31.261719 13.019531 C 31.230469 12.960938 31.222656 12.894531 31.222656 12.835938 Z M 34.171875 12.835938 C 34.171875 12.707031 34.21875 12.582031 34.308594 12.496094 C 34.445312 12.359375 34.667969 12.3125 34.839844 12.386719 C 34.898438 12.40625 34.957031 12.445312 34.996094 12.496094 C 35.085938 12.582031 35.140625 12.707031 35.140625 12.835938 C 35.140625 12.894531 35.121094 12.960938 35.101562 13.019531 C 35.074219 13.078125 35.046875 13.136719 34.996094 13.175781 C 34.910156 13.269531 34.785156 13.320312 34.65625 13.320312 C 34.519531 13.320312 34.40625 13.269531 34.308594 13.175781 C 34.269531 13.136719 34.230469 13.078125 34.203125 13.019531 C 34.183594 12.960938 34.171875 12.894531 34.171875 12.835938 Z M 53.351562 13.320312 L 37.597656 13.320312 C 37.335938 13.320312 37.113281 13.105469 37.113281 12.835938 C 37.113281 12.5625 37.335938 12.351562 37.597656 12.351562 L 53.351562 12.351562 C 53.617188 12.351562 53.839844 12.5625 53.839844 12.835938 C 53.839844 13.105469 53.617188 13.320312 53.351562 13.320312 Z M 24.722656 21.839844 C 24.722656 21.710938 24.769531 21.585938 24.867188 21.5 C 24.992188 21.363281 25.207031 21.316406 25.390625 21.390625 C 25.449219 21.421875 25.507812 21.449219 25.546875 21.5 C 25.632812 21.585938 25.691406 21.710938 25.691406 21.839844 C 25.691406 21.90625 25.671875 21.964844 25.652344 22.023438 C 25.632812 22.089844 25.59375 22.140625 25.546875 22.1875 C 25.460938 22.273438 25.332031 22.324219 25.207031 22.324219 C 25.070312 22.324219 24.953125 22.273438 24.867188 22.1875 C 24.820312 22.140625 24.78125 22.089844 24.761719 22.023438 C 24.730469 21.964844 24.722656 21.90625 24.722656 21.839844 Z M 27.660156 21.839844 C 27.660156 21.710938 27.71875 21.585938 27.808594 21.5 C 27.992188 21.316406 28.3125 21.324219 28.496094 21.5 C 28.582031 21.585938 28.632812 21.710938 28.632812 21.839844 C 28.632812 21.90625 28.621094 21.964844 28.601562 22.023438 C 28.574219 22.089844 28.542969 22.140625 28.496094 22.1875 C 28.398438 22.273438 28.28125 22.324219 28.148438 22.324219 C 28.019531 22.324219 27.90625 22.273438 27.808594 22.1875 C 27.757812 22.140625 27.730469 22.089844 27.699219 22.023438 C 27.679688 21.964844 27.660156 21.90625 27.660156 21.839844 Z M 30.613281 21.839844 C 30.613281 21.710938 30.667969 21.585938 30.757812 21.5 C 30.929688 21.324219 31.261719 21.316406 31.445312 21.5 C 31.53125 21.585938 31.582031 21.710938 31.582031 21.839844 C 31.582031 21.90625 31.570312 21.964844 31.542969 22.023438 C 31.523438 22.089844 31.484375 22.140625 31.445312 22.1875 C 31.398438 22.226562 31.339844 22.265625 31.28125 22.292969 C 31.222656 22.3125 31.164062 22.324219 31.097656 22.324219 C 31.039062 22.324219 30.96875 22.3125 30.914062 22.292969 C 30.855469 22.265625 30.804688 22.226562 30.757812 22.1875 C 30.707031 22.140625 30.667969 22.089844 30.648438 22.023438 C 30.621094 21.964844 30.613281 21.90625 30.613281 21.839844 Z M 49.792969 22.324219 L 34.046875 22.324219 C 33.773438 22.324219 33.5625 22.109375 33.5625 21.839844 C 33.5625 21.578125 33.773438 21.351562 34.046875 21.351562 L 49.792969 21.351562 C 50.0625 21.351562 50.277344 21.578125 50.277344 21.839844 C 50.277344 22.109375 50.0625 22.324219 49.792969 22.324219 Z M 21.160156 30.851562 C 21.160156 30.726562 21.21875 30.601562 21.308594 30.511719 C 21.492188 30.328125 21.8125 30.328125 21.996094 30.511719 C 22.082031 30.601562 22.132812 30.726562 22.132812 30.851562 C 22.132812 30.917969 22.121094 30.976562 22.09375 31.035156 C 22.074219 31.09375 22.035156 31.152344 21.996094 31.191406 C 21.898438 31.289062 21.78125 31.335938 21.648438 31.335938 C 21.519531 31.335938 21.394531 31.289062 21.308594 31.191406 C 21.257812 31.152344 21.230469 31.09375 21.199219 31.035156 C 21.179688 30.976562 21.160156 30.917969 21.160156 30.851562 Z M 24.109375 30.851562 C 24.109375 30.726562 24.160156 30.601562 24.257812 30.511719 C 24.429688 30.328125 24.761719 30.328125 24.9375 30.511719 C 25.03125 30.601562 25.082031 30.726562 25.082031 30.851562 C 25.082031 30.917969 25.070312 30.976562 25.042969 31.035156 C 25.023438 31.09375 24.984375 31.152344 24.9375 31.191406 C 24.847656 31.289062 24.722656 31.335938 24.597656 31.335938 C 24.46875 31.335938 24.34375 31.289062 24.257812 31.191406 C 24.207031 31.152344 24.167969 31.09375 24.148438 31.035156 C 24.121094 30.976562 24.109375 30.917969 24.109375 30.851562 Z M 27.058594 30.851562 C 27.058594 30.726562 27.109375 30.601562 27.195312 30.511719 C 27.378906 30.328125 27.699219 30.328125 27.886719 30.511719 C 27.972656 30.601562 28.03125 30.726562 28.03125 30.851562 C 28.03125 30.917969 28.011719 30.976562 27.992188 31.035156 C 27.960938 31.09375 27.933594 31.152344 27.886719 31.191406 C 27.789062 31.289062 27.671875 31.335938 27.546875 31.335938 C 27.410156 31.335938 27.292969 31.289062 27.195312 31.191406 C 27.15625 31.152344 27.117188 31.09375 27.089844 31.035156 C 27.070312 30.976562 27.058594 30.917969 27.058594 30.851562 Z M 46.242188 31.335938 L 30.484375 31.335938 C 30.222656 31.335938 30 31.125 30 30.851562 C 30 30.582031 30.222656 30.367188 30.484375 30.367188 L 46.242188 30.367188 C 46.503906 30.367188 46.726562 30.582031 46.726562 30.851562 C 46.726562 31.125 46.503906 31.335938 46.242188 31.335938 Z M 39.613281 59.542969 L 33.386719 57.476562 C 33.453125 57.242188 33.503906 57 33.503906 56.746094 C 33.503906 55.390625 32.398438 54.273438 31.027344 54.273438 C 29.660156 54.273438 28.554688 55.390625 28.554688 56.746094 C 28.554688 58.113281 29.660156 59.230469 31.027344 59.230469 C 31.785156 59.230469 32.453125 58.882812 32.910156 58.339844 L 38.886719 60.316406 C 37.625 61.597656 36.363281 62.597656 35.289062 63.324219 C 34.734375 63.703125 34.277344 63.984375 33.9375 64.179688 C 33.648438 64.003906 33.28125 63.78125 32.871094 63.5 C 30.378906 61.890625 26.933594 58.960938 24.710938 54.148438 C 24.324219 53.304688 23.996094 52.4375 23.722656 51.566406 C 23.480469 50.808594 23.296875 50.03125 23.148438 49.265625 L 33.375 52.429688 C 33.386719 52.496094 33.375 52.574219 33.394531 52.644531 C 33.503906 53.292969 33.851562 53.867188 34.394531 54.253906 C 34.832031 54.5625 35.335938 54.71875 35.832031 54.71875 C 36.605469 54.71875 37.363281 54.359375 37.847656 53.679688 C 38.644531 52.574219 38.390625 51.023438 37.277344 50.226562 C 36.742188 49.839844 36.082031 49.695312 35.433594 49.800781 C 34.785156 49.90625 34.210938 50.257812 33.824219 50.800781 C 33.675781 51.003906 33.582031 51.226562 33.503906 51.449219 L 22.957031 48.191406 C 22.703125 46.480469 22.683594 45.027344 22.714844 44.007812 L 33.9375 39.738281 L 45.175781 44.007812 C 45.234375 45.570312 45.144531 47.589844 44.632812 49.839844 L 33.386719 46.09375 C 33.453125 45.859375 33.503906 45.617188 33.503906 45.367188 C 33.503906 44.007812 32.398438 42.890625 31.027344 42.890625 C 29.660156 42.890625 28.554688 44.007812 28.554688 45.367188 C 28.554688 46.734375 29.660156 47.851562 31.027344 47.851562 C 31.785156 47.851562 32.453125 47.5 32.910156 46.957031 L 44.386719 50.78125 C 44.085938 51.867188 43.710938 52.992188 43.175781 54.148438 C 42.175781 56.308594 40.914062 58.085938 39.613281 59.542969 Z M 49.308594 59.386719 L 41.03125 59.386719 C 42.136719 58.027344 43.195312 56.425781 44.058594 54.554688 C 44.679688 53.207031 45.105469 51.886719 45.425781 50.632812 L 45.4375 50.625 C 45.445312 50.605469 45.4375 50.597656 45.445312 50.585938 C 46.125 47.859375 46.222656 45.425781 46.136719 43.640625 C 46.117188 43.445312 46 43.28125 45.816406 43.210938 L 34.113281 38.757812 C 34.007812 38.71875 33.882812 38.71875 33.773438 38.757812 L 22.074219 43.210938 C 21.890625 43.28125 21.761719 43.453125 21.753906 43.648438 C 21.703125 44.765625 21.683594 46.492188 22.035156 48.578125 C 22.035156 48.605469 22.035156 48.636719 22.042969 48.65625 C 22.054688 48.714844 22.0625 48.761719 22.074219 48.820312 C 22.238281 49.828125 22.480469 50.859375 22.800781 51.855469 C 23.082031 52.757812 23.433594 53.671875 23.828125 54.554688 C 24.691406 56.425781 25.742188 58.027344 26.847656 59.386719 L 18.582031 59.386719 L 18.582031 33.945312 L 49.308594 33.945312 Z M 52.867188 50.382812 L 50.277344 50.382812 L 50.277344 28.175781 C 50.277344 27.910156 50.0625 27.6875 49.792969 27.6875 L 22.132812 27.6875 L 22.132812 24.933594 L 52.867188 24.933594 Z M 56.417969 41.367188 L 53.839844 41.367188 L 53.839844 19.171875 C 53.839844 18.898438 53.625 18.683594 53.351562 18.683594 L 25.691406 18.683594 L 25.691406 15.929688 L 56.417969 15.929688 Z M 56.417969 41.367188 " fill-opacity="1" fill-rule="nonzero"/></g><path fill="#2c74dd" d="M 21.066406 37.089844 L 27.828125 37.089844 C 28.097656 37.089844 28.3125 36.871094 28.3125 36.605469 C 28.3125 36.335938 28.097656 36.121094 27.828125 36.121094 L 21.066406 36.121094 C 20.800781 36.121094 20.582031 36.335938 20.582031 36.605469 C 20.582031 36.871094 20.800781 37.089844 21.066406 37.089844 Z M 21.066406 37.089844 " fill-opacity="1" fill-rule="nonzero"/><path fill="#2c74dd" d="M 31.90625 37.089844 L 32.148438 37.089844 C 32.414062 37.089844 32.632812 36.871094 32.632812 36.605469 C 32.632812 36.335938 32.414062 36.121094 32.148438 36.121094 L 31.90625 36.121094 C 31.640625 36.121094 31.421875 36.335938 31.421875 36.605469 C 31.421875 36.871094 31.640625 37.089844 31.90625 37.089844 Z M 31.90625 37.089844 " fill-opacity="1" fill-rule="nonzero"/></svg>