<svg xmlns="http://www.w3.org/2000/svg" xmlns:xlink="http://www.w3.org/1999/xlink" width="100" zoomAndPan="magnify" viewBox="0 0 75 74.999997" height="100" preserveAspectRatio="xMidYMid meet" version="1.0"><defs><clipPath id="7de421c763"><path d="M 9.089844 11.75 L 66 11.75 L 66 63.5 L 9.089844 63.5 Z M 9.089844 11.75 " clip-rule="nonzero"/></clipPath></defs><g clip-path="url(#7de421c763)"><path fill="#2c74dd" d="M 31.765625 34.585938 C 32.210938 34.585938 32.574219 34.945312 32.574219 35.390625 C 32.574219 35.835938 32.210938 36.199219 31.765625 36.199219 C 31.320312 36.199219 30.960938 35.835938 30.960938 35.390625 C 30.957031 34.945312 31.320312 34.585938 31.765625 34.585938 Z M 37.867188 29.054688 C 38.3125 29.054688 38.671875 29.417969 38.671875 29.863281 C 38.671875 30.304688 38.3125 30.667969 37.867188 30.667969 C 37.421875 30.667969 37.0625 30.304688 37.0625 29.863281 C 37.0625 29.417969 37.425781 29.054688 37.867188 29.054688 Z M 43.972656 32.722656 C 44.417969 32.722656 44.777344 33.082031 44.777344 33.527344 C 44.777344 33.972656 44.417969 34.335938 43.972656 34.335938 C 43.527344 34.335938 43.164062 33.972656 43.164062 33.527344 C 43.164062 33.085938 43.527344 32.722656 43.972656 32.722656 Z M 50.074219 26.992188 C 50.519531 26.992188 50.878906 27.355469 50.878906 27.796875 C 50.878906 28.242188 50.519531 28.605469 50.074219 28.605469 C 49.628906 28.605469 49.269531 28.242188 49.269531 27.796875 C 49.269531 27.355469 49.628906 26.992188 50.074219 26.992188 Z M 31.765625 37.609375 C 32.988281 37.609375 33.988281 36.617188 33.988281 35.390625 C 33.988281 35.074219 33.917969 34.773438 33.800781 34.503906 L 36.785156 31.796875 C 37.105469 31.976562 37.476562 32.082031 37.871094 32.082031 C 38.417969 32.082031 38.917969 31.878906 39.304688 31.550781 L 41.804688 33.050781 C 41.769531 33.207031 41.753906 33.363281 41.753906 33.527344 C 41.753906 34.753906 42.75 35.75 43.972656 35.75 C 45.195312 35.75 46.191406 34.753906 46.191406 33.527344 C 46.191406 33.199219 46.117188 32.886719 45.988281 32.605469 L 49.027344 29.753906 C 49.339844 29.921875 49.695312 30.019531 50.074219 30.019531 C 51.300781 30.019531 52.296875 29.023438 52.296875 27.800781 C 52.296875 26.574219 51.300781 25.578125 50.074219 25.578125 C 48.851562 25.578125 47.855469 26.574219 47.855469 27.800781 C 47.855469 28.128906 47.929688 28.441406 48.058594 28.722656 L 45.023438 31.574219 C 44.710938 31.40625 44.351562 31.308594 43.972656 31.308594 C 43.425781 31.308594 42.921875 31.511719 42.535156 31.839844 L 40.035156 30.335938 C 40.070312 30.183594 40.089844 30.023438 40.089844 29.859375 C 40.089844 28.636719 39.09375 27.640625 37.871094 27.640625 C 36.644531 27.640625 35.648438 28.632812 35.648438 29.859375 C 35.648438 30.175781 35.714844 30.476562 35.835938 30.746094 L 32.847656 33.453125 C 32.527344 33.273438 32.160156 33.167969 31.765625 33.167969 C 30.542969 33.167969 29.546875 34.164062 29.546875 35.390625 C 29.546875 36.617188 30.539062 37.609375 31.765625 37.609375 Z M 49.902344 33.398438 L 52.128906 33.398438 L 52.128906 47.976562 L 49.902344 47.976562 Z M 48.488281 32.691406 C 48.488281 32.300781 48.804688 31.984375 49.195312 31.984375 L 52.835938 31.984375 C 53.226562 31.984375 53.542969 32.300781 53.542969 32.691406 L 53.542969 48.683594 C 53.542969 49.070312 53.226562 49.390625 52.835938 49.390625 L 49.195312 49.390625 C 48.804688 49.390625 48.488281 49.070312 48.488281 48.683594 Z M 46.472656 47.976562 L 44.246094 47.976562 L 44.246094 39.226562 L 46.472656 39.226562 Z M 47.179688 37.8125 L 43.539062 37.8125 C 43.148438 37.8125 42.832031 38.128906 42.832031 38.519531 L 42.832031 48.679688 C 42.832031 49.070312 43.148438 49.386719 43.539062 49.386719 L 47.179688 49.386719 C 47.570312 49.386719 47.886719 49.070312 47.886719 48.679688 L 47.886719 38.519531 C 47.886719 38.128906 47.570312 37.8125 47.179688 37.8125 Z M 40.816406 47.976562 L 38.585938 47.976562 L 38.585938 37.707031 L 40.816406 37.707031 Z M 41.523438 36.292969 C 41.914062 36.292969 42.230469 36.609375 42.230469 37 L 42.230469 48.683594 C 42.230469 49.070312 41.914062 49.390625 41.523438 49.390625 L 37.882812 49.390625 C 37.492188 49.390625 37.175781 49.070312 37.175781 48.683594 L 37.175781 37 C 37.175781 36.609375 37.492188 36.292969 37.882812 36.292969 Z M 35.160156 47.976562 L 32.933594 47.976562 L 32.933594 42.179688 L 35.160156 42.179688 Z M 35.867188 40.765625 L 32.226562 40.765625 C 31.835938 40.765625 31.519531 41.082031 31.519531 41.472656 L 31.519531 48.683594 C 31.519531 49.070312 31.835938 49.390625 32.226562 49.390625 L 35.867188 49.390625 C 36.257812 49.390625 36.574219 49.070312 36.574219 48.683594 L 36.574219 41.472656 C 36.574219 41.082031 36.257812 40.765625 35.867188 40.765625 Z M 19.242188 44.234375 C 21.683594 54.476562 30.921875 61.824219 41.542969 61.824219 C 47.609375 61.824219 53.132812 59.453125 57.238281 55.59375 L 54.210938 52.5625 C 50.882812 55.652344 46.429688 57.539062 41.542969 57.539062 C 37.265625 57.539062 33.242188 56.128906 29.910156 53.464844 C 26.90625 51.0625 24.703125 47.761719 23.636719 44.101562 C 23.363281 44.1875 23.074219 44.234375 22.773438 44.234375 Z M 17.125 41.363281 L 17.125 40.296875 L 24.234375 40.296875 L 24.234375 41.363281 C 24.234375 42.167969 23.578125 42.820312 22.773438 42.820312 L 18.582031 42.820312 C 18.53125 42.820312 18.484375 42.816406 18.4375 42.8125 C 18.433594 42.8125 18.433594 42.8125 18.433594 42.8125 C 17.699219 42.738281 17.125 42.117188 17.125 41.363281 Z M 14.429688 30.8125 C 11.941406 28.941406 10.515625 26.082031 10.515625 22.972656 C 10.515625 17.566406 14.917969 13.164062 20.324219 13.164062 C 25.734375 13.164062 30.132812 17.566406 30.132812 22.972656 C 30.132812 25.875 28.859375 28.609375 26.640625 30.480469 C 25.25 31.652344 24.4375 33.1875 24.265625 34.949219 L 21.386719 34.949219 L 21.386719 29.058594 C 24.5 28.707031 26.925781 26.058594 26.925781 22.851562 C 26.925781 19.40625 24.121094 16.601562 20.679688 16.601562 C 17.234375 16.601562 14.429688 19.40625 14.429688 22.851562 C 14.429688 26.058594 16.859375 28.707031 19.972656 29.058594 L 19.972656 34.949219 L 17.007812 34.949219 C 16.707031 33.300781 15.820312 31.859375 14.429688 30.8125 Z M 40.835938 15.980469 L 40.835938 20.269531 C 37.507812 20.390625 34.332031 21.378906 31.546875 23.160156 C 31.546875 23.097656 31.546875 23.035156 31.546875 22.976562 C 31.546875 21.460938 31.246094 20.015625 30.699219 18.695312 C 33.808594 17.023438 37.289062 16.09375 40.835938 15.980469 Z M 54.210938 25.230469 C 51.042969 22.292969 46.859375 20.441406 42.25 20.269531 L 42.25 15.984375 C 48.039062 16.160156 53.292969 18.492188 57.238281 22.203125 Z M 64.457031 38.191406 C 64.28125 32.402344 61.949219 27.148438 58.238281 23.203125 L 55.210938 26.230469 C 58.148438 29.398438 60 33.582031 60.171875 38.191406 Z M 25.644531 41.363281 C 25.644531 42.113281 25.355469 42.796875 24.882812 43.308594 C 26.875 50.875 33.667969 56.125 41.542969 56.125 C 51.042969 56.125 58.773438 48.398438 58.773438 38.898438 C 58.773438 29.398438 51.042969 21.667969 41.542969 21.667969 C 37.84375 21.667969 34.332031 22.820312 31.363281 24.996094 C 30.898438 27.542969 29.566406 29.863281 27.550781 31.5625 C 26.289062 32.625 25.644531 34.003906 25.644531 35.65625 Z M 21.386719 26.003906 L 21.386719 27.632812 C 23.714844 27.289062 25.511719 25.277344 25.511719 22.851562 C 25.511719 20.183594 23.34375 18.015625 20.679688 18.015625 C 18.011719 18.015625 15.84375 20.183594 15.84375 22.851562 C 15.84375 25.277344 17.640625 27.289062 19.972656 27.632812 L 19.972656 26.003906 C 18.527344 25.683594 17.449219 24.390625 17.449219 22.851562 C 17.449219 21.070312 18.898438 19.617188 20.679688 19.617188 C 22.460938 19.617188 23.914062 21.070312 23.914062 22.851562 C 23.910156 24.390625 22.828125 25.679688 21.386719 26.003906 Z M 20.679688 24.667969 C 21.679688 24.667969 22.496094 23.851562 22.496094 22.851562 C 22.496094 21.847656 21.679688 21.03125 20.679688 21.03125 C 19.675781 21.03125 18.859375 21.847656 18.859375 22.851562 C 18.859375 23.855469 19.675781 24.667969 20.679688 24.667969 Z M 17.125 38.292969 L 17.125 36.363281 L 24.234375 36.363281 L 24.234375 38.886719 L 17.125 38.886719 Z M 55.210938 51.5625 C 58.148438 48.398438 60 44.210938 60.171875 39.605469 L 64.457031 39.605469 C 64.28125 45.394531 61.949219 50.648438 58.238281 54.59375 Z M 58.835938 56.007812 C 63.191406 51.609375 65.882812 45.5625 65.882812 38.898438 C 65.882812 32.234375 63.191406 26.1875 58.835938 21.785156 C 58.8125 21.75 58.785156 21.71875 58.753906 21.683594 C 58.722656 21.65625 58.691406 21.628906 58.65625 21.605469 C 54.253906 17.25 48.207031 14.554688 41.542969 14.554688 C 37.535156 14.554688 33.585938 15.546875 30.078125 17.421875 C 28.140625 14.035156 24.496094 11.75 20.324219 11.75 C 14.136719 11.75 9.101562 16.785156 9.101562 22.972656 C 9.101562 26.527344 10.734375 29.796875 13.578125 31.941406 C 14.972656 32.992188 15.710938 34.46875 15.710938 36.21875 L 15.710938 41.359375 C 15.710938 42.660156 16.578125 43.761719 17.765625 44.113281 C 20.191406 55.222656 30.117188 63.238281 41.542969 63.238281 C 48.207031 63.238281 54.253906 60.542969 58.65625 56.1875 C 58.691406 56.164062 58.722656 56.136719 58.753906 56.109375 C 58.785156 56.078125 58.8125 56.042969 58.835938 56.007812 Z M 58.835938 56.007812 " fill-opacity="1" fill-rule="evenodd"/></g></svg>