<svg xmlns="http://www.w3.org/2000/svg" xmlns:xlink="http://www.w3.org/1999/xlink" width="100" zoomAndPan="magnify" viewBox="0 0 75 74.999997" height="100" preserveAspectRatio="xMidYMid meet" version="1.0"><defs><clipPath id="ed5b569a4f"><path d="M 12.867188 12.617188 L 62.367188 12.617188 L 62.367188 62.117188 L 12.867188 62.117188 Z M 12.867188 12.617188 " clip-rule="nonzero"/></clipPath></defs><g clip-path="url(#ed5b569a4f)"><path fill="#2c74dd" d="M 30.285156 27.542969 L 28.859375 27.542969 L 28.859375 20.253906 C 28.859375 20 28.996094 19.761719 29.21875 19.636719 L 32.660156 17.648438 L 32.898438 17.511719 C 32.875 17.386719 32.863281 17.257812 32.863281 17.125 C 32.863281 15.953125 33.816406 15 34.988281 15 C 36.164062 15 37.117188 15.953125 37.117188 17.125 C 37.117188 18.300781 36.164062 19.253906 34.988281 19.253906 C 34.464844 19.253906 33.984375 19.0625 33.613281 18.742188 L 33.371094 18.882812 L 30.289062 20.664062 L 30.289062 27.542969 Z M 62.128906 56.023438 L 62.128906 62.371094 L 39.625 62.371094 L 39.625 54.332031 L 60.4375 54.332031 C 61.371094 54.332031 62.128906 55.089844 62.128906 56.023438 Z M 46.980469 58.351562 C 46.980469 57.433594 46.234375 56.6875 45.316406 56.6875 C 44.398438 56.6875 43.652344 57.433594 43.652344 58.351562 C 43.652344 59.269531 44.398438 60.015625 45.316406 60.015625 C 46.234375 60.015625 46.980469 59.269531 46.980469 58.351562 Z M 52.542969 58.351562 C 52.542969 57.433594 51.792969 56.6875 50.875 56.6875 C 49.960938 56.6875 49.210938 57.433594 49.210938 58.351562 C 49.210938 59.269531 49.960938 60.015625 50.875 60.015625 C 51.792969 60.015625 52.542969 59.269531 52.542969 58.351562 Z M 58.101562 58.351562 C 58.101562 57.433594 57.355469 56.6875 56.4375 56.6875 C 55.519531 56.6875 54.773438 57.433594 54.773438 58.351562 C 54.773438 59.269531 55.519531 60.015625 56.4375 60.015625 C 57.355469 60.015625 58.101562 59.269531 58.101562 58.351562 Z M 49.71875 27.691406 L 49.238281 32.433594 L 54.304688 32.433594 L 53.824219 27.691406 Z M 47.164062 52.90625 L 56.378906 52.90625 L 54.449219 33.859375 L 49.09375 33.859375 Z M 45.953125 50.734375 L 39.625 50.734375 L 39.625 52.90625 L 45.734375 52.90625 Z M 46.386719 46.453125 L 39.625 46.453125 L 39.625 49.308594 L 46.097656 49.308594 Z M 20.894531 62.371094 L 30.171875 62.371094 L 30.171875 53.609375 L 20.894531 53.609375 Z M 33.53125 30.738281 L 33.53125 42.351562 C 33.53125 43.328125 32.738281 44.125 31.761719 44.125 L 19.308594 44.125 C 18.332031 44.125 17.539062 43.328125 17.539062 42.351562 L 17.539062 30.738281 C 17.539062 29.765625 18.332031 28.96875 19.308594 28.96875 L 31.761719 28.96875 C 32.738281 28.96875 33.53125 29.765625 33.53125 30.738281 Z M 28.367188 39.339844 C 27.613281 38.582031 26.605469 38.167969 25.535156 38.167969 C 24.464844 38.167969 23.457031 38.582031 22.703125 39.339844 C 22.425781 39.617188 22.425781 40.066406 22.703125 40.347656 C 22.980469 40.625 23.433594 40.625 23.710938 40.347656 C 24.199219 39.859375 24.84375 39.589844 25.535156 39.589844 C 26.226562 39.589844 26.871094 39.859375 27.355469 40.34375 C 27.496094 40.484375 27.675781 40.554688 27.859375 40.554688 C 28.042969 40.554688 28.222656 40.484375 28.363281 40.347656 C 28.640625 40.070312 28.644531 39.617188 28.367188 39.339844 Z M 30.355469 37.347656 C 29.066406 36.058594 27.355469 35.351562 25.535156 35.351562 C 23.714844 35.351562 22.003906 36.058594 20.714844 37.347656 C 20.4375 37.625 20.4375 38.078125 20.714844 38.355469 C 20.992188 38.632812 21.445312 38.632812 21.722656 38.355469 C 22.742188 37.335938 24.097656 36.773438 25.535156 36.773438 C 26.972656 36.773438 28.328125 37.335938 29.347656 38.355469 C 29.484375 38.496094 29.667969 38.566406 29.851562 38.566406 C 30.035156 38.566406 30.214844 38.496094 30.355469 38.355469 C 30.632812 38.078125 30.632812 37.625 30.355469 37.347656 Z M 32.34375 35.359375 C 30.527344 33.539062 28.109375 32.539062 25.535156 32.539062 C 22.964844 32.539062 20.542969 33.539062 18.722656 35.359375 C 18.445312 35.636719 18.445312 36.089844 18.722656 36.367188 C 19.003906 36.644531 19.453125 36.644531 19.730469 36.367188 C 21.28125 34.816406 23.34375 33.964844 25.535156 33.964844 C 27.726562 33.964844 29.785156 34.816406 31.335938 36.367188 C 31.472656 36.507812 31.65625 36.578125 31.839844 36.578125 C 32.019531 36.578125 32.203125 36.507812 32.34375 36.367188 C 32.621094 36.089844 32.621094 35.640625 32.34375 35.359375 Z M 34.957031 42.351562 C 34.957031 44.117188 33.523438 45.550781 31.761719 45.550781 L 19.308594 45.550781 C 17.546875 45.550781 16.113281 44.117188 16.113281 42.351562 L 16.113281 34.214844 L 12.867188 32.957031 L 12.867188 62.371094 L 19.46875 62.371094 L 19.46875 52.898438 C 19.46875 52.503906 19.789062 52.183594 20.183594 52.183594 L 30.882812 52.183594 C 31.277344 52.183594 31.597656 52.503906 31.597656 52.898438 L 31.597656 62.371094 L 38.199219 62.371094 L 38.199219 42.800781 L 34.957031 41.542969 Z M 16.082031 19.253906 C 16.605469 19.253906 17.085938 19.058594 17.457031 18.742188 L 17.695312 18.882812 L 20.78125 20.664062 L 20.78125 27.542969 L 22.207031 27.542969 L 22.207031 20.253906 C 22.207031 20 22.074219 19.761719 21.851562 19.636719 L 18.410156 17.648438 L 18.171875 17.511719 C 18.195312 17.386719 18.207031 17.257812 18.207031 17.125 C 18.207031 15.953125 17.253906 15 16.082031 15 C 14.90625 15 13.953125 15.953125 13.953125 17.125 C 13.953125 18.296875 14.90625 19.253906 16.082031 19.253906 Z M 24.824219 19.347656 L 24.824219 27.542969 L 26.246094 27.542969 L 26.246094 19.347656 C 27.070312 19.054688 27.660156 18.265625 27.660156 17.34375 C 27.660156 16.171875 26.707031 15.21875 25.535156 15.21875 C 24.359375 15.21875 23.40625 16.171875 23.40625 17.34375 C 23.40625 18.269531 24 19.054688 24.824219 19.347656 Z M 44.433594 19.03125 L 51.472656 19.03125 C 52.203125 19.03125 52.796875 19.625 52.796875 20.355469 L 52.796875 24.78125 C 52.796875 25.171875 53.117188 25.492188 53.511719 25.492188 C 53.90625 25.492188 54.222656 25.171875 54.222656 24.78125 L 54.222656 20.355469 C 54.222656 18.839844 52.992188 17.605469 51.472656 17.605469 L 44.433594 17.605469 C 43.707031 17.605469 43.113281 17.011719 43.113281 16.28125 L 43.113281 13.332031 C 43.113281 12.9375 42.792969 12.617188 42.402344 12.617188 C 42.007812 12.617188 41.6875 12.9375 41.6875 13.332031 L 41.6875 16.28125 C 41.6875 17.800781 42.921875 19.03125 44.433594 19.03125 Z M 50.621094 25.492188 C 51.015625 25.492188 51.332031 25.171875 51.332031 24.78125 L 51.332031 22.824219 C 51.332031 21.6875 50.410156 20.761719 49.273438 20.761719 L 44.609375 20.761719 C 44.21875 20.761719 43.898438 21.082031 43.898438 21.476562 C 43.898438 21.871094 44.21875 22.1875 44.609375 22.1875 L 49.273438 22.1875 C 49.621094 22.1875 49.90625 22.472656 49.90625 22.824219 L 49.90625 24.78125 C 49.90625 25.171875 50.226562 25.492188 50.621094 25.492188 Z M 50.621094 25.492188 " fill-opacity="1" fill-rule="nonzero"/></g></svg>