<svg xmlns="http://www.w3.org/2000/svg" xmlns:xlink="http://www.w3.org/1999/xlink" width="100" zoomAndPan="magnify" viewBox="0 0 75 74.999997" height="100" preserveAspectRatio="xMidYMid meet" version="1.0"><defs><clipPath id="336309d061"><path d="M 13 12 L 64.746094 12 L 64.746094 63.890625 L 13 63.890625 Z M 13 12 " clip-rule="nonzero"/></clipPath></defs><g clip-path="url(#336309d061)"><path fill="#2c74dd" d="M 51.511719 33.03125 C 62.320312 26.394531 53.160156 10.425781 41.976562 16.390625 C 31.179688 23.027344 40.328125 38.992188 51.511719 33.03125 Z M 49.015625 16.257812 C 60.085938 19.585938 55.753906 35.816406 44.492188 33.160156 C 33.421875 29.902344 37.792969 13.542969 49.015625 16.257812 Z M 34.367188 32.238281 L 35.339844 32.238281 C 35.882812 32.226562 35.882812 33.089844 35.339844 33.082031 L 34.207031 33.082031 C 34.105469 33.082031 34.003906 33.042969 33.921875 32.972656 L 29.660156 29.058594 L 25.4375 31.601562 C 25.367188 31.644531 25.296875 31.671875 25.207031 31.671875 L 21.886719 31.671875 C 21.34375 31.683594 21.34375 30.828125 21.886719 30.828125 L 25.09375 30.828125 L 29.488281 28.175781 C 29.660156 28.074219 29.871094 28.105469 30.003906 28.246094 Z M 43.023438 24.496094 C 42.632812 24.113281 43.234375 23.507812 43.617188 23.902344 L 45.949219 26.234375 L 49.882812 22.300781 C 50.042969 22.140625 50.3125 22.140625 50.472656 22.300781 C 50.636719 22.464844 50.636719 22.734375 50.472656 22.894531 L 46.25 27.117188 C 46.089844 27.28125 45.820312 27.28125 45.65625 27.117188 Z M 41.976562 43.347656 L 43.636719 43.347656 C 44.179688 43.335938 44.179688 44.191406 43.636719 44.191406 L 41.976562 44.191406 C 41.433594 44.203125 41.433594 43.335938 41.976562 43.347656 Z M 64.089844 46.878906 C 62.742188 44.351562 61.183594 41.859375 59.726562 39.355469 L 59.726562 25.992188 C 59.726562 25.066406 59.445312 24.152344 58.949219 23.386719 C 57.914062 15.757812 49.800781 9.140625 40.628906 14.046875 C 37.492188 15.976562 35.683594 18.523438 34.898438 21.207031 L 17.804688 21.207031 C 15.171875 21.207031 13.007812 23.367188 13.007812 26.003906 L 13.007812 50.546875 C 13.007812 51.863281 13.550781 53.0625 14.417969 53.9375 C 15.28125 54.800781 16.488281 55.34375 17.804688 55.34375 L 30.867188 55.34375 L 30.867188 59.304688 L 28.113281 59.304688 C 26.894531 59.304688 25.890625 60.300781 25.890625 61.527344 C 25.941406 62.019531 25.71875 63.097656 26.191406 63.449219 C 26.371094 63.628906 26.632812 63.75 26.914062 63.75 L 45.839844 63.75 C 47.054688 63.730469 46.855469 62.363281 46.855469 61.527344 C 46.855469 60.3125 45.859375 59.304688 44.640625 59.304688 L 41.886719 59.304688 L 41.886719 55.332031 L 54.9375 55.332031 C 57.171875 55.332031 59.089844 53.765625 59.59375 51.625 C 59.703125 51.582031 59.824219 51.574219 59.9375 51.511719 C 61.03125 50.738281 64.148438 49.542969 64.28125 48.335938 C 64.390625 47.863281 64.339844 47.339844 64.089844 46.878906 Z M 58.871094 37.859375 C 58.769531 37.675781 58.660156 37.503906 58.570312 37.324219 C 58.195312 36.671875 57.503906 36.339844 56.800781 36.371094 L 56.800781 31.863281 C 57.90625 30.375 58.570312 28.757812 58.871094 27.109375 C 58.921875 30.074219 58.878906 35.261719 58.871094 37.859375 Z M 49.71875 13.636719 C 60.117188 16.761719 60.148438 28.546875 53.902344 33.714844 C 53.863281 33.734375 53.84375 33.765625 53.8125 33.796875 C 53.027344 34.429688 52.152344 34.953125 51.1875 35.34375 C 51.117188 35.34375 51.046875 35.332031 50.988281 35.375 C 50.957031 35.394531 50.957031 35.425781 50.925781 35.453125 C 48.894531 36.230469 46.492188 36.429688 43.777344 35.785156 C 29.257812 31.421875 34.960938 10.15625 49.71875 13.636719 Z M 54.597656 34.136719 C 55.089844 33.726562 55.550781 33.300781 55.953125 32.859375 L 55.953125 36.488281 Z M 55.261719 36.960938 L 53.109375 38.210938 L 51.78125 35.917969 C 52.152344 35.757812 52.527344 35.585938 52.90625 35.375 C 53.269531 35.152344 53.613281 34.910156 53.933594 34.671875 Z M 50.988281 36.21875 L 52.382812 38.640625 C 51.539062 39.203125 51.238281 40.320312 51.742188 41.226562 L 55.792969 48.246094 C 55.570312 48.648438 55.160156 48.917969 54.6875 48.917969 L 18.035156 48.917969 C 17.34375 48.917969 16.769531 48.355469 16.769531 47.652344 L 16.769531 26.09375 C 16.769531 25.398438 17.34375 24.828125 18.035156 24.828125 L 34.445312 24.828125 C 34.71875 32.417969 42.136719 39.527344 50.988281 36.21875 Z M 44.621094 60.128906 C 46.101562 60.191406 46.039062 61.597656 46 62.703125 C 46 62.804688 45.917969 62.886719 45.820312 62.886719 L 26.90625 62.886719 C 26.804688 62.886719 26.722656 62.804688 26.722656 62.703125 C 26.671875 61.597656 26.632812 60.179688 28.101562 60.128906 C 28.101562 60.128906 29.417969 60.128906 31.277344 60.128906 C 34.214844 60.128906 38.519531 60.128906 41.453125 60.128906 C 43.316406 60.128906 44.621094 60.128906 44.621094 60.128906 Z M 31.703125 59.296875 L 31.703125 55.332031 L 41.03125 55.332031 L 41.03125 59.296875 Z M 54.929688 54.488281 L 17.804688 54.488281 C 15.632812 54.488281 13.855469 52.710938 13.855469 50.539062 L 13.855469 25.992188 C 13.855469 23.820312 15.632812 22.039062 17.804688 22.039062 L 34.675781 22.039062 C 34.546875 22.683594 34.476562 23.339844 34.457031 23.992188 L 18.035156 23.992188 C 16.878906 23.992188 15.925781 24.9375 15.925781 26.101562 L 15.925781 47.652344 C 15.925781 48.808594 16.871094 49.761719 18.035156 49.761719 L 54.6875 49.761719 C 55.109375 49.84375 55.804688 49.492188 56.257812 49.050781 L 57.261719 50.777344 C 57.574219 51.320312 58.117188 51.632812 58.6875 51.714844 C 58.175781 53.332031 56.679688 54.488281 54.929688 54.488281 Z M 62.933594 48.808594 L 59.515625 50.789062 C 58.980469 51.082031 58.296875 50.890625 57.984375 50.367188 L 52.476562 40.824219 C 52.183594 40.289062 52.375 39.605469 52.898438 39.296875 L 56.265625 37.34375 C 56.789062 37.023438 57.503906 37.183594 57.824219 37.71875 C 59.605469 40.84375 61.453125 44.253906 63.355469 47.289062 C 63.644531 47.820312 63.457031 48.507812 62.933594 48.808594 Z M 45.375 43.347656 L 49.769531 43.347656 C 50.3125 43.335938 50.3125 44.191406 49.769531 44.191406 L 45.375 44.191406 C 44.832031 44.203125 44.832031 43.335938 45.375 43.347656 Z M 41.976562 39.980469 L 43.636719 39.980469 C 44.179688 39.96875 44.179688 40.824219 43.636719 40.824219 L 41.976562 40.824219 C 41.433594 40.824219 41.433594 39.96875 41.976562 39.980469 Z M 32.605469 37.265625 L 32.605469 34.46875 C 32.605469 34.097656 32.457031 33.765625 32.214844 33.523438 C 31.75 32.828125 28.925781 33.222656 28.152344 33.132812 C 27.40625 33.132812 26.804688 33.734375 26.804688 34.480469 L 26.804688 35.867188 C 25.375 35.886719 22.621094 35.617188 22.238281 36.25 C 22 36.488281 21.847656 36.832031 21.847656 37.195312 L 21.847656 42.765625 L 21.125 42.765625 C 20.621094 42.765625 20.21875 43.175781 20.21875 43.667969 C 20.207031 44.394531 20.066406 45.640625 21.125 45.640625 L 38.277344 45.640625 C 39.34375 45.640625 39.191406 44.402344 39.183594 43.667969 C 39.183594 43.167969 38.769531 42.765625 38.277344 42.765625 L 37.542969 42.765625 C 37.511719 41.105469 37.816406 38.019531 37.160156 37.65625 C 36.777344 37.011719 34.042969 37.285156 32.605469 37.265625 Z M 27.648438 36.257812 L 27.648438 34.46875 C 27.648438 34.199219 27.871094 33.964844 28.152344 33.964844 C 28.375 34.027344 31.550781 33.816406 31.621094 34.117188 C 31.710938 34.207031 31.773438 34.339844 31.773438 34.46875 L 31.773438 42.765625 L 27.660156 42.765625 L 27.660156 36.257812 Z M 22.691406 37.183594 C 22.691406 37.042969 22.753906 36.921875 22.84375 36.832031 C 22.851562 36.53125 26.601562 36.742188 26.816406 36.679688 L 26.816406 42.753906 L 22.691406 42.753906 Z M 38.277344 43.597656 C 38.316406 43.597656 38.347656 43.628906 38.347656 43.667969 C 38.308594 43.710938 38.4375 44.855469 38.277344 44.796875 L 21.125 44.796875 C 21.082031 44.796875 21.0625 44.765625 21.0625 44.726562 L 21.0625 43.667969 C 21.074219 43.640625 21.09375 43.597656 21.125 43.597656 Z M 36.71875 38.601562 L 36.71875 42.765625 L 32.605469 42.765625 L 32.605469 38.097656 C 32.796875 38.148438 36.566406 37.957031 36.578125 38.25 C 36.660156 38.332031 36.71875 38.460938 36.71875 38.601562 Z M 45.375 39.980469 L 49.246094 39.980469 C 49.789062 39.96875 49.789062 40.824219 49.246094 40.824219 L 45.375 40.824219 C 44.832031 40.824219 44.832031 39.96875 45.375 39.980469 Z M 45.375 39.980469 " fill-opacity="1" fill-rule="nonzero"/></g></svg>