<svg xmlns="http://www.w3.org/2000/svg" xmlns:xlink="http://www.w3.org/1999/xlink" width="100" zoomAndPan="magnify" viewBox="0 0 75 74.999997" height="100" preserveAspectRatio="xMidYMid meet" version="1.0"><defs><clipPath id="5204b90399"><path d="M 10.199219 10.199219 L 64.949219 10.199219 L 64.949219 64.949219 L 10.199219 64.949219 Z M 10.199219 10.199219 " clip-rule="nonzero"/></clipPath></defs><path fill="#2c74dd" d="M 58.375 27.328125 L 16.625 27.328125 C 16.03125 27.328125 15.550781 27.808594 15.550781 28.398438 L 15.550781 36.964844 C 15.550781 37.554688 16.03125 38.035156 16.625 38.035156 L 36.429688 38.035156 L 36.429688 40.175781 L 21.441406 40.175781 C 20.847656 40.175781 20.371094 40.65625 20.371094 41.246094 L 20.371094 46.597656 L 16.625 46.597656 C 16.03125 46.597656 15.550781 47.078125 15.550781 47.667969 L 15.550781 59.445312 C 15.550781 60.035156 16.03125 60.515625 16.625 60.515625 L 26.257812 60.515625 C 26.847656 60.515625 27.328125 60.035156 27.328125 59.445312 L 27.328125 47.667969 C 27.328125 47.078125 26.847656 46.597656 26.257812 46.597656 L 22.511719 46.597656 L 22.511719 42.316406 L 36.429688 42.316406 L 36.429688 46.597656 L 32.679688 46.597656 C 32.089844 46.597656 31.609375 47.078125 31.609375 47.667969 L 31.609375 59.445312 C 31.609375 60.035156 32.089844 60.515625 32.679688 60.515625 L 42.316406 60.515625 C 42.90625 60.515625 43.386719 60.035156 43.386719 59.445312 L 43.386719 47.667969 C 43.386719 47.078125 42.90625 46.597656 42.316406 46.597656 L 38.570312 46.597656 L 38.570312 42.316406 L 52.488281 42.316406 L 52.488281 46.597656 L 48.738281 46.597656 C 48.148438 46.597656 47.667969 47.078125 47.667969 47.667969 L 47.667969 59.445312 C 47.667969 60.035156 48.148438 60.515625 48.738281 60.515625 L 58.375 60.515625 C 58.964844 60.515625 59.445312 60.035156 59.445312 59.445312 L 59.445312 47.667969 C 59.445312 47.078125 58.964844 46.597656 58.375 46.597656 L 54.628906 46.597656 L 54.628906 41.246094 C 54.628906 40.65625 54.148438 40.175781 53.558594 40.175781 L 38.570312 40.175781 L 38.570312 38.035156 L 58.375 38.035156 C 58.964844 38.035156 59.445312 37.554688 59.445312 36.964844 L 59.445312 28.398438 C 59.445312 27.808594 58.964844 27.328125 58.375 27.328125 Z M 25.1875 58.375 L 17.695312 58.375 L 17.695312 48.738281 L 25.1875 48.738281 Z M 41.246094 58.375 L 33.75 58.375 L 33.75 48.738281 L 41.246094 48.738281 Z M 57.304688 58.375 L 49.808594 58.375 L 49.808594 48.738281 L 57.304688 48.738281 Z M 57.304688 35.894531 L 17.695312 35.894531 L 17.695312 29.46875 L 57.304688 29.46875 Z M 57.304688 35.894531 " fill-opacity="1" fill-rule="nonzero"/><path fill="#2c74dd" d="M 27.328125 33.75 L 47.667969 33.75 C 48.261719 33.75 48.738281 33.273438 48.738281 32.679688 C 48.738281 32.089844 48.261719 31.609375 47.667969 31.609375 L 27.328125 31.609375 C 26.738281 31.609375 26.257812 32.089844 26.257812 32.679688 C 26.257812 33.273438 26.738281 33.75 27.328125 33.75 Z M 27.328125 33.75 " fill-opacity="1" fill-rule="nonzero"/><path fill="#2c74dd" d="M 17.695312 20.90625 C 19.464844 20.90625 20.90625 19.464844 20.90625 17.695312 C 20.90625 15.921875 19.464844 14.480469 17.695312 14.480469 C 15.921875 14.480469 14.480469 15.921875 14.480469 17.695312 C 14.480469 19.464844 15.921875 20.90625 17.695312 20.90625 Z M 17.695312 16.625 C 18.285156 16.625 18.765625 17.101562 18.765625 17.695312 C 18.765625 18.285156 18.285156 18.765625 17.695312 18.765625 C 17.101562 18.765625 16.625 18.285156 16.625 17.695312 C 16.625 17.101562 17.101562 16.625 17.695312 16.625 Z M 17.695312 16.625 " fill-opacity="1" fill-rule="nonzero"/><path fill="#2c74dd" d="M 26.257812 20.90625 C 28.027344 20.90625 29.46875 19.464844 29.46875 17.695312 C 29.46875 15.921875 28.027344 14.480469 26.257812 14.480469 C 24.488281 14.480469 23.046875 15.921875 23.046875 17.695312 C 23.046875 19.464844 24.488281 20.90625 26.257812 20.90625 Z M 26.257812 16.625 C 26.847656 16.625 27.328125 17.101562 27.328125 17.695312 C 27.328125 18.285156 26.847656 18.765625 26.257812 18.765625 C 25.667969 18.765625 25.1875 18.285156 25.1875 17.695312 C 25.1875 17.101562 25.667969 16.625 26.257812 16.625 Z M 26.257812 16.625 " fill-opacity="1" fill-rule="nonzero"/><path fill="#2c74dd" d="M 34.824219 20.90625 C 36.59375 20.90625 38.035156 19.464844 38.035156 17.695312 C 38.035156 15.921875 36.59375 14.480469 34.824219 14.480469 C 33.050781 14.480469 31.609375 15.921875 31.609375 17.695312 C 31.609375 19.464844 33.050781 20.90625 34.824219 20.90625 Z M 34.824219 16.625 C 35.414062 16.625 35.894531 17.101562 35.894531 17.695312 C 35.894531 18.285156 35.414062 18.765625 34.824219 18.765625 C 34.230469 18.765625 33.75 18.285156 33.75 17.695312 C 33.75 17.101562 34.230469 16.625 34.824219 16.625 Z M 34.824219 16.625 " fill-opacity="1" fill-rule="nonzero"/><path fill="#2c74dd" d="M 43.386719 18.765625 L 59.445312 18.765625 C 60.035156 18.765625 60.515625 18.285156 60.515625 17.695312 C 60.515625 17.101562 60.035156 16.625 59.445312 16.625 L 43.386719 16.625 C 42.796875 16.625 42.316406 17.101562 42.316406 17.695312 C 42.316406 18.285156 42.796875 18.765625 43.386719 18.765625 Z M 43.386719 18.765625 " fill-opacity="1" fill-rule="nonzero"/><g clip-path="url(#5204b90399)"><path fill="#2c74dd" d="M 60.515625 10.199219 L 14.480469 10.199219 C 12.121094 10.199219 10.199219 12.121094 10.199219 14.480469 L 10.199219 60.515625 C 10.199219 62.875 12.121094 64.796875 14.480469 64.796875 L 60.515625 64.796875 C 62.875 64.796875 64.796875 62.875 64.796875 60.515625 L 64.796875 14.480469 C 64.796875 12.121094 62.875 10.199219 60.515625 10.199219 Z M 14.480469 12.339844 L 60.515625 12.339844 C 61.695312 12.339844 62.65625 13.300781 62.65625 14.480469 L 62.65625 23.046875 L 12.339844 23.046875 L 12.339844 14.480469 C 12.339844 13.300781 13.300781 12.339844 14.480469 12.339844 Z M 60.515625 62.65625 L 14.480469 62.65625 C 13.300781 62.65625 12.339844 61.695312 12.339844 60.515625 L 12.339844 25.1875 L 62.65625 25.1875 L 62.65625 60.515625 C 62.65625 61.695312 61.695312 62.65625 60.515625 62.65625 Z M 60.515625 62.65625 " fill-opacity="1" fill-rule="nonzero"/></g></svg>