<svg xmlns="http://www.w3.org/2000/svg" xmlns:xlink="http://www.w3.org/1999/xlink" width="100" zoomAndPan="magnify" viewBox="0 0 75 74.999997" height="100" preserveAspectRatio="xMidYMid meet" version="1.0"><defs><clipPath id="4551bb6c94"><path d="M 44.390625 30.890625 L 68.285156 30.890625 L 68.285156 44.105469 L 44.390625 44.105469 Z M 44.390625 30.890625 " clip-rule="nonzero"/></clipPath><clipPath id="31b12e7d41"><path d="M 42.785156 43.476562 L 66.972656 43.476562 L 66.972656 56.390625 L 42.785156 56.390625 Z M 42.785156 43.476562 " clip-rule="nonzero"/></clipPath><clipPath id="880ca095a0"><path d="M 13.484375 18.339844 L 52.484375 18.339844 L 52.484375 53.589844 L 13.484375 53.589844 Z M 13.484375 18.339844 " clip-rule="nonzero"/></clipPath></defs><g clip-path="url(#4551bb6c94)"><path fill="#62cdec" d="M 68.285156 44.042969 L 66.734375 44.042969 C 66.660156 44.042969 66.59375 44.015625 66.542969 43.964844 C 66.492188 43.914062 66.464844 43.847656 66.464844 43.773438 C 66.464844 40.890625 65.34375 38.179688 63.300781 36.140625 C 59.15625 31.992188 52.449219 31.929688 48.226562 35.953125 L 49.078125 36.800781 C 49.144531 36.867188 49.171875 36.96875 49.148438 37.058594 C 49.121094 37.152344 49.050781 37.222656 48.957031 37.25 L 44.757812 38.386719 C 44.734375 38.390625 44.710938 38.394531 44.6875 38.394531 C 44.617188 38.394531 44.550781 38.367188 44.5 38.320312 C 44.433594 38.253906 44.40625 38.15625 44.425781 38.0625 L 45.445312 33.746094 C 45.46875 33.652344 45.539062 33.578125 45.632812 33.550781 C 45.726562 33.523438 45.828125 33.550781 45.898438 33.621094 L 46.75 34.472656 C 51.789062 29.636719 59.820312 29.699219 64.78125 34.660156 C 67.214844 37.09375 68.554688 40.332031 68.554688 43.773438 C 68.554688 43.921875 68.433594 44.042969 68.285156 44.042969 " fill-opacity="1" fill-rule="evenodd"/></g><g clip-path="url(#31b12e7d41)"><path fill="#62cdec" d="M 55.667969 56.652344 C 52.371094 56.652344 49.070312 55.398438 46.558594 52.882812 C 44.125 50.449219 42.785156 47.210938 42.785156 43.765625 C 42.785156 43.617188 42.902344 43.5 43.050781 43.5 L 44.605469 43.5 C 44.675781 43.5 44.746094 43.527344 44.796875 43.578125 C 44.847656 43.628906 44.875 43.695312 44.875 43.765625 C 44.875 46.652344 45.996094 49.367188 48.035156 51.40625 C 52.183594 55.550781 58.886719 55.613281 63.109375 51.59375 L 62.261719 50.746094 C 62.195312 50.675781 62.167969 50.578125 62.191406 50.484375 C 62.21875 50.394531 62.289062 50.320312 62.382812 50.296875 L 66.582031 49.160156 C 66.671875 49.136719 66.769531 49.160156 66.835938 49.226562 C 66.90625 49.292969 66.933594 49.386719 66.910156 49.480469 L 65.894531 53.796875 C 65.871094 53.890625 65.800781 53.964844 65.707031 53.992188 C 65.679688 54 65.65625 54.003906 65.632812 54.003906 C 65.5625 54.003906 65.492188 53.976562 65.441406 53.925781 L 64.589844 53.070312 C 62.101562 55.457031 58.886719 56.652344 55.667969 56.652344 " fill-opacity="1" fill-rule="evenodd"/></g><path fill="#62cdec" d="M 55.667969 43.230469 C 55.371094 43.230469 55.128906 43.472656 55.128906 43.773438 C 55.128906 44.070312 55.371094 44.3125 55.667969 44.3125 C 55.96875 44.3125 56.210938 44.070312 56.210938 43.773438 C 56.210938 43.472656 55.96875 43.230469 55.667969 43.230469 Z M 55.667969 44.847656 C 55.769531 44.847656 55.867188 44.835938 55.957031 44.808594 L 57.785156 47.976562 C 57.835938 48.0625 57.925781 48.109375 58.019531 48.109375 C 58.066406 48.109375 58.109375 48.097656 58.152344 48.074219 C 58.28125 48 58.324219 47.835938 58.25 47.707031 L 56.421875 44.542969 C 56.621094 44.34375 56.746094 44.074219 56.746094 43.773438 C 56.746094 43.269531 56.402344 42.847656 55.9375 42.730469 L 55.9375 37.652344 C 55.9375 37.503906 55.816406 37.382812 55.667969 37.382812 C 55.519531 37.382812 55.402344 37.503906 55.402344 37.652344 L 55.402344 42.730469 C 54.9375 42.847656 54.59375 43.269531 54.59375 43.773438 C 54.59375 44.367188 55.074219 44.847656 55.667969 44.847656 Z M 50.417969 38.792969 C 50.488281 38.792969 50.558594 38.765625 50.609375 38.710938 C 50.714844 38.609375 50.714844 38.4375 50.609375 38.332031 L 50.382812 38.105469 C 50.277344 38 50.105469 38 50 38.105469 C 49.898438 38.210938 49.898438 38.378906 50 38.484375 L 50.230469 38.710938 C 50.28125 38.765625 50.351562 38.792969 50.417969 38.792969 Z M 48.246094 44.039062 C 48.394531 44.039062 48.515625 43.921875 48.515625 43.773438 C 48.515625 43.625 48.394531 43.503906 48.246094 43.503906 L 47.921875 43.503906 C 47.773438 43.503906 47.652344 43.625 47.652344 43.773438 C 47.652344 43.921875 47.773438 44.039062 47.921875 44.039062 Z M 50.191406 49.519531 C 50.261719 49.519531 50.328125 49.492188 50.382812 49.441406 L 50.609375 49.210938 C 50.714844 49.105469 50.714844 48.9375 50.609375 48.832031 C 50.503906 48.726562 50.335938 48.726562 50.230469 48.832031 L 50 49.0625 C 49.898438 49.164062 49.898438 49.335938 50 49.441406 C 50.054688 49.492188 50.121094 49.519531 50.191406 49.519531 Z M 55.667969 51.789062 C 55.816406 51.789062 55.9375 51.667969 55.9375 51.519531 L 55.9375 51.195312 C 55.9375 51.046875 55.816406 50.929688 55.667969 50.929688 C 55.519531 50.929688 55.402344 51.046875 55.402344 51.195312 L 55.402344 51.519531 C 55.402344 51.667969 55.519531 51.789062 55.667969 51.789062 Z M 61.148438 49.519531 C 61.214844 49.519531 61.285156 49.492188 61.335938 49.441406 C 61.441406 49.335938 61.441406 49.164062 61.335938 49.0625 L 61.109375 48.832031 C 61.003906 48.726562 60.832031 48.726562 60.730469 48.832031 C 60.625 48.9375 60.625 49.105469 60.730469 49.210938 L 60.957031 49.441406 C 61.011719 49.492188 61.078125 49.519531 61.148438 49.519531 Z M 63.417969 44.039062 C 63.566406 44.039062 63.683594 43.921875 63.683594 43.773438 C 63.683594 43.625 63.566406 43.503906 63.417969 43.503906 L 63.09375 43.503906 C 62.945312 43.503906 62.824219 43.625 62.824219 43.773438 C 62.824219 43.921875 62.945312 44.039062 63.09375 44.039062 Z M 60.917969 38.792969 C 60.988281 38.792969 61.054688 38.765625 61.109375 38.710938 L 61.335938 38.484375 C 61.441406 38.378906 61.441406 38.210938 61.335938 38.105469 C 61.230469 38 61.0625 38 60.957031 38.105469 L 60.730469 38.332031 C 60.625 38.4375 60.625 38.609375 60.730469 38.710938 C 60.78125 38.765625 60.851562 38.792969 60.917969 38.792969 Z M 55.667969 36.617188 C 55.816406 36.617188 55.9375 36.496094 55.9375 36.347656 L 55.9375 36.023438 C 55.9375 35.878906 55.816406 35.757812 55.667969 35.757812 C 55.519531 35.757812 55.402344 35.878906 55.402344 36.023438 L 55.402344 36.347656 C 55.402344 36.496094 55.519531 36.617188 55.667969 36.617188 Z M 55.667969 52.796875 C 50.691406 52.796875 46.644531 48.75 46.644531 43.773438 C 46.644531 38.796875 50.691406 34.746094 55.667969 34.746094 C 60.644531 34.746094 64.695312 38.796875 64.695312 43.773438 C 64.695312 48.75 60.644531 52.796875 55.667969 52.796875 " fill-opacity="1" fill-rule="evenodd"/><g clip-path="url(#880ca095a0)"><path fill="#62cdec" d="M 48.796875 25.269531 L 46.609375 25.269531 L 46.609375 20.234375 C 46.609375 19.296875 45.847656 18.539062 44.914062 18.539062 L 21.046875 18.539062 C 20.109375 18.539062 19.347656 19.300781 19.347656 20.234375 L 19.347656 25.269531 L 17.160156 25.269531 C 15.136719 25.269531 13.492188 26.914062 13.492188 28.9375 L 13.492188 46.761719 C 13.492188 48.785156 15.136719 50.433594 17.160156 50.433594 L 24.53125 50.433594 L 22.886719 53.042969 C 22.816406 53.15625 22.8125 53.296875 22.875 53.410156 C 22.941406 53.523438 23.0625 53.597656 23.191406 53.597656 L 42.765625 53.597656 C 42.898438 53.597656 43.019531 53.523438 43.082031 53.410156 C 43.144531 53.296875 43.140625 53.15625 43.070312 53.042969 L 41.429688 50.433594 L 48.796875 50.433594 C 50.820312 50.433594 52.46875 48.785156 52.46875 46.761719 L 52.46875 28.9375 C 52.46875 26.917969 50.820312 25.269531 48.796875 25.269531 Z M 21.046875 36.683594 L 44.914062 36.683594 C 45.847656 36.683594 46.609375 35.921875 46.609375 34.988281 L 46.609375 28.867188 L 48.871094 28.867188 L 48.871094 46.835938 L 17.089844 46.835938 L 17.089844 28.867188 L 19.347656 28.867188 L 19.347656 34.988281 C 19.347656 35.925781 20.109375 36.683594 21.046875 36.683594 Z M 45.890625 25.628906 L 45.890625 34.988281 C 45.890625 35.527344 45.453125 35.964844 44.914062 35.964844 L 21.046875 35.964844 C 20.503906 35.964844 20.066406 35.527344 20.066406 34.988281 L 20.066406 23.074219 L 45.890625 23.074219 Z M 20.066406 20.234375 C 20.066406 19.695312 20.503906 19.257812 21.046875 19.257812 L 44.914062 19.257812 C 45.453125 19.257812 45.890625 19.695312 45.890625 20.234375 L 45.890625 22.355469 L 20.066406 22.355469 Z M 42.117188 52.875 L 23.84375 52.875 L 25.378906 50.433594 L 40.578125 50.433594 Z M 51.746094 46.761719 C 51.746094 48.390625 50.425781 49.714844 48.796875 49.714844 L 40.785156 49.714844 C 40.785156 49.714844 40.78125 49.710938 40.777344 49.710938 L 25.183594 49.710938 C 25.179688 49.710938 25.175781 49.714844 25.171875 49.714844 L 17.160156 49.714844 C 15.535156 49.714844 14.210938 48.390625 14.210938 46.761719 L 14.210938 28.9375 C 14.210938 27.3125 15.535156 25.988281 17.160156 25.988281 L 19.347656 25.988281 L 19.347656 28.148438 L 16.730469 28.148438 C 16.53125 28.148438 16.371094 28.308594 16.371094 28.507812 L 16.371094 47.195312 C 16.371094 47.394531 16.53125 47.554688 16.730469 47.554688 L 49.230469 47.554688 C 49.425781 47.554688 49.589844 47.394531 49.589844 47.195312 L 49.589844 28.507812 C 49.589844 28.308594 49.425781 28.148438 49.230469 28.148438 L 46.609375 28.148438 L 46.609375 25.988281 L 48.796875 25.988281 C 50.425781 25.988281 51.746094 27.3125 51.746094 28.9375 Z M 51.746094 46.761719 " fill-opacity="1" fill-rule="nonzero"/></g><path fill="#62cdec" d="M 21.488281 19.773438 C 20.886719 19.773438 20.394531 20.261719 20.394531 20.863281 C 20.394531 21.464844 20.886719 21.953125 21.488281 21.953125 C 22.089844 21.953125 22.578125 21.464844 22.578125 20.863281 C 22.578125 20.261719 22.089844 19.773438 21.488281 19.773438 Z M 21.488281 21.234375 C 21.28125 21.234375 21.117188 21.070312 21.117188 20.863281 C 21.117188 20.660156 21.28125 20.492188 21.488281 20.492188 C 21.695312 20.492188 21.859375 20.660156 21.859375 20.863281 C 21.859375 21.070312 21.691406 21.234375 21.488281 21.234375 Z M 21.488281 21.234375 " fill-opacity="1" fill-rule="nonzero"/><path fill="#62cdec" d="M 24.445312 19.773438 C 23.84375 19.773438 23.355469 20.261719 23.355469 20.863281 C 23.355469 21.464844 23.84375 21.953125 24.445312 21.953125 C 25.046875 21.953125 25.539062 21.464844 25.539062 20.863281 C 25.539062 20.261719 25.046875 19.773438 24.445312 19.773438 Z M 24.445312 21.234375 C 24.242188 21.234375 24.074219 21.070312 24.074219 20.863281 C 24.074219 20.660156 24.242188 20.492188 24.445312 20.492188 C 24.652344 20.492188 24.816406 20.660156 24.816406 20.863281 C 24.816406 21.070312 24.652344 21.234375 24.445312 21.234375 Z M 24.445312 21.234375 " fill-opacity="1" fill-rule="nonzero"/><path fill="#62cdec" d="M 27.40625 19.773438 C 26.804688 19.773438 26.316406 20.261719 26.316406 20.863281 C 26.316406 21.464844 26.804688 21.953125 27.40625 21.953125 C 28.007812 21.953125 28.496094 21.464844 28.496094 20.863281 C 28.496094 20.261719 28.007812 19.773438 27.40625 19.773438 Z M 27.40625 21.234375 C 27.203125 21.234375 27.035156 21.070312 27.035156 20.863281 C 27.035156 20.660156 27.199219 20.492188 27.40625 20.492188 C 27.609375 20.492188 27.777344 20.660156 27.777344 20.863281 C 27.777344 21.070312 27.609375 21.234375 27.40625 21.234375 Z M 27.40625 21.234375 " fill-opacity="1" fill-rule="nonzero"/><path fill="#62cdec" d="M 25.660156 29.050781 L 26.261719 29.050781 C 27.148438 29.050781 27.875 28.324219 27.875 27.4375 L 27.875 24.929688 C 27.875 24.734375 27.710938 24.570312 27.515625 24.570312 C 27.316406 24.570312 27.15625 24.734375 27.15625 24.929688 L 27.15625 27.4375 C 27.15625 27.929688 26.753906 28.332031 26.261719 28.332031 L 25.660156 28.332031 C 25.167969 28.332031 24.769531 27.929688 24.769531 27.4375 L 24.769531 24.929688 C 24.769531 24.734375 24.605469 24.570312 24.40625 24.570312 C 24.210938 24.570312 24.046875 24.734375 24.046875 24.929688 L 24.046875 27.4375 C 24.046875 28.324219 24.773438 29.050781 25.660156 29.050781 Z M 25.660156 29.050781 " fill-opacity="1" fill-rule="nonzero"/><path fill="#62cdec" d="M 35.300781 29.050781 L 35.902344 29.050781 C 36.792969 29.050781 37.515625 28.324219 37.515625 27.4375 L 37.515625 24.929688 C 37.515625 24.734375 37.355469 24.570312 37.15625 24.570312 C 36.957031 24.570312 36.796875 24.734375 36.796875 24.929688 L 36.796875 27.4375 C 36.796875 27.929688 36.394531 28.332031 35.902344 28.332031 L 35.300781 28.332031 C 34.808594 28.332031 34.410156 27.929688 34.410156 27.4375 L 34.410156 24.929688 C 34.410156 24.734375 34.25 24.570312 34.050781 24.570312 C 33.851562 24.570312 33.691406 24.734375 33.691406 24.929688 L 33.691406 27.4375 C 33.691406 28.324219 34.414062 29.050781 35.300781 29.050781 Z M 35.300781 29.050781 " fill-opacity="1" fill-rule="nonzero"/><path fill="#62cdec" d="M 29.011719 29.050781 C 29.210938 29.050781 29.371094 28.886719 29.371094 28.691406 L 29.371094 24.929688 C 29.371094 24.730469 29.210938 24.570312 29.011719 24.570312 C 28.8125 24.570312 28.652344 24.730469 28.652344 24.929688 L 28.652344 28.691406 C 28.652344 28.886719 28.8125 29.050781 29.011719 29.050781 Z M 29.011719 29.050781 " fill-opacity="1" fill-rule="nonzero"/><path fill="#62cdec" d="M 30.542969 29.859375 C 30.582031 29.875 30.625 29.878906 30.664062 29.878906 C 30.8125 29.878906 30.949219 29.789062 31.003906 29.640625 L 32.832031 24.546875 C 32.898438 24.359375 32.800781 24.15625 32.613281 24.085938 C 32.425781 24.023438 32.21875 24.117188 32.152344 24.304688 L 30.324219 29.398438 C 30.257812 29.585938 30.355469 29.792969 30.542969 29.859375 Z M 30.542969 29.859375 " fill-opacity="1" fill-rule="nonzero"/><path fill="#62cdec" d="M 38.664062 28.644531 C 38.734375 28.714844 38.824219 28.75 38.917969 28.75 C 39.011719 28.75 39.101562 28.714844 39.171875 28.644531 L 40.496094 27.320312 L 41.824219 28.644531 C 41.894531 28.714844 41.984375 28.75 42.078125 28.75 C 42.167969 28.75 42.261719 28.714844 42.332031 28.644531 C 42.472656 28.503906 42.472656 28.277344 42.332031 28.136719 L 41.007812 26.808594 L 42.332031 25.484375 C 42.472656 25.34375 42.472656 25.117188 42.332031 24.976562 C 42.191406 24.835938 41.964844 24.835938 41.824219 24.976562 L 40.5 26.300781 L 39.171875 24.976562 C 39.03125 24.835938 38.804688 24.835938 38.664062 24.976562 C 38.523438 25.117188 38.523438 25.34375 38.664062 25.484375 L 39.988281 26.808594 L 38.664062 28.136719 C 38.523438 28.277344 38.523438 28.503906 38.664062 28.644531 Z M 38.664062 28.644531 " fill-opacity="1" fill-rule="nonzero"/><path fill="#62cdec" d="M 38.015625 31.714844 L 42.820312 31.714844 C 43.019531 31.714844 43.179688 31.554688 43.179688 31.355469 C 43.179688 31.15625 43.019531 30.996094 42.820312 30.996094 L 38.015625 30.996094 C 37.816406 30.996094 37.65625 31.15625 37.65625 31.355469 C 37.65625 31.554688 37.816406 31.714844 38.015625 31.714844 Z M 38.015625 31.714844 " fill-opacity="1" fill-rule="nonzero"/><path fill="#62cdec" d="M 23.136719 31.714844 L 34.695312 31.714844 C 34.894531 31.714844 35.054688 31.554688 35.054688 31.355469 C 35.054688 31.15625 34.894531 30.996094 34.695312 30.996094 L 23.136719 30.996094 C 22.9375 30.996094 22.777344 31.15625 22.777344 31.355469 C 22.777344 31.554688 22.9375 31.714844 23.136719 31.714844 Z M 23.136719 31.714844 " fill-opacity="1" fill-rule="nonzero"/><path fill="#62cdec" d="M 42.820312 32.597656 L 27.933594 32.597656 C 27.734375 32.597656 27.574219 32.757812 27.574219 32.957031 C 27.574219 33.15625 27.734375 33.316406 27.933594 33.316406 L 42.820312 33.316406 C 43.019531 33.316406 43.179688 33.15625 43.179688 32.957031 C 43.179688 32.757812 43.019531 32.597656 42.820312 32.597656 Z M 42.820312 32.597656 " fill-opacity="1" fill-rule="nonzero"/><path fill="#62cdec" d="M 23.136719 33.316406 L 24.867188 33.316406 C 25.066406 33.316406 25.226562 33.15625 25.226562 32.957031 C 25.226562 32.757812 25.066406 32.597656 24.867188 32.597656 L 23.136719 32.597656 C 22.9375 32.597656 22.777344 32.757812 22.777344 32.957031 C 22.777344 33.15625 22.9375 33.316406 23.136719 33.316406 Z M 23.136719 33.316406 " fill-opacity="1" fill-rule="nonzero"/><path fill="#62cdec" d="M 23.136719 34.917969 L 42.820312 34.917969 C 43.019531 34.917969 43.179688 34.757812 43.179688 34.558594 C 43.179688 34.359375 43.019531 34.199219 42.820312 34.199219 L 23.136719 34.199219 C 22.9375 34.199219 22.777344 34.359375 22.777344 34.558594 C 22.777344 34.757812 22.9375 34.917969 23.136719 34.917969 Z M 23.136719 34.917969 " fill-opacity="1" fill-rule="nonzero"/><path fill="#62cdec" d="M 18.523438 44.363281 C 18.523438 44.558594 18.683594 44.722656 18.882812 44.722656 L 19.855469 44.722656 C 20.054688 44.722656 20.214844 44.558594 20.214844 44.363281 C 20.214844 44.164062 20.054688 44 19.855469 44 L 18.882812 44 C 18.683594 44 18.523438 44.164062 18.523438 44.363281 Z M 18.523438 44.363281 " fill-opacity="1" fill-rule="nonzero"/><path fill="#62cdec" d="M 22.363281 44.722656 L 46.25 44.722656 C 46.449219 44.722656 46.609375 44.558594 46.609375 44.363281 C 46.609375 44.164062 46.449219 44 46.25 44 L 22.363281 44 C 22.164062 44 22.003906 44.164062 22.003906 44.363281 C 22.003906 44.558594 22.164062 44.722656 22.363281 44.722656 Z M 22.363281 44.722656 " fill-opacity="1" fill-rule="nonzero"/></svg>