<svg xmlns="http://www.w3.org/2000/svg" xmlns:xlink="http://www.w3.org/1999/xlink" width="100" zoomAndPan="magnify" viewBox="0 0 75 74.999997" height="100" preserveAspectRatio="xMidYMid meet" version="1.0"><defs><clipPath id="3f95389e55"><path d="M 14.050781 13.449219 L 61 13.449219 L 61 61.449219 L 14.050781 61.449219 Z M 14.050781 13.449219 " clip-rule="nonzero"/></clipPath></defs><g clip-path="url(#3f95389e55)"><path fill="#62cdec" d="M 21.28125 34.898438 C 21.28125 36.882812 19.667969 38.5 17.683594 38.5 C 15.699219 38.5 14.082031 36.882812 14.082031 34.898438 C 14.082031 32.910156 15.699219 31.296875 17.683594 31.296875 C 19.667969 31.296875 21.28125 32.910156 21.28125 34.898438 Z M 38.597656 26.636719 C 38.597656 24.855469 37.148438 23.40625 35.367188 23.40625 C 33.589844 23.40625 32.140625 24.855469 32.140625 26.636719 C 32.140625 27.53125 32.503906 28.34375 33.097656 28.929688 L 33.097656 28.398438 C 33.097656 27.144531 34.117188 26.125 35.367188 26.125 C 36.625 26.125 37.644531 27.144531 37.644531 28.398438 L 37.644531 28.925781 C 38.234375 28.339844 38.597656 27.53125 38.597656 26.636719 Z M 22.480469 19.929688 C 24.269531 19.929688 25.722656 18.476562 25.722656 16.691406 C 25.722656 14.90625 24.269531 13.453125 22.480469 13.453125 C 20.695312 13.453125 19.242188 14.90625 19.242188 16.691406 C 19.242188 18.476562 20.695312 19.929688 22.480469 19.929688 Z M 45.761719 26.457031 L 59.605469 26.457031 L 59.605469 35.300781 L 45.761719 35.300781 L 45.761719 33.378906 C 45.761719 33.246094 45.707031 33.117188 45.617188 33.023438 L 42.011719 29.304688 L 45.3125 28.894531 C 45.570312 28.863281 45.761719 28.644531 45.761719 28.386719 Z M 48.5625 29.476562 C 48.5625 29.757812 48.792969 29.988281 49.074219 29.988281 L 56.925781 29.988281 C 57.207031 29.988281 57.433594 29.757812 57.433594 29.476562 C 57.433594 29.195312 57.207031 28.964844 56.925781 28.964844 L 49.074219 28.964844 C 48.792969 28.964844 48.5625 29.195312 48.5625 29.476562 Z M 48.5625 32.285156 C 48.5625 32.566406 48.792969 32.796875 49.074219 32.796875 L 56.925781 32.796875 C 57.207031 32.796875 57.433594 32.566406 57.433594 32.285156 C 57.433594 32 57.207031 31.773438 56.925781 31.773438 L 49.074219 31.773438 C 48.792969 31.773438 48.5625 32 48.5625 32.285156 Z M 57.296875 13.8125 C 55.300781 13.8125 53.675781 15.4375 53.675781 17.433594 C 53.675781 19.429688 55.300781 21.050781 57.296875 21.050781 C 59.292969 21.050781 60.917969 19.429688 60.917969 17.433594 C 60.917969 15.4375 59.292969 13.8125 57.296875 13.8125 Z M 45.9375 39.933594 C 45.25 39.933594 44.691406 40.492188 44.691406 41.183594 L 44.691406 43.378906 C 44.691406 43.660156 44.460938 43.890625 44.179688 43.890625 C 43.894531 43.890625 43.667969 43.660156 43.667969 43.378906 L 43.667969 39.125 C 43.667969 38.433594 43.105469 37.871094 42.414062 37.871094 C 41.726562 37.871094 41.164062 38.433594 41.164062 39.125 L 41.164062 43.378906 C 41.164062 43.660156 40.9375 43.890625 40.652344 43.890625 C 40.371094 43.890625 40.140625 43.660156 40.140625 43.378906 L 40.140625 39.125 C 40.140625 38.433594 39.582031 37.871094 38.894531 37.871094 C 38.207031 37.871094 37.644531 38.433594 37.644531 39.125 L 37.644531 43.378906 C 37.644531 43.660156 37.414062 43.890625 37.132812 43.890625 C 36.851562 43.890625 36.621094 43.660156 36.621094 43.378906 L 36.621094 28.398438 C 36.621094 27.707031 36.058594 27.148438 35.367188 27.148438 C 34.679688 27.148438 34.121094 27.707031 34.121094 28.398438 L 34.121094 43.296875 C 34.121094 43.433594 34.0625 43.570312 33.960938 43.667969 C 33.851562 43.769531 33.691406 43.824219 33.542969 43.804688 C 33.230469 43.769531 33.175781 43.71875 31.871094 41.726562 C 31.546875 41.234375 31.148438 40.625 31.03125 40.480469 C 29.488281 39.238281 27.703125 39.34375 27.097656 39.96875 C 26.71875 40.363281 27.007812 40.863281 27.316406 41.210938 C 27.324219 41.222656 27.332031 41.234375 27.339844 41.246094 C 27.996094 42.121094 28.257812 42.578125 28.535156 43.066406 C 28.738281 43.421875 28.945312 43.785156 29.332031 44.351562 C 29.394531 44.433594 29.425781 44.535156 29.425781 44.640625 L 29.425781 49.574219 C 29.425781 50.351562 29.640625 51.003906 30.105469 51.628906 L 31.390625 53.375 C 31.808594 53.9375 32.011719 54.554688 32.011719 55.253906 L 32.011719 56.523438 L 44.164062 56.523438 L 44.164062 55.253906 C 44.164062 54.554688 44.367188 53.9375 44.78125 53.375 L 46.511719 51.035156 C 46.972656 50.410156 47.1875 49.757812 47.1875 48.980469 L 47.1875 41.183594 C 47.1875 40.492188 46.628906 39.933594 45.9375 39.933594 Z M 53.242188 19.691406 C 53.074219 19.394531 52.941406 19.078125 52.84375 18.746094 L 42.152344 23.234375 C 42.304688 23.539062 42.4375 23.851562 42.550781 24.175781 Z M 28.292969 29.375 L 21.628906 32.488281 C 21.804688 32.777344 21.953125 33.089844 22.0625 33.417969 L 28.726562 30.304688 C 28.5625 30.007812 28.417969 29.695312 28.292969 29.375 Z M 30.035156 61.542969 L 46.0625 61.542969 L 46.0625 57.546875 L 30.035156 57.546875 Z M 33.097656 32.796875 L 33.097656 30.230469 C 31.90625 29.476562 31.113281 28.148438 31.113281 26.636719 C 31.113281 24.289062 33.023438 22.382812 35.367188 22.382812 C 37.714844 22.382812 39.621094 24.289062 39.621094 26.636719 C 39.621094 28.144531 38.832031 29.472656 37.644531 30.226562 L 37.644531 32.796875 C 39.117188 32.25 40.339844 31.191406 41.101562 29.835938 L 40.5625 29.28125 C 40.425781 29.140625 40.382812 28.9375 40.445312 28.753906 C 40.511719 28.574219 40.671875 28.441406 40.867188 28.417969 L 41.71875 28.308594 C 41.863281 27.773438 41.9375 27.214844 41.9375 26.636719 C 41.9375 23.015625 38.992188 20.066406 35.367188 20.066406 C 31.75 20.066406 28.804688 23.015625 28.804688 26.636719 C 28.804688 29.457031 30.59375 31.871094 33.097656 32.796875 Z M 29.0625 22.417969 C 29.253906 22.132812 29.464844 21.863281 29.691406 21.605469 L 26.144531 18.871094 L 25.519531 19.679688 Z M 29.0625 22.417969 " fill-opacity="1" fill-rule="nonzero"/></g></svg>