<svg xmlns="http://www.w3.org/2000/svg" xmlns:xlink="http://www.w3.org/1999/xlink" width="100" zoomAndPan="magnify" viewBox="0 0 75 74.999997" height="100" preserveAspectRatio="xMidYMid meet" version="1.0"><defs><clipPath id="10509ff599"><path d="M 11.910156 43 L 20 43 L 20 52 L 11.910156 52 Z M 11.910156 43 " clip-rule="nonzero"/></clipPath><clipPath id="3b582cba48"><path d="M 52 53 L 62.910156 53 L 62.910156 63 L 52 63 Z M 52 53 " clip-rule="nonzero"/></clipPath><clipPath id="a0b3ed858e"><path d="M 42 15 L 62.910156 15 L 62.910156 63.273438 L 42 63.273438 Z M 42 15 " clip-rule="nonzero"/></clipPath><clipPath id="bd04c57f7e"><path d="M 27 46 L 33 46 L 33 63.273438 L 27 63.273438 Z M 27 46 " clip-rule="nonzero"/></clipPath><clipPath id="e78e703aed"><path d="M 11.910156 11.523438 L 45 11.523438 L 45 45 L 11.910156 45 Z M 11.910156 11.523438 " clip-rule="nonzero"/></clipPath></defs><path fill="#62cdec" d="M 28.394531 54.765625 C 25.367188 54.765625 22.902344 52.300781 22.902344 49.269531 C 22.902344 48.839844 22.546875 48.484375 22.117188 48.484375 C 21.683594 48.484375 21.332031 48.839844 21.332031 49.269531 C 21.332031 52.300781 18.867188 54.765625 15.835938 54.765625 C 15.40625 54.765625 15.050781 55.117188 15.050781 55.550781 C 15.050781 55.980469 15.40625 56.335938 15.835938 56.335938 C 18.867188 56.335938 21.332031 58.800781 21.332031 61.828125 C 21.332031 62.261719 21.683594 62.613281 22.117188 62.613281 C 22.546875 62.613281 22.902344 62.261719 22.902344 61.828125 C 22.902344 58.800781 25.367188 56.335938 28.394531 56.335938 C 28.828125 56.335938 29.179688 55.980469 29.179688 55.550781 C 29.179688 55.117188 28.828125 54.765625 28.394531 54.765625 Z M 28.394531 54.765625 " fill-opacity="1" fill-rule="nonzero"/><g clip-path="url(#10509ff599)"><path fill="#62cdec" d="M 15.835938 51.625 C 16.269531 51.625 16.621094 51.273438 16.621094 50.839844 C 16.621094 49.546875 17.679688 48.484375 18.976562 48.484375 C 19.40625 48.484375 19.761719 48.132812 19.761719 47.699219 C 19.761719 47.269531 19.40625 46.914062 18.976562 46.914062 C 17.679688 46.914062 16.621094 45.855469 16.621094 44.5625 C 16.621094 44.128906 16.269531 43.777344 15.835938 43.777344 C 15.40625 43.777344 15.050781 44.128906 15.050781 44.5625 C 15.050781 45.855469 13.992188 46.914062 12.695312 46.914062 C 12.265625 46.914062 11.910156 47.269531 11.910156 47.699219 C 11.910156 48.132812 12.265625 48.484375 12.695312 48.484375 C 13.992188 48.484375 15.050781 49.546875 15.050781 50.839844 C 15.050781 51.273438 15.40625 51.625 15.835938 51.625 Z M 15.835938 51.625 " fill-opacity="1" fill-rule="nonzero"/></g><g clip-path="url(#3b582cba48)"><path fill="#62cdec" d="M 61.359375 57.121094 C 59.625 57.121094 58.222656 55.714844 58.222656 53.980469 C 58.222656 53.546875 57.867188 53.195312 57.4375 53.195312 C 57.003906 53.195312 56.652344 53.546875 56.652344 53.980469 C 56.652344 55.714844 55.246094 57.121094 53.511719 57.121094 C 53.082031 57.121094 52.726562 57.472656 52.726562 57.90625 C 52.726562 58.335938 53.082031 58.6875 53.511719 58.6875 C 55.246094 58.6875 56.652344 60.09375 56.652344 61.828125 C 56.652344 62.261719 57.003906 62.613281 57.4375 62.613281 C 57.867188 62.613281 58.222656 62.261719 58.222656 61.828125 C 58.222656 60.09375 59.625 58.6875 61.359375 58.6875 C 61.792969 58.6875 62.144531 58.335938 62.144531 57.90625 C 62.144531 57.472656 61.792969 57.121094 61.359375 57.121094 Z M 61.359375 57.121094 " fill-opacity="1" fill-rule="nonzero"/></g><g clip-path="url(#a0b3ed858e)"><path fill="#62cdec" d="M 62.726562 39.222656 L 59.726562 35.855469 C 59.769531 35.347656 59.792969 34.84375 59.792969 34.355469 C 59.792969 24.921875 52.75 16.894531 43.410156 15.675781 C 42.976562 15.613281 42.585938 15.917969 42.53125 16.351562 C 42.476562 16.785156 42.773438 17.175781 43.207031 17.230469 C 51.769531 18.34375 58.222656 25.707031 58.222656 34.347656 C 58.222656 34.890625 58.191406 35.464844 58.136719 36.042969 C 58.113281 36.265625 58.183594 36.476562 58.332031 36.640625 L 61.550781 40.269531 L 57.96875 41.460938 C 57.71875 41.546875 57.523438 41.75 57.460938 42.011719 L 55.363281 50.21875 C 55.285156 50.582031 54.964844 50.839844 54.59375 50.839844 L 49.585938 50.839844 C 48.292969 50.839844 47.234375 51.898438 47.234375 53.195312 L 47.234375 62.613281 C 47.234375 63.046875 47.585938 63.398438 48.019531 63.398438 C 48.449219 63.398438 48.800781 63.046875 48.800781 62.613281 L 48.800781 53.195312 C 48.800781 52.761719 49.15625 52.410156 49.585938 52.410156 L 54.59375 52.410156 C 55.703125 52.410156 56.667969 51.625 56.886719 50.582031 L 58.871094 42.820312 L 62.042969 41.757812 C 62.546875 41.59375 62.929688 41.1875 63.0625 40.675781 C 63.199219 40.164062 63.070312 39.625 62.71875 39.222656 Z M 62.726562 39.222656 " fill-opacity="1" fill-rule="nonzero"/></g><g clip-path="url(#bd04c57f7e)"><path fill="#62cdec" d="M 30.703125 48.25 C 29.941406 47.683594 29.210938 47.050781 28.550781 46.367188 C 28.253906 46.050781 27.75 46.042969 27.445312 46.351562 C 27.132812 46.648438 27.125 47.152344 27.429688 47.457031 C 28.152344 48.203125 28.9375 48.894531 29.777344 49.507812 C 30.386719 49.960938 30.757812 50.675781 30.757812 51.414062 L 30.757812 62.605469 C 30.757812 63.039062 31.109375 63.390625 31.542969 63.390625 C 31.972656 63.390625 32.328125 63.039062 32.328125 62.605469 L 32.328125 51.414062 C 32.328125 50.179688 31.722656 48.996094 30.710938 48.242188 Z M 30.703125 48.25 " fill-opacity="1" fill-rule="nonzero"/></g><g clip-path="url(#e78e703aed)"><path fill="#62cdec" d="M 35.5625 40.792969 L 36.722656 41.957031 C 37.027344 42.261719 37.523438 42.261719 37.828125 41.957031 L 42.273438 37.511719 C 42.578125 37.207031 42.578125 36.710938 42.273438 36.40625 L 41.109375 35.246094 C 40.570312 34.703125 40.410156 33.902344 40.71875 33.164062 C 41.007812 32.457031 41.691406 32.003906 42.453125 32.003906 L 44.09375 32.003906 C 44.523438 32.003906 44.878906 31.648438 44.878906 31.21875 L 44.878906 24.9375 C 44.878906 24.507812 44.523438 24.152344 44.09375 24.152344 L 42.453125 24.152344 C 41.691406 24.152344 41.007812 23.699219 40.703125 22.960938 C 40.410156 22.253906 40.570312 21.453125 41.109375 20.910156 L 42.273438 19.75 C 42.578125 19.445312 42.578125 18.949219 42.273438 18.644531 L 37.828125 14.199219 C 37.523438 13.894531 37.027344 13.894531 36.722656 14.199219 L 35.5625 15.363281 C 35.019531 15.902344 34.21875 16.0625 33.480469 15.753906 C 32.773438 15.464844 32.320312 14.78125 32.320312 14.019531 L 32.320312 12.378906 C 32.320312 11.949219 31.964844 11.59375 31.535156 11.59375 L 25.253906 11.59375 C 24.824219 11.59375 24.46875 11.949219 24.46875 12.378906 L 24.46875 14.019531 C 24.46875 14.78125 24.015625 15.464844 23.277344 15.769531 C 22.570312 16.0625 21.769531 15.902344 21.230469 15.363281 L 20.066406 14.199219 C 19.761719 13.894531 19.265625 13.894531 18.960938 14.199219 L 14.519531 18.644531 C 14.210938 18.949219 14.210938 19.445312 14.519531 19.75 L 15.679688 20.910156 C 16.222656 21.453125 16.378906 22.253906 16.070312 22.992188 C 15.78125 23.699219 15.097656 24.152344 14.335938 24.152344 L 12.695312 24.152344 C 12.265625 24.152344 11.910156 24.507812 11.910156 24.9375 L 11.910156 31.21875 C 11.910156 31.648438 12.265625 32.003906 12.695312 32.003906 L 14.335938 32.003906 C 15.097656 32.003906 15.78125 32.457031 16.085938 33.195312 C 16.378906 33.902344 16.222656 34.703125 15.679688 35.246094 L 14.519531 36.40625 C 14.210938 36.710938 14.210938 37.207031 14.519531 37.511719 L 18.960938 41.957031 C 19.265625 42.261719 19.761719 42.261719 20.066406 41.957031 L 21.230469 40.792969 C 21.769531 40.25 22.570312 40.09375 23.308594 40.402344 C 24.015625 40.691406 24.46875 41.375 24.46875 42.136719 L 24.46875 43.777344 C 24.46875 44.207031 24.824219 44.5625 25.253906 44.5625 L 31.535156 44.5625 C 31.964844 44.5625 32.320312 44.207031 32.320312 43.777344 L 32.320312 42.136719 C 32.320312 41.375 32.773438 40.691406 33.511719 40.386719 C 34.21875 40.09375 35.019531 40.25 35.5625 40.792969 Z M 18.191406 28.078125 C 18.191406 22.449219 22.765625 17.875 28.394531 17.875 C 34.023438 17.875 38.597656 22.449219 38.597656 28.078125 C 38.597656 33.707031 34.023438 38.28125 28.394531 38.28125 C 22.765625 38.28125 18.191406 33.707031 18.191406 28.078125 Z M 18.191406 28.078125 " fill-opacity="1" fill-rule="nonzero"/></g><path fill="#62cdec" d="M 28.394531 19.445312 C 23.628906 19.445312 19.761719 23.3125 19.761719 28.078125 C 19.761719 32.84375 23.628906 36.710938 28.394531 36.710938 C 33.160156 36.710938 37.027344 32.84375 37.027344 28.078125 C 37.027344 23.3125 33.160156 19.445312 28.394531 19.445312 Z M 28.394531 35.140625 C 24.5 35.140625 21.332031 31.972656 21.332031 28.078125 C 21.332031 24.183594 24.5 21.015625 28.394531 21.015625 C 32.289062 21.015625 35.460938 24.183594 35.460938 28.078125 C 35.460938 31.972656 32.289062 35.140625 28.394531 35.140625 Z M 28.394531 35.140625 " fill-opacity="1" fill-rule="nonzero"/><path fill="#62cdec" d="M 28.394531 22.582031 C 25.367188 22.582031 22.902344 25.046875 22.902344 28.078125 C 22.902344 31.109375 25.367188 33.574219 28.394531 33.574219 C 31.425781 33.574219 33.890625 31.109375 33.890625 28.078125 C 33.890625 25.046875 31.425781 22.582031 28.394531 22.582031 Z M 31.308594 27.066406 L 28.167969 30.207031 C 28.011719 30.355469 27.8125 30.433594 27.609375 30.433594 C 27.40625 30.433594 27.210938 30.355469 27.054688 30.207031 L 25.484375 28.636719 C 25.175781 28.328125 25.175781 27.828125 25.484375 27.519531 C 25.789062 27.214844 26.292969 27.214844 26.597656 27.519531 L 27.609375 28.542969 L 30.191406 25.949219 C 30.5 25.644531 31 25.644531 31.308594 25.949219 C 31.613281 26.257812 31.613281 26.757812 31.308594 27.066406 Z M 31.308594 27.066406 " fill-opacity="1" fill-rule="nonzero"/><path fill="#62cdec" d="M 50.835938 44.269531 C 50.984375 44.121094 51.0625 43.925781 51.0625 43.714844 C 51.0625 43.5 50.976562 43.304688 50.835938 43.15625 L 50.019531 42.339844 C 49.714844 42.035156 49.617188 41.570312 49.769531 41.21875 C 49.777344 41.203125 49.792969 41.164062 49.800781 41.140625 C 49.964844 40.738281 50.355469 40.472656 50.789062 40.472656 L 51.941406 40.472656 C 52.375 40.472656 52.726562 40.117188 52.726562 39.6875 L 52.726562 35.292969 C 52.726562 34.859375 52.375 34.507812 51.941406 34.507812 L 50.789062 34.507812 C 50.347656 34.507812 49.964844 34.246094 49.785156 33.816406 C 49.617188 33.40625 49.707031 32.953125 50.011719 32.636719 L 50.828125 31.820312 C 50.976562 31.671875 51.054688 31.476562 51.054688 31.265625 C 51.054688 31.054688 50.96875 30.855469 50.828125 30.707031 L 47.71875 27.597656 C 47.414062 27.292969 46.917969 27.292969 46.613281 27.597656 C 46.304688 27.90625 46.304688 28.398438 46.613281 28.707031 L 49.164062 31.257812 L 48.90625 31.515625 C 48.144531 32.277344 47.921875 33.40625 48.339844 34.421875 C 48.746094 35.417969 49.707031 36.0625 50.78125 36.0625 L 51.148438 36.0625 L 51.148438 38.886719 L 50.78125 38.886719 C 49.707031 38.886719 48.746094 39.53125 48.324219 40.542969 C 47.90625 41.539062 48.136719 42.667969 48.898438 43.429688 L 49.15625 43.691406 L 47.152344 45.683594 L 46.894531 45.425781 C 46.132812 44.664062 45.003906 44.441406 43.992188 44.859375 C 42.996094 45.265625 42.351562 46.226562 42.351562 47.300781 L 42.351562 47.667969 L 39.523438 47.667969 L 39.523438 47.300781 C 39.523438 46.226562 38.882812 45.265625 37.867188 44.84375 C 36.871094 44.425781 35.742188 44.65625 34.980469 45.417969 L 34.722656 45.675781 L 34.585938 45.542969 C 34.28125 45.234375 33.789062 45.234375 33.480469 45.542969 C 33.175781 45.847656 33.175781 46.34375 33.480469 46.648438 L 34.171875 47.339844 C 34.476562 47.644531 34.972656 47.644531 35.277344 47.339844 L 36.09375 46.523438 C 36.402344 46.21875 36.863281 46.121094 37.21875 46.273438 C 37.234375 46.28125 37.273438 46.296875 37.296875 46.304688 C 37.695312 46.46875 37.964844 46.859375 37.964844 47.292969 L 37.964844 48.445312 C 37.964844 48.878906 38.316406 49.230469 38.746094 49.230469 L 43.144531 49.230469 C 43.574219 49.230469 43.929688 48.878906 43.929688 48.445312 L 43.929688 47.292969 C 43.929688 46.851562 44.1875 46.46875 44.617188 46.289062 C 45.027344 46.121094 45.480469 46.210938 45.796875 46.515625 L 46.613281 47.332031 C 46.917969 47.636719 47.414062 47.636719 47.71875 47.332031 L 50.828125 44.222656 Z M 50.835938 44.269531 " fill-opacity="1" fill-rule="nonzero"/><path fill="#62cdec" d="M 40.953125 42.207031 C 40.523438 42.207031 40.167969 42.558594 40.167969 42.992188 C 40.167969 43.421875 40.523438 43.777344 40.953125 43.777344 C 44.414062 43.777344 47.234375 40.957031 47.234375 37.496094 C 47.234375 36.203125 46.839844 34.960938 46.109375 33.910156 C 45.859375 33.558594 45.371094 33.46875 45.019531 33.714844 C 44.667969 33.964844 44.578125 34.453125 44.824219 34.804688 C 45.371094 35.597656 45.671875 36.523438 45.671875 37.496094 C 45.671875 40.09375 43.558594 42.207031 40.960938 42.207031 Z M 40.953125 42.207031 " fill-opacity="1" fill-rule="nonzero"/></svg>