<svg xmlns="http://www.w3.org/2000/svg" xmlns:xlink="http://www.w3.org/1999/xlink" width="100" zoomAndPan="magnify" viewBox="0 0 75 74.999997" height="100" preserveAspectRatio="xMidYMid meet" version="1.0"><defs><clipPath id="39c4558d22"><path d="M 13.027344 12.238281 L 61.777344 12.238281 L 61.777344 62.488281 L 13.027344 62.488281 Z M 13.027344 12.238281 " clip-rule="nonzero"/></clipPath></defs><g clip-path="url(#39c4558d22)"><path fill="#62cdec" d="M 29.75 31.816406 C 29.726562 31.789062 29.703125 31.757812 29.683594 31.726562 C 29.289062 31.21875 29.128906 30.59375 29.191406 29.996094 C 29.253906 29.394531 29.539062 28.8125 30.027344 28.394531 C 30.058594 28.367188 30.085938 28.34375 30.121094 28.320312 C 30.628906 27.925781 31.253906 27.769531 31.851562 27.828125 C 32.472656 27.894531 33.070312 28.195312 33.488281 28.710938 L 35.894531 31.671875 L 37.226562 30.03125 L 38.332031 28.667969 L 38.335938 28.664062 L 38.355469 28.640625 L 41.507812 24.761719 C 41.925781 24.246094 42.523438 23.945312 43.140625 23.882812 C 43.761719 23.816406 44.40625 23.988281 44.921875 24.410156 C 45.441406 24.832031 45.742188 25.425781 45.804688 26.046875 C 45.867188 26.664062 45.699219 27.308594 45.277344 27.828125 L 42.105469 31.730469 L 40.996094 33.09375 L 37.828125 36.996094 C 37.761719 37.078125 37.691406 37.152344 37.625 37.214844 C 37.554688 37.285156 37.476562 37.347656 37.398438 37.40625 C 36.882812 37.820312 36.246094 37.984375 35.632812 37.921875 C 35.015625 37.859375 34.417969 37.558594 34 37.042969 Z M 37.050781 49.109375 L 37.082031 49.125 C 37.21875 49.1875 37.359375 49.21875 37.496094 49.21875 C 37.636719 49.21875 37.777344 49.1875 37.914062 49.125 C 43.898438 46.394531 48.511719 42.75 51.300781 37.839844 C 54.09375 32.929688 55.046875 26.777344 53.707031 19.039062 C 53.675781 18.859375 53.597656 18.6875 53.484375 18.546875 C 53.46875 18.527344 53.453125 18.507812 53.433594 18.492188 C 53.296875 18.347656 53.121094 18.246094 52.914062 18.203125 C 52.898438 18.199219 52.882812 18.199219 52.871094 18.195312 C 49.722656 17.722656 46.917969 17.03125 44.460938 16.089844 C 42.023438 15.152344 39.914062 13.960938 38.136719 12.476562 C 37.949219 12.320312 37.722656 12.242188 37.496094 12.242188 C 37.296875 12.242188 37.09375 12.304688 36.917969 12.429688 C 36.898438 12.445312 36.878906 12.460938 36.859375 12.476562 C 35.082031 13.960938 32.972656 15.152344 30.535156 16.089844 C 28.078125 17.03125 25.273438 17.722656 22.125 18.195312 C 21.902344 18.230469 21.707031 18.335938 21.5625 18.492188 C 21.417969 18.640625 21.324219 18.832031 21.289062 19.039062 C 19.949219 26.777344 20.902344 32.929688 23.695312 37.839844 C 26.480469 42.742188 31.082031 46.378906 37.050781 49.109375 Z M 24.789062 37.222656 C 27.421875 41.855469 31.800781 45.316406 37.496094 47.933594 C 43.195312 45.316406 47.574219 41.855469 50.207031 37.222656 C 52.835938 32.597656 53.742188 26.769531 52.496094 19.410156 C 49.347656 18.925781 46.523438 18.222656 44.015625 17.257812 C 41.515625 16.300781 39.34375 15.085938 37.496094 13.578125 C 35.652344 15.085938 33.480469 16.300781 30.980469 17.257812 C 28.472656 18.222656 25.648438 18.925781 22.5 19.410156 C 21.257812 26.769531 22.160156 32.597656 24.789062 37.222656 Z M 37.496094 45.046875 C 39.347656 44.128906 41.136719 43.058594 42.757812 41.796875 C 44.445312 40.480469 45.960938 38.953125 47.175781 37.164062 C 48.789062 34.800781 49.714844 32.210938 50.144531 29.523438 C 50.554688 26.960938 50.515625 24.300781 50.191406 21.65625 C 47.972656 21.238281 45.753906 20.671875 43.621094 19.894531 C 41.460938 19.109375 39.394531 18.105469 37.496094 16.820312 C 35.601562 18.105469 33.53125 19.109375 31.375 19.894531 C 29.242188 20.671875 27.023438 21.238281 24.800781 21.65625 C 24.480469 24.300781 24.441406 26.960938 24.851562 29.527344 C 25.28125 32.210938 26.207031 34.800781 27.820312 37.167969 C 29.035156 38.953125 30.550781 40.480469 32.238281 41.796875 C 33.859375 43.058594 35.644531 44.128906 37.496094 45.046875 Z M 43.53125 42.785156 C 45.320312 41.394531 46.921875 39.773438 48.214844 37.875 C 49.9375 35.347656 50.925781 32.585938 51.382812 29.722656 C 51.839844 26.882812 51.769531 23.945312 51.378906 21.039062 C 51.339844 20.753906 51.113281 20.539062 50.839844 20.5 C 48.546875 20.085938 46.25 19.515625 44.046875 18.714844 C 41.855469 17.914062 39.757812 16.882812 37.859375 15.542969 C 37.632812 15.382812 37.335938 15.394531 37.125 15.550781 C 35.230469 16.886719 33.136719 17.914062 30.949219 18.714844 C 28.738281 19.519531 26.429688 20.09375 24.128906 20.507812 C 23.851562 20.554688 23.652344 20.777344 23.617188 21.039062 C 23.226562 23.945312 23.15625 26.882812 23.613281 29.722656 C 24.070312 32.585938 25.058594 35.347656 26.78125 37.875 C 28.074219 39.773438 29.675781 41.394531 31.464844 42.785156 C 33.246094 44.171875 35.207031 45.332031 37.226562 46.3125 C 37.402344 46.398438 37.605469 46.394531 37.769531 46.3125 L 37.777344 46.3125 C 39.792969 45.328125 41.753906 44.171875 43.53125 42.785156 Z M 57.019531 52.355469 L 57.019531 52.351562 L 57.023438 52.351562 L 57.035156 52.34375 L 57.050781 52.335938 L 57.074219 52.320312 L 57.078125 52.320312 L 57.089844 52.3125 C 58.023438 51.671875 58.753906 50.929688 59.285156 50.085938 C 59.824219 49.230469 60.15625 48.277344 60.273438 47.226562 L 60.273438 47.207031 L 61.894531 35.382812 C 62.136719 34.425781 61.710938 33.648438 61.023438 33.175781 C 60.773438 33.003906 60.488281 32.875 60.1875 32.792969 C 59.890625 32.714844 59.578125 32.683594 59.277344 32.710938 C 58.425781 32.78125 57.648438 33.265625 57.375 34.285156 L 54.421875 45.332031 L 54.261719 45.421875 C 54.238281 45.109375 54.144531 44.800781 53.976562 44.511719 L 53.976562 44.507812 C 53.675781 43.984375 53.1875 43.632812 52.648438 43.488281 C 52.109375 43.34375 51.511719 43.40625 50.992188 43.707031 L 45.3125 46.972656 C 44.425781 47.460938 43.691406 48.054688 43.117188 48.75 C 42.566406 49.417969 42.164062 50.179688 41.90625 51.027344 C 41.902344 51.046875 41.894531 51.0625 41.890625 51.082031 L 41.871094 51.148438 C 41.859375 51.203125 41.84375 51.253906 41.832031 51.304688 L 40.976562 54.488281 L 40.339844 54.316406 C 40.003906 54.226562 39.660156 54.425781 39.570312 54.761719 L 38.359375 59.273438 C 38.269531 59.609375 38.46875 59.953125 38.804688 60.042969 L 48.863281 62.738281 C 49.199219 62.828125 49.542969 62.628906 49.632812 62.292969 L 50.84375 57.78125 C 50.933594 57.445312 50.734375 57.101562 50.398438 57.011719 L 49.761719 56.839844 L 50.042969 55.777344 C 51.761719 54.980469 53.042969 54.375 54.136719 53.835938 C 55.273438 53.277344 56.136719 52.832031 57.019531 52.355469 Z M 48.546875 56.515625 L 48.90625 55.171875 C 48.953125 54.996094 49.074219 54.84375 49.25 54.761719 C 51.179688 53.867188 52.53125 53.226562 53.585938 52.710938 C 54.648438 52.1875 55.496094 51.75 56.394531 51.261719 C 57.179688 50.722656 57.789062 50.109375 58.222656 49.417969 C 58.613281 48.796875 58.867188 48.113281 58.988281 47.359375 L 59.023438 47.105469 L 59.023438 47.085938 C 59.027344 47.074219 59.027344 47.058594 59.03125 47.042969 L 60.65625 35.171875 C 60.660156 35.144531 60.664062 35.117188 60.671875 35.09375 C 60.769531 34.71875 60.59375 34.40625 60.3125 34.210938 C 60.179688 34.121094 60.027344 34.050781 59.867188 34.007812 C 59.710938 33.96875 59.542969 33.949219 59.378906 33.964844 C 59.023438 33.996094 58.703125 34.191406 58.589844 34.609375 L 55.570312 45.90625 C 55.519531 46.089844 55.394531 46.234375 55.234375 46.308594 L 53.238281 47.457031 L 53.175781 47.492188 L 53.175781 47.496094 L 50.167969 49.234375 C 49.867188 49.40625 49.480469 49.304688 49.308594 49.003906 C 49.132812 48.703125 49.238281 48.320312 49.535156 48.144531 L 52.546875 46.40625 C 52.769531 46.28125 52.917969 46.070312 52.980469 45.839844 C 53.042969 45.613281 53.019531 45.363281 52.894531 45.144531 L 52.886719 45.125 C 52.757812 44.910156 52.554688 44.765625 52.324219 44.703125 C 52.089844 44.640625 51.835938 44.664062 51.613281 44.792969 L 46.230469 47.890625 C 46.195312 47.921875 46.152344 47.949219 46.109375 47.972656 C 45.269531 48.402344 44.59375 48.929688 44.085938 49.546875 C 43.640625 50.085938 43.316406 50.699219 43.109375 51.386719 L 43.105469 51.40625 L 42.191406 54.8125 Z M 41.265625 55.867188 L 49.464844 58.0625 L 48.582031 61.363281 L 39.738281 58.992188 L 40.621094 55.691406 L 41.253906 55.863281 L 41.261719 55.863281 Z M 18.601562 51.261719 C 19.5 51.75 20.347656 52.1875 21.410156 52.710938 C 22.464844 53.226562 23.816406 53.867188 25.746094 54.761719 C 25.921875 54.84375 26.042969 54.996094 26.089844 55.171875 L 26.449219 56.515625 L 32.804688 54.8125 L 31.890625 51.40625 L 31.886719 51.382812 C 31.679688 50.695312 31.355469 50.085938 30.910156 49.550781 C 30.402344 48.929688 29.726562 48.402344 28.886719 47.972656 C 28.84375 47.949219 28.800781 47.921875 28.765625 47.890625 L 23.382812 44.792969 C 23.160156 44.664062 22.90625 44.640625 22.671875 44.703125 C 22.441406 44.765625 22.234375 44.914062 22.105469 45.132812 L 22.105469 45.136719 L 22.085938 45.167969 L 22.085938 45.171875 C 21.976562 45.382812 21.957031 45.621094 22.015625 45.839844 C 22.078125 46.070312 22.226562 46.28125 22.449219 46.40625 L 22.484375 46.425781 L 22.484375 46.429688 L 25.457031 48.144531 C 25.757812 48.320312 25.863281 48.703125 25.6875 49.003906 C 25.515625 49.304688 25.128906 49.40625 24.828125 49.234375 L 21.859375 47.515625 C 21.832031 47.503906 21.808594 47.492188 21.785156 47.476562 L 21.785156 47.472656 L 21.761719 47.460938 L 19.761719 46.308594 C 19.601562 46.234375 19.476562 46.089844 19.425781 45.90625 L 16.40625 34.609375 C 16.292969 34.191406 15.972656 33.996094 15.617188 33.964844 C 15.453125 33.949219 15.285156 33.96875 15.128906 34.007812 C 14.96875 34.050781 14.816406 34.121094 14.683594 34.210938 C 14.402344 34.40625 14.226562 34.71875 14.324219 35.09375 C 14.332031 35.117188 14.335938 35.144531 14.339844 35.171875 L 15.964844 47.042969 C 15.96875 47.058594 15.96875 47.074219 15.972656 47.085938 L 15.976562 47.109375 L 16.007812 47.355469 C 16.257812 48.945312 17.125 50.246094 18.601562 51.261719 Z M 25.234375 56.839844 L 24.597656 57.011719 C 24.261719 57.101562 24.0625 57.445312 24.152344 57.78125 L 25.363281 62.292969 C 25.453125 62.628906 25.796875 62.828125 26.132812 62.738281 L 36.191406 60.042969 C 36.527344 59.953125 36.726562 59.609375 36.636719 59.273438 L 35.425781 54.761719 C 35.335938 54.425781 34.992188 54.226562 34.65625 54.316406 L 34.019531 54.488281 L 33.167969 51.316406 C 33.152344 51.257812 33.136719 51.195312 33.121094 51.136719 L 33.105469 51.082031 C 33.101562 51.0625 33.09375 51.046875 33.089844 51.03125 C 32.835938 50.179688 32.433594 49.421875 31.882812 48.753906 C 31.304688 48.054688 30.574219 47.460938 29.683594 46.972656 L 24.007812 43.707031 C 23.484375 43.40625 22.886719 43.34375 22.347656 43.488281 C 21.820312 43.628906 21.34375 43.96875 21.039062 44.472656 C 21.019531 44.503906 21 44.535156 20.984375 44.570312 C 20.839844 44.839844 20.757812 45.132812 20.734375 45.421875 L 20.574219 45.332031 L 17.621094 34.285156 C 17.347656 33.265625 16.570312 32.78125 15.722656 32.710938 C 15.417969 32.683594 15.105469 32.714844 14.808594 32.792969 C 14.507812 32.875 14.222656 33.003906 13.972656 33.175781 C 13.285156 33.648438 12.859375 34.425781 13.101562 35.382812 L 14.722656 47.210938 L 14.722656 47.226562 C 14.960938 49.324219 16.019531 51.019531 17.90625 52.308594 L 17.90625 52.3125 L 17.917969 52.320312 L 17.921875 52.320312 L 17.945312 52.335938 L 17.960938 52.34375 L 17.972656 52.351562 L 17.976562 52.351562 L 17.976562 52.355469 C 18.859375 52.832031 19.722656 53.277344 20.859375 53.835938 C 21.953125 54.375 23.234375 54.980469 24.953125 55.777344 Z M 33.738281 55.863281 L 34.375 55.691406 L 35.257812 58.992188 L 26.414062 61.363281 L 25.53125 58.0625 L 33.734375 55.863281 Z M 30.441406 30.121094 C 30.410156 30.421875 30.492188 30.734375 30.691406 30.984375 L 34.972656 36.25 C 35.175781 36.5 35.460938 36.640625 35.761719 36.671875 C 36.054688 36.703125 36.355469 36.628906 36.601562 36.4375 C 36.621094 36.417969 36.644531 36.402344 36.667969 36.386719 C 36.695312 36.363281 36.726562 36.339844 36.753906 36.3125 C 36.789062 36.277344 36.824219 36.242188 36.851562 36.203125 L 40.019531 32.304688 L 40.023438 32.300781 L 41.128906 30.9375 L 44.304688 27.035156 C 44.503906 26.785156 44.585938 26.476562 44.554688 26.175781 C 44.523438 25.875 44.378906 25.585938 44.132812 25.382812 C 43.882812 25.183594 43.570312 25.101562 43.269531 25.132812 C 42.96875 25.164062 42.683594 25.304688 42.480469 25.554688 L 39.328125 29.433594 L 39.316406 29.449219 L 39.3125 29.457031 L 39.308594 29.457031 L 38.203125 30.820312 L 36.390625 33.050781 C 36.359375 33.085938 36.328125 33.121094 36.289062 33.152344 C 36.019531 33.371094 35.625 33.332031 35.40625 33.0625 L 32.515625 29.503906 C 32.3125 29.253906 32.027344 29.109375 31.726562 29.078125 C 31.425781 29.046875 31.113281 29.128906 30.867188 29.332031 L 30.863281 29.332031 C 30.617188 29.535156 30.472656 29.824219 30.441406 30.121094 Z M 30.441406 30.121094 " fill-opacity="1" fill-rule="evenodd"/></g></svg>