<svg xmlns="http://www.w3.org/2000/svg" xmlns:xlink="http://www.w3.org/1999/xlink" width="100" zoomAndPan="magnify" viewBox="0 0 75 74.999997" height="100" preserveAspectRatio="xMidYMid meet" version="1.0"><defs><clipPath id="46937d50df"><path d="M 11.101562 11.101562 L 63.601562 11.101562 L 63.601562 63.601562 L 11.101562 63.601562 Z M 11.101562 11.101562 " clip-rule="nonzero"/></clipPath></defs><g clip-path="url(#46937d50df)"><path fill="#2c74dd" d="M 18.179688 53.375 C 18.148438 53.867188 17.683594 54.269531 17.066406 54.0625 L 12.636719 52.589844 C 12.21875 52.453125 11.992188 52 12.128906 51.585938 C 12.269531 51.167969 12.71875 50.941406 13.136719 51.078125 L 15.023438 51.703125 C 15.121094 51.734375 15.203125 51.632812 15.148438 51.546875 C 8.605469 41.15625 10.101562 27.5625 18.832031 18.832031 C 28.308594 9.351562 43.339844 8.503906 53.820312 16.753906 C 54.167969 17.027344 54.226562 17.527344 53.953125 17.875 C 53.683594 18.222656 53.179688 18.28125 52.832031 18.007812 C 42.972656 10.25 28.859375 11.066406 19.964844 19.960938 C 11.730469 28.191406 10.34375 41.042969 16.566406 50.800781 C 16.621094 50.886719 16.753906 50.855469 16.761719 50.75 L 16.917969 48.546875 C 16.949219 48.105469 17.332031 47.773438 17.773438 47.804688 C 18.210938 47.835938 18.542969 48.21875 18.511719 48.65625 Z M 24.699219 46.832031 C 25.445312 45.542969 24.515625 43.910156 23.011719 43.910156 C 21.292969 43.910156 20.402344 46.007812 21.632812 47.238281 C 22.546875 48.148438 24.0625 47.933594 24.699219 46.832031 Z M 38.636719 52.640625 C 37.351562 51.710938 35.546875 52.636719 35.546875 54.222656 C 35.546875 55.953125 37.652344 56.824219 38.875 55.601562 C 39.726562 54.75 39.605469 53.34375 38.636719 52.640625 Z M 48.515625 44.78125 L 40.164062 39.957031 C 40.121094 39.933594 40.070312 39.941406 40.035156 39.976562 C 38.640625 41.402344 36.351562 41.402344 34.957031 39.976562 C 34.925781 39.941406 34.871094 39.933594 34.828125 39.957031 L 26.476562 44.78125 C 26.433594 44.804688 26.414062 44.851562 26.429688 44.902344 C 26.601562 45.527344 26.601562 46.195312 26.429688 46.820312 C 26.414062 46.867188 26.433594 46.917969 26.476562 46.941406 L 34.828125 51.761719 C 34.871094 51.785156 34.925781 51.777344 34.957031 51.742188 C 36.351562 50.316406 38.644531 50.316406 40.035156 51.742188 C 40.070312 51.777344 40.121094 51.785156 40.164062 51.761719 L 48.515625 46.941406 C 48.558594 46.917969 48.578125 46.867188 48.566406 46.820312 C 48.390625 46.195312 48.390625 45.527344 48.566406 44.898438 C 48.578125 44.851562 48.558594 44.804688 48.515625 44.78125 Z M 51.179688 44.082031 C 49.832031 44.691406 49.617188 46.554688 50.839844 47.4375 C 52.121094 48.367188 53.929688 47.453125 53.929688 45.859375 C 53.929688 44.433594 52.457031 43.507812 51.179688 44.082031 Z M 50.03125 29.132812 C 50.03125 30.875 52.140625 31.730469 53.359375 30.511719 C 54.582031 29.289062 53.710938 27.183594 51.980469 27.183594 C 50.902344 27.183594 50.03125 28.058594 50.03125 29.132812 Z M 38.375 34.058594 C 40.296875 34.546875 41.449219 36.539062 40.914062 38.457031 C 40.898438 38.503906 40.921875 38.550781 40.964844 38.578125 L 49.3125 43.398438 C 49.355469 43.421875 49.410156 43.414062 49.445312 43.378906 C 49.894531 42.917969 50.464844 42.582031 51.101562 42.421875 C 51.148438 42.410156 51.179688 42.367188 51.179688 42.316406 L 51.179688 32.675781 C 51.179688 32.625 51.148438 32.582031 51.101562 32.570312 C 49.183594 32.082031 48.023438 30.097656 48.566406 28.171875 C 48.578125 28.125 48.558594 28.078125 48.515625 28.050781 L 40.164062 23.230469 C 40.121094 23.207031 40.070312 23.214844 40.035156 23.25 C 39.582031 23.714844 39.007812 24.046875 38.375 24.207031 C 38.328125 24.222656 38.296875 24.261719 38.296875 24.3125 L 38.296875 33.957031 C 38.296875 34.003906 38.328125 34.046875 38.375 34.058594 Z M 36.117188 22.148438 C 37.339844 23.367188 39.445312 22.507812 39.445312 20.769531 C 39.445312 19.039062 37.34375 18.167969 36.117188 19.394531 C 35.355469 20.15625 35.359375 21.390625 36.117188 22.148438 Z M 26.558594 29.132812 C 26.558594 30.773438 25.441406 32.175781 23.890625 32.570312 C 23.84375 32.582031 23.8125 32.625 23.8125 32.675781 L 23.8125 42.316406 C 23.8125 42.367188 23.84375 42.410156 23.890625 42.421875 C 24.527344 42.582031 25.097656 42.917969 25.550781 43.378906 C 25.582031 43.414062 25.636719 43.421875 25.679688 43.398438 L 34.03125 38.578125 C 34.074219 38.550781 34.09375 38.503906 34.078125 38.457031 C 33.546875 36.550781 34.679688 34.550781 36.617188 34.058594 C 36.664062 34.046875 36.695312 34.003906 36.695312 33.957031 L 36.695312 24.3125 C 36.695312 24.261719 36.664062 24.222656 36.617188 24.207031 C 35.976562 24.046875 35.40625 23.707031 34.957031 23.25 C 34.925781 23.214844 34.871094 23.207031 34.828125 23.230469 L 26.476562 28.050781 C 26.433594 28.078125 26.414062 28.125 26.429688 28.171875 C 26.515625 28.480469 26.558594 28.800781 26.558594 29.132812 Z M 24.152344 27.554688 C 22.875 26.628906 21.0625 27.542969 21.0625 29.132812 C 21.0625 30.875 23.171875 31.730469 24.390625 30.511719 C 25.242188 29.660156 25.121094 28.253906 24.152344 27.554688 Z M 58.074219 26.445312 L 58.230469 24.242188 C 58.238281 24.140625 58.371094 24.105469 58.425781 24.191406 C 64.648438 33.949219 63.261719 46.800781 55.03125 55.03125 C 46.132812 63.929688 32.019531 64.742188 22.160156 56.984375 C 21.8125 56.710938 21.3125 56.769531 21.039062 57.117188 C 20.765625 57.464844 20.824219 57.96875 21.171875 58.238281 C 31.65625 66.488281 46.683594 65.640625 56.160156 56.160156 C 64.890625 47.429688 66.386719 33.839844 59.84375 23.445312 C 59.792969 23.363281 59.875 23.257812 59.96875 23.289062 L 61.855469 23.914062 C 62.273438 24.054688 62.726562 23.828125 62.863281 23.410156 C 63 22.992188 62.773438 22.539062 62.355469 22.402344 C 60.941406 21.933594 59.175781 21.179688 57.769531 20.882812 C 57.335938 20.796875 56.921875 21.078125 56.828125 21.503906 L 56.480469 26.335938 C 56.449219 26.773438 56.78125 27.15625 57.222656 27.1875 C 57.660156 27.21875 58.042969 26.886719 58.074219 26.445312 Z M 58.074219 26.445312 " fill-opacity="1" fill-rule="evenodd"/></g></svg>