<svg xmlns="http://www.w3.org/2000/svg" xmlns:xlink="http://www.w3.org/1999/xlink" width="100" zoomAndPan="magnify" viewBox="0 0 75 74.999997" height="100" preserveAspectRatio="xMidYMid meet" version="1.0"><defs><clipPath id="e4d26e5d16"><path d="M 14.277344 21.144531 L 68.277344 21.144531 L 68.277344 61.644531 L 14.277344 61.644531 Z M 14.277344 21.144531 " clip-rule="nonzero"/></clipPath></defs><path fill="#2c74dd" d="M 36.855469 41.773438 L 39.59375 41.773438 C 39.714844 41.773438 39.820312 41.730469 39.90625 41.644531 C 39.992188 41.554688 40.035156 41.453125 40.035156 41.328125 L 40.035156 36.246094 C 40.035156 36.125 39.992188 36.019531 39.90625 35.933594 C 39.820312 35.847656 39.714844 35.804688 39.59375 35.804688 L 36.855469 35.804688 C 36.730469 35.804688 36.628906 35.847656 36.542969 35.933594 C 36.453125 36.019531 36.410156 36.125 36.410156 36.246094 L 36.410156 41.328125 C 36.410156 41.453125 36.453125 41.554688 36.542969 41.644531 C 36.628906 41.730469 36.730469 41.773438 36.855469 41.773438 Z M 37.296875 36.6875 L 39.152344 36.6875 L 39.152344 40.886719 L 37.296875 40.886719 Z M 37.296875 36.6875 " fill-opacity="1" fill-rule="nonzero"/><path fill="#2c74dd" d="M 41.449219 41.773438 L 44.191406 41.773438 C 44.3125 41.773438 44.417969 41.730469 44.503906 41.644531 C 44.589844 41.554688 44.632812 41.453125 44.632812 41.328125 L 44.632812 34.054688 C 44.632812 33.933594 44.589844 33.828125 44.503906 33.742188 C 44.417969 33.65625 44.3125 33.613281 44.191406 33.613281 L 41.449219 33.613281 C 41.328125 33.613281 41.222656 33.65625 41.136719 33.742188 C 41.050781 33.828125 41.007812 33.933594 41.007812 34.054688 L 41.007812 41.328125 C 41.007812 41.453125 41.050781 41.554688 41.136719 41.644531 C 41.222656 41.730469 41.328125 41.773438 41.449219 41.773438 Z M 41.894531 34.496094 L 43.75 34.496094 L 43.75 40.886719 L 41.894531 40.886719 Z M 41.894531 34.496094 " fill-opacity="1" fill-rule="nonzero"/><path fill="#2c74dd" d="M 24.761719 38.644531 L 32.871094 38.644531 C 32.992188 38.644531 33.097656 38.601562 33.183594 38.515625 C 33.269531 38.425781 33.3125 38.324219 33.3125 38.199219 C 33.3125 38.078125 33.269531 37.972656 33.183594 37.886719 C 33.097656 37.800781 32.992188 37.757812 32.871094 37.757812 L 24.761719 37.757812 C 24.640625 37.757812 24.535156 37.800781 24.449219 37.886719 C 24.363281 37.972656 24.320312 38.078125 24.320312 38.199219 C 24.320312 38.324219 24.363281 38.425781 24.449219 38.515625 C 24.535156 38.601562 24.640625 38.644531 24.761719 38.644531 Z M 24.761719 38.644531 " fill-opacity="1" fill-rule="nonzero"/><path fill="#2c74dd" d="M 18.214844 41.34375 L 20.664062 41.34375 C 20.789062 41.34375 20.890625 41.300781 20.976562 41.214844 C 21.0625 41.128906 21.105469 41.023438 21.105469 40.902344 C 21.105469 40.78125 21.0625 40.675781 20.976562 40.589844 C 20.890625 40.503906 20.789062 40.460938 20.664062 40.460938 L 18.214844 40.460938 C 18.175781 40.460938 18.152344 40.4375 18.152344 40.394531 L 18.152344 37.949219 C 18.152344 37.90625 18.175781 37.882812 18.214844 37.882812 L 20.664062 37.882812 C 20.789062 37.882812 20.890625 37.839844 20.980469 37.753906 C 21.066406 37.667969 21.109375 37.5625 21.109375 37.441406 C 21.109375 37.320312 21.066406 37.214844 20.980469 37.128906 C 20.890625 37.042969 20.789062 37 20.664062 37 L 18.214844 37 C 17.953125 37 17.730469 37.089844 17.546875 37.277344 C 17.359375 37.460938 17.269531 37.683594 17.265625 37.949219 L 17.265625 40.394531 C 17.269531 40.660156 17.359375 40.882812 17.546875 41.066406 C 17.730469 41.253906 17.953125 41.34375 18.214844 41.34375 Z M 18.214844 41.34375 " fill-opacity="1" fill-rule="nonzero"/><path fill="#2c74dd" d="M 22.492188 37.230469 L 20.433594 38.964844 L 19.671875 38.5 C 19.570312 38.433594 19.457031 38.417969 19.335938 38.445312 C 19.21875 38.472656 19.125 38.539062 19.0625 38.644531 C 19 38.75 18.980469 38.859375 19.007812 38.980469 C 19.039062 39.097656 19.105469 39.191406 19.210938 39.253906 L 20.246094 39.886719 C 20.425781 40 20.597656 39.984375 20.761719 39.847656 L 23.0625 37.90625 C 23.15625 37.828125 23.207031 37.726562 23.21875 37.605469 C 23.230469 37.480469 23.195312 37.375 23.117188 37.28125 C 23.035156 37.1875 22.9375 37.136719 22.816406 37.125 C 22.691406 37.117188 22.585938 37.148438 22.492188 37.230469 Z M 22.492188 37.230469 " fill-opacity="1" fill-rule="nonzero"/><path fill="#2c74dd" d="M 24.761719 40.605469 L 29.714844 40.605469 C 29.835938 40.605469 29.9375 40.5625 30.027344 40.476562 C 30.113281 40.390625 30.15625 40.285156 30.15625 40.164062 C 30.15625 40.042969 30.113281 39.9375 30.027344 39.851562 C 29.9375 39.765625 29.835938 39.722656 29.714844 39.722656 L 24.761719 39.722656 C 24.640625 39.722656 24.535156 39.765625 24.449219 39.851562 C 24.363281 39.9375 24.320312 40.042969 24.320312 40.164062 C 24.320312 40.285156 24.363281 40.390625 24.449219 40.476562 C 24.535156 40.5625 24.640625 40.605469 24.761719 40.605469 Z M 24.761719 40.605469 " fill-opacity="1" fill-rule="nonzero"/><path fill="#2c74dd" d="M 24.761719 32.554688 L 32.871094 32.554688 C 32.992188 32.554688 33.097656 32.511719 33.183594 32.425781 C 33.269531 32.339844 33.3125 32.234375 33.3125 32.113281 C 33.3125 31.988281 33.269531 31.886719 33.183594 31.796875 C 33.097656 31.710938 32.992188 31.667969 32.871094 31.667969 L 24.761719 31.667969 C 24.640625 31.667969 24.535156 31.710938 24.449219 31.796875 C 24.363281 31.886719 24.320312 31.988281 24.320312 32.113281 C 24.320312 32.234375 24.363281 32.339844 24.449219 32.425781 C 24.535156 32.511719 24.640625 32.554688 24.761719 32.554688 Z M 24.761719 32.554688 " fill-opacity="1" fill-rule="nonzero"/><path fill="#2c74dd" d="M 18.214844 35.257812 L 20.664062 35.257812 C 20.789062 35.257812 20.890625 35.214844 20.976562 35.125 C 21.0625 35.039062 21.105469 34.9375 21.105469 34.8125 C 21.105469 34.691406 21.0625 34.589844 20.976562 34.503906 C 20.890625 34.414062 20.789062 34.371094 20.664062 34.371094 L 18.214844 34.371094 C 18.175781 34.371094 18.152344 34.351562 18.152344 34.308594 L 18.152344 31.859375 C 18.152344 31.816406 18.175781 31.792969 18.214844 31.792969 L 20.664062 31.792969 C 20.789062 31.792969 20.890625 31.75 20.980469 31.664062 C 21.066406 31.578125 21.109375 31.472656 21.109375 31.351562 C 21.109375 31.230469 21.066406 31.125 20.980469 31.039062 C 20.890625 30.953125 20.789062 30.910156 20.664062 30.910156 L 18.214844 30.910156 C 17.953125 30.910156 17.730469 31.003906 17.546875 31.1875 C 17.359375 31.371094 17.269531 31.597656 17.265625 31.859375 L 17.265625 34.308594 C 17.269531 34.570312 17.359375 34.792969 17.546875 34.976562 C 17.730469 35.164062 17.953125 35.257812 18.214844 35.257812 Z M 18.214844 35.257812 " fill-opacity="1" fill-rule="nonzero"/><path fill="#2c74dd" d="M 22.492188 31.140625 L 20.433594 32.875 L 19.671875 32.410156 C 19.566406 32.347656 19.457031 32.328125 19.335938 32.355469 C 19.21875 32.386719 19.128906 32.453125 19.0625 32.554688 C 19 32.660156 18.980469 32.773438 19.011719 32.890625 C 19.039062 33.007812 19.105469 33.101562 19.210938 33.164062 L 20.246094 33.796875 C 20.425781 33.910156 20.597656 33.894531 20.761719 33.757812 L 23.0625 31.816406 C 23.15625 31.738281 23.207031 31.636719 23.21875 31.515625 C 23.230469 31.394531 23.195312 31.285156 23.117188 31.191406 C 23.035156 31.097656 22.9375 31.046875 22.816406 31.035156 C 22.691406 31.027344 22.585938 31.0625 22.492188 31.140625 Z M 22.492188 31.140625 " fill-opacity="1" fill-rule="nonzero"/><path fill="#2c74dd" d="M 24.761719 34.519531 L 29.714844 34.519531 C 29.835938 34.519531 29.941406 34.472656 30.027344 34.386719 C 30.113281 34.300781 30.15625 34.199219 30.15625 34.074219 C 30.15625 33.953125 30.113281 33.847656 30.027344 33.761719 C 29.941406 33.675781 29.835938 33.632812 29.714844 33.632812 L 24.761719 33.632812 C 24.640625 33.632812 24.535156 33.675781 24.449219 33.761719 C 24.363281 33.847656 24.320312 33.953125 24.320312 34.074219 C 24.320312 34.199219 24.363281 34.300781 24.449219 34.386719 C 24.535156 34.472656 24.640625 34.519531 24.761719 34.519531 Z M 24.761719 34.519531 " fill-opacity="1" fill-rule="nonzero"/><path fill="#2c74dd" d="M 24.761719 26.464844 L 32.871094 26.464844 C 32.992188 26.464844 33.097656 26.421875 33.183594 26.335938 C 33.269531 26.25 33.3125 26.144531 33.3125 26.023438 C 33.3125 25.898438 33.269531 25.796875 33.183594 25.710938 C 33.097656 25.625 32.992188 25.578125 32.871094 25.582031 L 24.761719 25.582031 C 24.640625 25.578125 24.535156 25.625 24.449219 25.710938 C 24.363281 25.796875 24.320312 25.898438 24.320312 26.023438 C 24.320312 26.144531 24.363281 26.25 24.449219 26.335938 C 24.535156 26.421875 24.640625 26.464844 24.761719 26.464844 Z M 24.761719 26.464844 " fill-opacity="1" fill-rule="nonzero"/><path fill="#2c74dd" d="M 18.214844 29.167969 L 20.664062 29.167969 C 20.789062 29.167969 20.890625 29.125 20.976562 29.039062 C 21.0625 28.949219 21.105469 28.847656 21.105469 28.726562 C 21.105469 28.601562 21.0625 28.5 20.976562 28.414062 C 20.890625 28.328125 20.789062 28.285156 20.664062 28.28125 L 18.214844 28.28125 C 18.175781 28.28125 18.152344 28.261719 18.152344 28.21875 L 18.152344 25.769531 C 18.152344 25.726562 18.175781 25.707031 18.214844 25.703125 L 20.664062 25.703125 C 20.789062 25.703125 20.890625 25.660156 20.980469 25.574219 C 21.066406 25.488281 21.109375 25.386719 21.109375 25.261719 C 21.109375 25.140625 21.066406 25.035156 20.980469 24.949219 C 20.890625 24.863281 20.789062 24.820312 20.664062 24.820312 L 18.214844 24.820312 C 17.953125 24.820312 17.730469 24.914062 17.546875 25.097656 C 17.359375 25.285156 17.269531 25.507812 17.265625 25.769531 L 17.265625 28.21875 C 17.269531 28.480469 17.359375 28.703125 17.546875 28.890625 C 17.730469 29.074219 17.953125 29.167969 18.214844 29.167969 Z M 18.214844 29.167969 " fill-opacity="1" fill-rule="nonzero"/><path fill="#2c74dd" d="M 19.671875 26.320312 C 19.566406 26.257812 19.457031 26.238281 19.335938 26.269531 C 19.21875 26.296875 19.128906 26.363281 19.0625 26.46875 C 19 26.570312 18.980469 26.683594 19.011719 26.800781 C 19.039062 26.921875 19.105469 27.011719 19.210938 27.074219 L 20.246094 27.707031 C 20.425781 27.820312 20.597656 27.808594 20.761719 27.667969 L 23.0625 25.726562 C 23.15625 25.648438 23.207031 25.546875 23.21875 25.425781 C 23.226562 25.304688 23.191406 25.199219 23.113281 25.105469 C 23.035156 25.011719 22.9375 24.960938 22.816406 24.949219 C 22.691406 24.9375 22.585938 24.972656 22.492188 25.050781 L 20.433594 26.789062 Z M 19.671875 26.320312 " fill-opacity="1" fill-rule="nonzero"/><path fill="#2c74dd" d="M 24.761719 28.429688 L 29.714844 28.429688 C 29.835938 28.429688 29.941406 28.386719 30.027344 28.296875 C 30.113281 28.210938 30.15625 28.109375 30.15625 27.984375 C 30.15625 27.863281 30.113281 27.757812 30.027344 27.671875 C 29.941406 27.585938 29.835938 27.542969 29.714844 27.542969 L 24.761719 27.542969 C 24.640625 27.542969 24.535156 27.585938 24.449219 27.671875 C 24.363281 27.757812 24.320312 27.863281 24.320312 27.984375 C 24.320312 28.109375 24.363281 28.210938 24.449219 28.296875 C 24.535156 28.386719 24.640625 28.429688 24.761719 28.429688 Z M 24.761719 28.429688 " fill-opacity="1" fill-rule="nonzero"/><path fill="#2c74dd" d="M 57.515625 40.578125 C 57.179688 40.246094 56.8125 39.953125 56.417969 39.695312 C 56.019531 39.4375 55.601562 39.21875 55.164062 39.042969 C 54.726562 38.867188 54.273438 38.734375 53.808594 38.648438 C 53.34375 38.558594 52.875 38.519531 52.402344 38.523438 C 51.929688 38.53125 51.460938 38.582031 51 38.679688 C 50.539062 38.773438 50.089844 38.917969 49.652344 39.101562 C 49.21875 39.289062 48.808594 39.511719 48.417969 39.78125 C 48.027344 40.046875 47.664062 40.347656 47.335938 40.6875 C 47.003906 41.023438 46.710938 41.390625 46.453125 41.789062 C 46.191406 42.183594 45.976562 42.601562 45.800781 43.039062 C 45.621094 43.476562 45.492188 43.929688 45.402344 44.394531 C 45.316406 44.859375 45.273438 45.328125 45.28125 45.800781 C 45.285156 46.273438 45.335938 46.742188 45.433594 47.203125 C 45.53125 47.664062 45.671875 48.113281 45.855469 48.550781 C 46.042969 48.984375 46.269531 49.398438 46.535156 49.789062 C 46.800781 50.175781 47.101562 50.539062 47.441406 50.867188 C 47.777344 51.199219 48.144531 51.496094 48.539062 51.753906 C 48.9375 52.011719 49.355469 52.230469 49.792969 52.40625 C 50.230469 52.582031 50.683594 52.714844 51.148438 52.800781 C 51.613281 52.890625 52.082031 52.929688 52.554688 52.925781 C 53.027344 52.921875 53.492188 52.871094 53.957031 52.773438 C 54.417969 52.675781 54.867188 52.535156 55.300781 52.351562 C 55.738281 52.164062 56.148438 51.941406 56.539062 51.671875 C 56.929688 51.40625 57.292969 51.105469 57.621094 50.765625 C 57.953125 50.429688 58.246094 50.0625 58.503906 49.664062 C 58.765625 49.269531 58.980469 48.851562 59.15625 48.414062 C 59.332031 47.972656 59.464844 47.523438 59.550781 47.058594 C 59.640625 46.59375 59.679688 46.125 59.675781 45.652344 C 59.671875 45.175781 59.621094 44.710938 59.523438 44.246094 C 59.425781 43.785156 59.285156 43.335938 59.101562 42.898438 C 58.914062 42.464844 58.6875 42.050781 58.421875 41.660156 C 58.15625 41.269531 57.855469 40.910156 57.515625 40.578125 Z M 48.050781 50.238281 C 47.605469 49.804688 47.234375 49.308594 46.933594 48.761719 C 46.632812 48.214844 46.417969 47.632812 46.289062 47.023438 C 46.160156 46.410156 46.125 45.792969 46.179688 45.171875 C 46.234375 44.546875 46.378906 43.945312 46.613281 43.367188 C 46.84375 42.789062 47.15625 42.253906 47.546875 41.765625 C 47.941406 41.28125 48.394531 40.859375 48.910156 40.507812 C 49.425781 40.15625 49.980469 39.882812 50.578125 39.695312 C 51.175781 39.507812 51.785156 39.410156 52.410156 39.40625 C 52.433594 39.40625 52.453125 39.40625 52.476562 39.40625 C 52.734375 39.40625 52.992188 39.421875 53.25 39.453125 C 53.503906 39.484375 53.757812 39.53125 54.007812 39.59375 C 54.257812 39.65625 54.503906 39.734375 54.746094 39.828125 C 54.988281 39.917969 55.222656 40.027344 55.449219 40.148438 C 55.675781 40.269531 55.894531 40.40625 56.105469 40.554688 C 56.316406 40.703125 56.519531 40.863281 56.710938 41.035156 C 56.902344 41.207031 57.082031 41.390625 57.253906 41.585938 C 57.421875 41.78125 57.578125 41.988281 57.722656 42.203125 C 57.867188 42.414062 57.996094 42.636719 58.113281 42.867188 C 58.230469 43.097656 58.332031 43.335938 58.417969 43.578125 C 58.507812 43.820312 58.578125 44.066406 58.636719 44.320312 C 58.695312 44.570312 58.734375 44.824219 58.761719 45.082031 C 58.789062 45.339844 58.800781 45.597656 58.792969 45.855469 C 58.789062 46.113281 58.765625 46.371094 58.730469 46.625 C 58.695312 46.878906 58.640625 47.132812 58.574219 47.382812 C 58.507812 47.632812 58.421875 47.875 58.324219 48.113281 C 58.230469 48.351562 58.117188 48.585938 57.992188 48.808594 C 57.863281 49.035156 57.726562 49.253906 57.574219 49.460938 C 57.421875 49.667969 57.253906 49.867188 57.078125 50.054688 C 56.902344 50.242188 56.714844 50.417969 56.515625 50.585938 C 56.316406 50.75 56.109375 50.902344 55.890625 51.042969 C 55.675781 51.179688 55.449219 51.308594 55.21875 51.417969 C 54.984375 51.53125 54.746094 51.628906 54.5 51.710938 C 54.257812 51.792969 54.007812 51.863281 53.753906 51.914062 C 53.503906 51.964844 53.246094 52.003906 52.992188 52.023438 C 52.734375 52.046875 52.476562 52.050781 52.21875 52.039062 C 51.960938 52.03125 51.703125 52.003906 51.449219 51.960938 C 51.195312 51.917969 50.941406 51.863281 50.695312 51.789062 C 50.449219 51.714844 50.207031 51.628906 49.96875 51.527344 C 49.730469 51.425781 49.5 51.308594 49.277344 51.175781 C 49.054688 51.046875 48.84375 50.902344 48.636719 50.746094 C 48.433594 50.589844 48.238281 50.421875 48.050781 50.238281 Z M 48.050781 50.238281 " fill-opacity="1" fill-rule="nonzero"/><g clip-path="url(#e4d26e5d16)"><path fill="#2c74dd" d="M 67.972656 57.703125 L 61.371094 51.238281 C 61.285156 51.148438 61.183594 51.109375 61.058594 51.113281 C 60.9375 51.113281 60.832031 51.160156 60.746094 51.246094 L 60.496094 51.503906 L 59.648438 50.671875 C 59.941406 50.253906 60.191406 49.8125 60.40625 49.347656 C 60.617188 48.886719 60.789062 48.40625 60.917969 47.914062 C 61.046875 47.417969 61.132812 46.917969 61.171875 46.410156 C 61.214844 45.902344 61.210938 45.394531 61.160156 44.886719 C 61.113281 44.378906 61.019531 43.878906 60.882812 43.386719 C 60.746094 42.894531 60.570312 42.417969 60.347656 41.957031 C 60.128906 41.496094 59.871094 41.058594 59.574219 40.644531 C 59.277344 40.230469 58.945312 39.84375 58.582031 39.488281 C 58.527344 39.4375 58.476562 39.386719 58.421875 39.339844 L 58.421875 28.941406 C 58.421875 28.820312 58.378906 28.714844 58.292969 28.628906 C 58.207031 28.542969 58.101562 28.5 57.980469 28.5 L 57.070312 28.5 L 57.070312 26.648438 C 57.371094 26.550781 57.613281 26.375 57.800781 26.117188 C 57.988281 25.859375 58.082031 25.574219 58.082031 25.257812 C 58.082031 24.9375 57.988281 24.652344 57.800781 24.394531 C 57.613281 24.136719 57.371094 23.960938 57.070312 23.863281 L 57.070312 23.769531 C 57.070312 23.421875 57 23.085938 56.867188 22.761719 C 56.734375 22.4375 56.542969 22.152344 56.296875 21.90625 C 56.050781 21.660156 55.765625 21.46875 55.441406 21.335938 C 55.117188 21.199219 54.78125 21.132812 54.433594 21.132812 L 17.046875 21.132812 C 16.699219 21.132812 16.363281 21.203125 16.039062 21.335938 C 15.714844 21.46875 15.433594 21.660156 15.183594 21.90625 C 14.9375 22.152344 14.75 22.4375 14.613281 22.761719 C 14.480469 23.085938 14.414062 23.421875 14.414062 23.769531 L 14.414062 46.140625 C 14.414062 46.488281 14.480469 46.824219 14.617188 47.148438 C 14.75 47.46875 14.941406 47.753906 15.1875 48 C 15.433594 48.246094 15.71875 48.4375 16.039062 48.570312 C 16.363281 48.707031 16.699219 48.773438 17.046875 48.773438 L 31.832031 48.773438 L 30.644531 52.59375 L 30.425781 52.59375 C 30.175781 52.59375 29.929688 52.640625 29.699219 52.738281 C 29.464844 52.835938 29.261719 52.972656 29.082031 53.152344 C 28.902344 53.328125 28.765625 53.535156 28.667969 53.769531 C 28.570312 54 28.523438 54.242188 28.523438 54.496094 L 28.523438 55.957031 C 28.523438 56.078125 28.566406 56.183594 28.652344 56.269531 C 28.738281 56.355469 28.84375 56.398438 28.964844 56.398438 L 42.515625 56.398438 C 42.640625 56.398438 42.742188 56.355469 42.832031 56.269531 C 42.917969 56.183594 42.960938 56.078125 42.960938 55.957031 L 42.960938 54.496094 C 42.960938 54.242188 42.910156 54 42.8125 53.769531 C 42.71875 53.535156 42.578125 53.328125 42.402344 53.152344 C 42.222656 52.972656 42.015625 52.835938 41.785156 52.738281 C 41.550781 52.640625 41.308594 52.59375 41.054688 52.59375 L 40.839844 52.59375 L 39.652344 48.773438 L 44.292969 48.773438 C 44.410156 49.085938 44.542969 49.394531 44.695312 49.691406 C 44.847656 49.988281 45.015625 50.277344 45.203125 50.554688 C 45.386719 50.835938 45.585938 51.101562 45.800781 51.359375 C 46.019531 51.613281 46.25 51.855469 46.492188 52.085938 C 46.734375 52.3125 46.992188 52.527344 47.261719 52.726562 C 47.53125 52.929688 47.808594 53.113281 48.097656 53.277344 C 48.386719 53.445312 48.6875 53.597656 48.992188 53.730469 C 49.300781 53.863281 49.613281 53.976562 49.933594 54.074219 C 50.253906 54.171875 50.578125 54.25 50.910156 54.308594 C 51.238281 54.371094 51.570312 54.410156 51.902344 54.429688 C 52.238281 54.453125 52.570312 54.453125 52.90625 54.4375 C 53.238281 54.421875 53.570312 54.382812 53.902344 54.328125 C 54.230469 54.273438 54.558594 54.199219 54.878906 54.105469 C 55.199219 54.011719 55.515625 53.902344 55.824219 53.773438 C 56.132812 53.644531 56.433594 53.496094 56.726562 53.332031 C 57.015625 53.167969 57.296875 52.988281 57.570312 52.792969 L 58.417969 53.625 L 58.167969 53.878906 C 58.082031 53.96875 58.039062 54.074219 58.039062 54.195312 C 58.042969 54.316406 58.085938 54.421875 58.171875 54.507812 L 64.773438 60.972656 C 65.039062 61.234375 65.359375 61.363281 65.730469 61.363281 C 65.738281 61.363281 65.742188 61.363281 65.746094 61.363281 C 66.125 61.359375 66.445312 61.222656 66.710938 60.949219 L 67.992188 59.640625 C 68.121094 59.511719 68.21875 59.363281 68.285156 59.195312 C 68.351562 59.027344 68.386719 58.851562 68.382812 58.667969 C 68.382812 58.488281 68.347656 58.3125 68.273438 58.144531 C 68.203125 57.980469 68.105469 57.832031 67.972656 57.703125 Z M 42.074219 54.496094 L 42.074219 55.515625 L 29.40625 55.515625 L 29.40625 54.496094 C 29.40625 54.359375 29.433594 54.230469 29.484375 54.105469 C 29.539062 53.980469 29.609375 53.871094 29.707031 53.777344 C 29.800781 53.679688 29.914062 53.605469 30.035156 53.554688 C 30.160156 53.503906 30.292969 53.476562 30.425781 53.476562 L 41.054688 53.476562 C 41.191406 53.476562 41.320312 53.503906 41.445312 53.554688 C 41.570312 53.605469 41.679688 53.679688 41.777344 53.777344 C 41.871094 53.871094 41.945312 53.980469 41.996094 54.105469 C 42.046875 54.230469 42.074219 54.359375 42.074219 54.496094 Z M 31.570312 52.59375 L 32.757812 48.773438 L 38.726562 48.773438 L 39.914062 52.59375 Z M 61.070312 52.179688 L 62.113281 53.203125 L 60.152344 55.207031 L 59.109375 54.183594 L 59.359375 53.929688 L 60.820312 52.4375 L 60.820312 52.433594 Z M 57.539062 29.382812 L 57.539062 38.617188 C 56.960938 38.199219 56.34375 37.863281 55.683594 37.601562 L 55.683594 29.382812 Z M 57.195312 25.257812 C 57.195312 25.390625 57.15625 25.511719 57.070312 25.613281 C 56.953125 25.765625 56.800781 25.839844 56.609375 25.839844 C 56.4375 25.839844 56.296875 25.777344 56.183594 25.648438 C 56.078125 25.539062 56.023438 25.410156 56.023438 25.257812 C 56.023438 25.105469 56.078125 24.972656 56.183594 24.863281 C 56.296875 24.734375 56.4375 24.671875 56.609375 24.671875 C 56.800781 24.671875 56.953125 24.746094 57.070312 24.898438 C 57.15625 25.003906 57.195312 25.121094 57.195312 25.257812 Z M 17.046875 22.019531 L 54.433594 22.019531 C 54.664062 22.019531 54.886719 22.0625 55.101562 22.152344 C 55.316406 22.242188 55.503906 22.367188 55.667969 22.53125 C 55.832031 22.695312 55.960938 22.886719 56.050781 23.101562 C 56.140625 23.316406 56.183594 23.539062 56.183594 23.769531 L 56.183594 23.847656 C 56.015625 23.898438 55.859375 23.976562 55.71875 24.085938 C 55.578125 24.191406 55.460938 24.320312 55.363281 24.46875 C 55.269531 24.617188 55.207031 24.78125 55.167969 24.953125 C 55.132812 25.125 55.128906 25.300781 55.15625 25.476562 L 52.882812 27 C 52.617188 26.800781 52.316406 26.707031 51.984375 26.710938 C 51.65625 26.71875 51.359375 26.824219 51.097656 27.027344 C 50.839844 27.234375 50.667969 27.5 50.589844 27.820312 C 50.507812 28.144531 50.53125 28.457031 50.664062 28.761719 L 48.320312 31.410156 C 48.179688 31.300781 48.023438 31.214844 47.851562 31.160156 C 47.683594 31.105469 47.507812 31.085938 47.328125 31.09375 C 47.148438 31.105469 46.976562 31.148438 46.8125 31.222656 C 46.648438 31.296875 46.503906 31.398438 46.375 31.527344 L 44.273438 30.53125 C 44.28125 30.476562 44.289062 30.425781 44.289062 30.371094 C 44.289062 30.175781 44.253906 29.988281 44.179688 29.808594 C 44.105469 29.628906 43.996094 29.46875 43.859375 29.332031 C 43.722656 29.195312 43.5625 29.085938 43.382812 29.011719 C 43.203125 28.9375 43.015625 28.902344 42.820312 28.902344 C 42.625 28.902344 42.4375 28.9375 42.257812 29.011719 C 42.078125 29.085938 41.917969 29.195312 41.78125 29.332031 C 41.644531 29.46875 41.539062 29.628906 41.460938 29.808594 C 41.386719 29.988281 41.351562 30.175781 41.351562 30.371094 C 41.351562 30.445312 41.359375 30.515625 41.371094 30.589844 L 39.34375 31.625 C 39.195312 31.449219 39.015625 31.316406 38.800781 31.222656 C 38.589844 31.132812 38.367188 31.097656 38.136719 31.113281 C 37.90625 31.128906 37.691406 31.191406 37.492188 31.308594 C 37.292969 31.425781 37.128906 31.582031 37.003906 31.777344 C 36.878906 31.96875 36.804688 32.179688 36.777344 32.410156 C 36.753906 32.640625 36.78125 32.863281 36.863281 33.078125 C 36.941406 33.296875 37.066406 33.484375 37.234375 33.640625 C 37.40625 33.796875 37.597656 33.910156 37.820312 33.972656 C 38.042969 34.039062 38.265625 34.050781 38.496094 34.007812 C 38.722656 33.96875 38.925781 33.878906 39.113281 33.738281 C 39.296875 33.597656 39.4375 33.425781 39.542969 33.21875 C 39.644531 33.011719 39.695312 32.792969 39.695312 32.5625 C 39.695312 32.523438 39.683594 32.484375 39.679688 32.445312 L 41.761719 31.382812 C 41.902344 31.535156 42.066406 31.648438 42.257812 31.726562 C 42.445312 31.808594 42.644531 31.84375 42.847656 31.839844 C 43.054688 31.835938 43.25 31.789062 43.4375 31.703125 C 43.621094 31.617188 43.78125 31.496094 43.917969 31.339844 L 45.972656 32.3125 C 45.929688 32.535156 45.941406 32.753906 46 32.972656 C 46.058594 33.1875 46.160156 33.382812 46.308594 33.550781 C 46.457031 33.722656 46.632812 33.851562 46.839844 33.9375 C 47.046875 34.027344 47.265625 34.066406 47.488281 34.054688 C 47.714844 34.042969 47.925781 33.984375 48.121094 33.875 C 48.320312 33.769531 48.484375 33.621094 48.613281 33.4375 C 48.746094 33.253906 48.828125 33.050781 48.867188 32.832031 C 48.902344 32.609375 48.890625 32.390625 48.828125 32.171875 L 51.253906 29.429688 C 51.484375 29.574219 51.738281 29.648438 52.015625 29.648438 C 52.207031 29.648438 52.394531 29.609375 52.574219 29.535156 C 52.757812 29.460938 52.914062 29.355469 53.054688 29.21875 C 53.191406 29.078125 53.296875 28.921875 53.371094 28.742188 C 53.445312 28.5625 53.484375 28.375 53.484375 28.179688 C 53.480469 28.019531 53.453125 27.867188 53.402344 27.71875 L 55.554688 26.273438 C 55.730469 26.457031 55.941406 26.589844 56.183594 26.664062 L 56.183594 28.5 L 55.242188 28.5 C 55.121094 28.5 55.015625 28.542969 54.929688 28.628906 C 54.84375 28.714844 54.800781 28.820312 54.800781 28.941406 L 54.800781 37.3125 C 54.480469 37.21875 54.15625 37.148438 53.828125 37.097656 L 53.828125 31.859375 C 53.824219 31.738281 53.78125 31.636719 53.695312 31.546875 C 53.609375 31.460938 53.503906 31.417969 53.382812 31.417969 L 50.644531 31.417969 C 50.523438 31.417969 50.417969 31.460938 50.332031 31.546875 C 50.246094 31.632812 50.203125 31.738281 50.203125 31.859375 L 50.203125 37.292969 C 49.871094 37.382812 49.546875 37.492188 49.230469 37.621094 L 49.230469 36.246094 C 49.230469 36.121094 49.1875 36.019531 49.101562 35.933594 C 49.011719 35.847656 48.910156 35.804688 48.789062 35.800781 L 46.050781 35.800781 C 45.925781 35.800781 45.824219 35.84375 45.734375 35.933594 C 45.648438 36.019531 45.605469 36.121094 45.605469 36.246094 L 45.605469 40.335938 C 44.738281 41.4375 44.171875 42.675781 43.90625 44.054688 L 15.300781 44.054688 L 15.300781 23.769531 C 15.300781 23.539062 15.34375 23.316406 15.433594 23.101562 C 15.519531 22.886719 15.648438 22.695312 15.8125 22.53125 C 15.976562 22.367188 16.164062 22.242188 16.378906 22.152344 C 16.59375 22.0625 16.816406 22.019531 17.046875 22.019531 Z M 51.429688 28.179688 C 51.429688 28.015625 51.484375 27.878906 51.601562 27.765625 C 51.714844 27.652344 51.851562 27.59375 52.015625 27.59375 C 52.175781 27.59375 52.3125 27.652344 52.429688 27.765625 C 52.542969 27.878906 52.597656 28.015625 52.597656 28.179688 C 52.597656 28.339844 52.542969 28.476562 52.425781 28.59375 C 52.3125 28.707031 52.175781 28.765625 52.015625 28.761719 C 51.851562 28.761719 51.714844 28.707031 51.601562 28.59375 C 51.484375 28.476562 51.429688 28.339844 51.429688 28.179688 Z M 47.417969 31.976562 C 47.578125 31.976562 47.714844 32.035156 47.832031 32.148438 C 47.945312 32.261719 48.003906 32.402344 48.003906 32.5625 C 48.003906 32.722656 47.945312 32.863281 47.832031 32.976562 C 47.71875 33.089844 47.578125 33.148438 47.417969 33.148438 C 47.253906 33.148438 47.117188 33.089844 47.003906 32.976562 C 46.890625 32.863281 46.832031 32.722656 46.832031 32.5625 C 46.832031 32.402344 46.890625 32.261719 47.003906 32.148438 C 47.117188 32.035156 47.253906 31.976562 47.417969 31.976562 Z M 42.234375 30.371094 C 42.234375 30.210938 42.292969 30.070312 42.40625 29.957031 C 42.519531 29.84375 42.660156 29.785156 42.820312 29.785156 C 42.980469 29.785156 43.121094 29.84375 43.234375 29.957031 C 43.347656 30.070312 43.40625 30.210938 43.40625 30.371094 C 43.40625 30.53125 43.347656 30.671875 43.234375 30.785156 C 43.121094 30.898438 42.980469 30.957031 42.820312 30.957031 C 42.660156 30.957031 42.519531 30.898438 42.40625 30.785156 C 42.292969 30.671875 42.234375 30.53125 42.234375 30.371094 Z M 38.808594 32.5625 C 38.808594 32.722656 38.75 32.863281 38.636719 32.976562 C 38.523438 33.089844 38.386719 33.148438 38.222656 33.148438 C 38.0625 33.148438 37.925781 33.089844 37.808594 32.976562 C 37.695312 32.863281 37.636719 32.722656 37.636719 32.5625 C 37.636719 32.402344 37.695312 32.261719 37.808594 32.148438 C 37.925781 32.035156 38.0625 31.976562 38.222656 31.976562 C 38.386719 31.976562 38.523438 32.035156 38.636719 32.148438 C 38.75 32.261719 38.808594 32.402344 38.808594 32.5625 Z M 52.941406 37.007812 C 52.753906 36.996094 52.570312 36.992188 52.382812 36.996094 C 51.949219 37 51.515625 37.039062 51.085938 37.109375 L 51.085938 32.304688 L 52.941406 32.304688 Z M 48.34375 38.03125 C 47.667969 38.394531 47.050781 38.839844 46.492188 39.367188 L 46.492188 36.6875 L 48.34375 36.6875 Z M 17.046875 47.886719 C 16.816406 47.886719 16.59375 47.84375 16.378906 47.753906 C 16.164062 47.667969 15.976562 47.539062 15.8125 47.375 C 15.648438 47.210938 15.519531 47.023438 15.433594 46.808594 C 15.34375 46.59375 15.300781 46.371094 15.300781 46.140625 L 15.300781 44.9375 L 43.785156 44.9375 C 43.757812 45.230469 43.746094 45.523438 43.75 45.816406 C 43.753906 46.519531 43.84375 47.210938 44.019531 47.886719 Z M 46.988281 51.332031 C 45.996094 50.367188 45.3125 49.21875 44.933594 47.886719 C 44.742188 47.207031 44.640625 46.515625 44.632812 45.808594 C 44.628906 45.519531 44.640625 45.226562 44.667969 44.9375 C 44.699219 44.640625 44.746094 44.34375 44.808594 44.054688 C 44.996094 43.203125 45.316406 42.40625 45.765625 41.664062 C 45.980469 41.308594 46.222656 40.972656 46.492188 40.65625 C 46.609375 40.507812 46.738281 40.371094 46.871094 40.234375 C 47.316406 39.78125 47.804688 39.386719 48.34375 39.054688 C 48.628906 38.875 48.925781 38.71875 49.230469 38.582031 C 49.824219 38.308594 50.445312 38.117188 51.085938 38.003906 C 51.519531 37.929688 51.953125 37.886719 52.394531 37.882812 L 52.476562 37.882812 C 52.632812 37.882812 52.785156 37.886719 52.941406 37.894531 C 53.574219 37.9375 54.191406 38.050781 54.800781 38.230469 C 55.015625 38.296875 55.230469 38.371094 55.441406 38.460938 C 55.523438 38.496094 55.605469 38.527344 55.683594 38.566406 C 56.359375 38.867188 56.976562 39.257812 57.539062 39.738281 C 57.6875 39.859375 57.828125 39.988281 57.960938 40.121094 C 58.125 40.28125 58.277344 40.441406 58.421875 40.609375 C 58.710938 40.949219 58.972656 41.308594 59.199219 41.691406 C 59.429688 42.074219 59.621094 42.46875 59.785156 42.886719 C 59.945312 43.300781 60.070312 43.726562 60.15625 44.160156 C 60.246094 44.597656 60.296875 45.039062 60.308594 45.484375 C 60.324219 45.925781 60.300781 46.371094 60.238281 46.8125 C 60.175781 47.25 60.078125 47.683594 59.941406 48.105469 C 59.804688 48.53125 59.636719 48.941406 59.429688 49.335938 C 59.226562 49.730469 58.988281 50.105469 58.722656 50.460938 L 58.71875 50.460938 C 58.519531 50.726562 58.308594 50.976562 58.078125 51.210938 C 57.933594 51.355469 57.785156 51.492188 57.636719 51.621094 C 57.539062 51.707031 57.441406 51.789062 57.339844 51.871094 C 56.96875 52.164062 56.574219 52.421875 56.15625 52.644531 C 55.738281 52.867188 55.304688 53.050781 54.851562 53.195312 C 54.402344 53.335938 53.941406 53.441406 53.472656 53.5 C 53.003906 53.5625 52.535156 53.578125 52.0625 53.554688 C 51.589844 53.53125 51.121094 53.460938 50.660156 53.355469 C 50.203125 53.246094 49.753906 53.09375 49.320312 52.90625 C 48.886719 52.714844 48.476562 52.488281 48.082031 52.222656 C 47.691406 51.957031 47.324219 51.660156 46.988281 51.332031 Z M 58.273438 52.242188 C 58.277344 52.238281 58.285156 52.230469 58.292969 52.226562 C 58.433594 52.097656 58.574219 51.96875 58.710938 51.828125 C 58.847656 51.691406 58.976562 51.546875 59.101562 51.398438 L 59.113281 51.386719 L 59.878906 52.132812 L 59.035156 52.992188 Z M 67.363281 59.023438 L 66.078125 60.332031 C 65.984375 60.429688 65.871094 60.476562 65.738281 60.476562 C 65.605469 60.472656 65.492188 60.429688 65.394531 60.339844 L 60.785156 55.824219 L 62.746094 53.824219 L 67.355469 58.335938 C 67.449219 58.429688 67.5 58.542969 67.5 58.679688 C 67.5 58.8125 67.453125 58.925781 67.363281 59.023438 Z M 67.363281 59.023438 " fill-opacity="1" fill-rule="nonzero"/></g><path fill="#2c74dd" d="M 55.054688 43.277344 L 51.722656 47.824219 L 49.78125 46.546875 C 49.679688 46.480469 49.566406 46.460938 49.449219 46.484375 C 49.328125 46.507812 49.234375 46.574219 49.167969 46.675781 C 49.101562 46.777344 49.078125 46.886719 49.105469 47.007812 C 49.128906 47.125 49.191406 47.21875 49.292969 47.285156 L 51.589844 48.792969 C 51.6875 48.859375 51.792969 48.882812 51.910156 48.859375 C 52.027344 48.839844 52.121094 48.78125 52.1875 48.6875 L 55.769531 43.800781 C 55.84375 43.699219 55.871094 43.589844 55.851562 43.46875 C 55.832031 43.347656 55.773438 43.253906 55.675781 43.179688 C 55.578125 43.109375 55.464844 43.082031 55.347656 43.101562 C 55.226562 43.117188 55.128906 43.175781 55.054688 43.277344 Z M 55.054688 43.277344 " fill-opacity="1" fill-rule="nonzero"/></svg>