<svg xmlns="http://www.w3.org/2000/svg" xmlns:xlink="http://www.w3.org/1999/xlink" width="100" zoomAndPan="magnify" viewBox="0 0 75 74.999997" height="100" preserveAspectRatio="xMidYMid meet" version="1.0"><defs><clipPath id="baf637b5f0"><path d="M 27 61 L 48 61 L 48 66.75 L 27 66.75 Z M 27 61 " clip-rule="nonzero"/></clipPath><clipPath id="84027ce83f"><path d="M 23 8.25 L 52 8.25 L 52 38 L 23 38 Z M 23 8.25 " clip-rule="nonzero"/></clipPath></defs><path fill="#2c74dd" d="M 57.914062 45.921875 C 57.570312 45.921875 57.332031 45.683594 57.332031 45.375 L 57.332031 21.355469 L 47.964844 21.355469 C 47.65625 21.355469 47.382812 21.082031 47.382812 20.773438 C 47.382812 20.464844 47.65625 20.191406 47.964844 20.191406 L 57.914062 20.191406 C 58.222656 20.191406 58.464844 20.464844 58.464844 20.773438 L 58.464844 45.375 C 58.464844 45.683594 58.222656 45.921875 57.914062 45.921875 Z M 17.085938 45.921875 C 16.777344 45.921875 16.5 45.683594 16.5 45.375 L 16.5 20.773438 C 16.5 20.464844 16.777344 20.191406 17.085938 20.191406 L 27.070312 20.191406 C 27.378906 20.191406 27.652344 20.464844 27.652344 20.773438 C 27.652344 21.082031 27.378906 21.355469 27.070312 21.355469 L 17.667969 21.355469 L 17.667969 45.375 C 17.667969 45.683594 17.394531 45.921875 17.085938 45.921875 Z M 17.085938 45.921875 " fill-opacity="1" fill-rule="evenodd"/><path fill="#2c74dd" d="M 60.726562 45.921875 C 60.386719 45.921875 60.144531 45.683594 60.144531 45.375 L 60.144531 21.183594 C 60.144531 19.605469 58.875 18.335938 57.296875 18.335938 L 50.8125 18.335938 C 50.46875 18.335938 50.230469 18.0625 50.230469 17.753906 C 50.230469 17.445312 50.46875 17.171875 50.8125 17.171875 L 57.296875 17.171875 C 59.492188 17.171875 61.277344 18.988281 61.277344 21.183594 L 61.277344 45.375 C 61.277344 45.683594 61.039062 45.921875 60.726562 45.921875 Z M 14.304688 45.921875 C 13.996094 45.921875 13.722656 45.683594 13.722656 45.375 L 13.722656 21.183594 C 13.722656 18.988281 15.542969 17.171875 17.738281 17.171875 L 24.222656 17.171875 C 24.53125 17.171875 24.804688 17.445312 24.804688 17.753906 C 24.804688 18.0625 24.53125 18.335938 24.222656 18.335938 L 17.738281 18.335938 C 16.160156 18.335938 14.890625 19.605469 14.890625 21.183594 L 14.890625 45.375 C 14.890625 45.683594 14.613281 45.921875 14.304688 45.921875 Z M 14.304688 45.921875 " fill-opacity="1" fill-rule="evenodd"/><path fill="#2c74dd" d="M 57.539062 52.339844 L 17.496094 52.339844 C 15.4375 52.339844 13.722656 50.660156 13.722656 48.566406 L 13.722656 45.375 C 13.722656 45.066406 13.996094 44.792969 14.304688 44.792969 L 60.726562 44.792969 C 61.039062 44.792969 61.277344 45.066406 61.277344 45.375 L 61.277344 48.566406 C 61.277344 50.660156 59.597656 52.339844 57.539062 52.339844 Z M 14.890625 45.921875 L 14.890625 48.566406 C 14.890625 50.007812 16.054688 51.207031 17.496094 51.207031 L 57.539062 51.207031 C 58.980469 51.207031 60.144531 50.007812 60.144531 48.566406 L 60.144531 45.921875 Z M 14.890625 45.921875 " fill-opacity="1" fill-rule="evenodd"/><path fill="#2c74dd" d="M 41.960938 56.183594 L 33.074219 56.183594 C 30.808594 56.183594 28.957031 54.363281 28.957031 52.097656 L 28.957031 51.789062 C 28.957031 51.449219 29.230469 51.207031 29.539062 51.207031 C 29.847656 51.207031 30.125 51.449219 30.125 51.789062 L 30.125 52.097656 C 30.125 53.710938 31.425781 55.050781 33.074219 55.050781 L 41.960938 55.050781 C 43.574219 55.050781 44.875 53.710938 44.875 52.097656 L 44.875 51.789062 C 44.875 51.449219 45.152344 51.207031 45.460938 51.207031 C 45.769531 51.207031 46.007812 51.449219 46.007812 51.789062 L 46.007812 52.097656 C 46.007812 54.363281 44.191406 56.183594 41.960938 56.183594 Z M 41.960938 56.183594 " fill-opacity="1" fill-rule="evenodd"/><g clip-path="url(#baf637b5f0)"><path fill="#2c74dd" d="M 46.730469 66.75 L 28.304688 66.75 C 27.996094 66.75 27.722656 66.511719 27.722656 66.167969 L 27.722656 65.789062 C 27.722656 63.25 29.8125 61.15625 32.386719 61.15625 L 42.648438 61.15625 C 45.21875 61.15625 47.277344 63.25 47.277344 65.789062 L 47.277344 66.167969 C 47.277344 66.511719 47.039062 66.75 46.730469 66.75 Z M 28.886719 65.617188 L 46.144531 65.617188 C 46.042969 63.765625 44.5 62.289062 42.648438 62.289062 L 32.386719 62.289062 C 30.5 62.289062 28.992188 63.765625 28.886719 65.617188 Z M 28.886719 65.617188 " fill-opacity="1" fill-rule="evenodd"/></g><path fill="#2c74dd" d="M 33.246094 62.289062 C 33.140625 62.289062 33.039062 62.289062 32.972656 62.222656 C 32.695312 62.082031 32.59375 61.742188 32.730469 61.433594 C 34.378906 58.515625 32.628906 55.976562 32.59375 55.941406 C 32.421875 55.703125 32.492188 55.324219 32.730469 55.152344 C 33.003906 54.980469 33.347656 55.015625 33.519531 55.289062 C 33.621094 55.425781 35.714844 58.445312 33.726562 62.015625 C 33.621094 62.1875 33.453125 62.289062 33.246094 62.289062 Z M 33.246094 62.289062 " fill-opacity="1" fill-rule="evenodd"/><path fill="#2c74dd" d="M 41.753906 62.289062 C 41.546875 62.289062 41.34375 62.1875 41.238281 62.015625 C 39.285156 58.445312 41.410156 55.425781 41.480469 55.289062 C 41.6875 55.015625 42.027344 54.980469 42.304688 55.152344 C 42.542969 55.324219 42.613281 55.703125 42.40625 55.941406 C 42.335938 56.046875 40.621094 58.515625 42.234375 61.433594 C 42.40625 61.742188 42.304688 62.082031 42.027344 62.222656 C 41.925781 62.289062 41.859375 62.289062 41.753906 62.289062 Z M 41.753906 62.289062 " fill-opacity="1" fill-rule="evenodd"/><path fill="#2c74dd" d="M 37.5 50.28125 C 36.539062 50.28125 35.785156 49.527344 35.785156 48.566406 C 35.785156 47.605469 36.539062 46.851562 37.5 46.851562 C 38.460938 46.851562 39.214844 47.605469 39.214844 48.566406 C 39.214844 49.527344 38.460938 50.28125 37.5 50.28125 Z M 37.5 47.980469 C 37.191406 47.980469 36.949219 48.257812 36.949219 48.566406 C 36.949219 48.875 37.191406 49.148438 37.5 49.148438 C 37.84375 49.148438 38.082031 48.875 38.082031 48.566406 C 38.082031 48.257812 37.808594 47.980469 37.5 47.980469 Z M 37.5 47.980469 " fill-opacity="1" fill-rule="evenodd"/><path fill="#2c74dd" d="M 18.25 49.113281 L 17.769531 49.113281 C 17.460938 49.113281 17.1875 48.875 17.1875 48.566406 C 17.1875 48.222656 17.460938 47.980469 17.769531 47.980469 L 18.25 47.980469 C 18.558594 47.980469 18.835938 48.222656 18.835938 48.566406 C 18.835938 48.875 18.558594 49.113281 18.25 49.113281 Z M 18.25 49.113281 " fill-opacity="1" fill-rule="evenodd"/><path fill="#2c74dd" d="M 20.722656 49.113281 L 20.242188 49.113281 C 19.933594 49.113281 19.660156 48.875 19.660156 48.566406 C 19.660156 48.222656 19.933594 47.980469 20.242188 47.980469 L 20.722656 47.980469 C 21.03125 47.980469 21.304688 48.222656 21.304688 48.566406 C 21.304688 48.875 21.03125 49.113281 20.722656 49.113281 Z M 20.722656 49.113281 " fill-opacity="1" fill-rule="evenodd"/><path fill="#2c74dd" d="M 23.226562 49.113281 L 22.710938 49.113281 C 22.402344 49.113281 22.128906 48.875 22.128906 48.566406 C 22.128906 48.222656 22.402344 47.980469 22.710938 47.980469 L 23.226562 47.980469 C 23.535156 47.980469 23.808594 48.222656 23.808594 48.566406 C 23.808594 48.875 23.535156 49.113281 23.226562 49.113281 Z M 23.226562 49.113281 " fill-opacity="1" fill-rule="evenodd"/><path fill="#2c74dd" d="M 57.261719 49.113281 L 53.796875 49.113281 C 53.453125 49.113281 53.214844 48.875 53.214844 48.566406 C 53.214844 48.222656 53.453125 47.980469 53.796875 47.980469 L 57.261719 47.980469 C 57.570312 47.980469 57.8125 48.222656 57.8125 48.566406 C 57.8125 48.875 57.570312 49.113281 57.261719 49.113281 Z M 57.261719 49.113281 " fill-opacity="1" fill-rule="evenodd"/><g clip-path="url(#84027ce83f)"><path fill="#2c74dd" d="M 39.320312 37.65625 L 35.714844 37.65625 C 34.550781 37.65625 33.589844 36.695312 33.589844 35.527344 L 33.589844 32.988281 C 32.628906 32.609375 31.667969 32.027344 30.773438 31.339844 L 28.542969 32.609375 C 28.234375 32.816406 27.859375 32.886719 27.515625 32.886719 C 26.761719 32.886719 26.039062 32.507812 25.664062 31.855469 L 23.878906 28.734375 C 23.878906 28.734375 23.84375 28.734375 23.84375 28.734375 C 23.296875 27.703125 23.636719 26.402344 24.667969 25.816406 L 26.863281 24.546875 C 26.761719 24 26.726562 23.449219 26.726562 22.933594 C 26.726562 22.421875 26.761719 21.871094 26.863281 21.324219 L 24.667969 20.019531 C 23.636719 19.433594 23.296875 18.164062 23.84375 17.136719 C 23.84375 17.136719 23.878906 17.136719 23.878906 17.136719 L 25.695312 14.015625 C 26.039062 13.363281 26.761719 12.949219 27.515625 12.949219 C 27.894531 12.949219 28.234375 13.054688 28.542969 13.257812 L 30.773438 14.527344 C 31.632812 13.84375 32.558594 13.292969 33.589844 12.882812 L 33.589844 10.34375 C 33.589844 9.175781 34.550781 8.25 35.714844 8.25 L 39.320312 8.25 C 40.484375 8.25 41.410156 9.175781 41.410156 10.34375 L 41.410156 12.882812 C 42.476562 13.292969 43.402344 13.84375 44.257812 14.527344 L 46.457031 13.257812 C 46.765625 13.054688 47.140625 12.949219 47.519531 12.949219 C 48.273438 12.949219 48.960938 13.363281 49.335938 14.015625 L 51.15625 17.136719 C 51.738281 18.164062 51.363281 19.433594 50.367188 20.019531 L 48.171875 21.324219 C 48.238281 21.871094 48.273438 22.421875 48.273438 22.933594 C 48.273438 23.449219 48.238281 24 48.171875 24.546875 L 50.367188 25.816406 C 51.363281 26.402344 51.738281 27.703125 51.15625 28.734375 L 49.335938 31.855469 C 48.992188 32.507812 48.273438 32.886719 47.519531 32.886719 C 47.140625 32.886719 46.796875 32.816406 46.457031 32.609375 L 44.257812 31.339844 C 43.402344 32.027344 42.476562 32.578125 41.410156 32.988281 L 41.410156 35.527344 C 41.410156 36.695312 40.484375 37.65625 39.320312 37.65625 Z M 30.84375 30.070312 C 30.980469 30.070312 31.117188 30.140625 31.222656 30.207031 C 32.183594 31.03125 33.246094 31.648438 34.34375 32.027344 C 34.582031 32.097656 34.753906 32.335938 34.753906 32.578125 L 34.753906 35.527344 C 34.753906 36.074219 35.167969 36.488281 35.714844 36.488281 L 39.320312 36.488281 C 39.867188 36.488281 40.277344 36.074219 40.277344 35.527344 L 40.277344 32.578125 C 40.277344 32.335938 40.449219 32.097656 40.691406 32.027344 C 41.859375 31.648438 42.886719 31.03125 43.8125 30.207031 C 43.984375 30.070312 44.257812 30.039062 44.464844 30.140625 L 47.039062 31.617188 C 47.175781 31.71875 47.347656 31.753906 47.519531 31.753906 C 47.863281 31.753906 48.171875 31.582031 48.34375 31.308594 L 50.160156 28.183594 C 50.433594 27.671875 50.261719 27.085938 49.816406 26.847656 C 49.816406 26.847656 49.785156 26.8125 49.785156 26.8125 L 47.246094 25.335938 C 47.039062 25.234375 46.933594 24.992188 46.96875 24.753906 C 47.074219 24.101562 47.140625 23.484375 47.140625 22.933594 C 47.140625 22.386719 47.074219 21.769531 46.96875 21.117188 C 46.933594 20.875 47.039062 20.636719 47.246094 20.535156 L 49.785156 19.058594 C 50.261719 18.75 50.433594 18.199219 50.160156 17.683594 L 48.34375 14.5625 C 48.171875 14.289062 47.863281 14.082031 47.519531 14.082031 C 47.347656 14.082031 47.210938 14.152344 47.074219 14.21875 C 47.039062 14.21875 47.039062 14.21875 47.039062 14.253906 L 44.464844 15.730469 C 44.257812 15.832031 43.984375 15.796875 43.8125 15.660156 C 42.886719 14.835938 41.859375 14.21875 40.691406 13.84375 C 40.449219 13.773438 40.277344 13.535156 40.277344 13.292969 L 40.277344 10.34375 C 40.277344 9.792969 39.867188 9.382812 39.320312 9.382812 L 35.714844 9.382812 C 35.167969 9.382812 34.753906 9.792969 34.753906 10.34375 L 34.753906 13.292969 C 34.753906 13.535156 34.582031 13.773438 34.34375 13.84375 C 33.175781 14.21875 32.113281 14.835938 31.222656 15.660156 C 31.050781 15.796875 30.773438 15.832031 30.570312 15.730469 L 27.996094 14.253906 C 27.960938 14.21875 27.960938 14.21875 27.960938 14.21875 C 27.824219 14.152344 27.652344 14.082031 27.515625 14.082031 C 27.171875 14.082031 26.828125 14.289062 26.65625 14.5625 L 24.875 17.683594 C 24.597656 18.199219 24.769531 18.75 25.214844 19.058594 L 27.753906 20.535156 C 27.960938 20.636719 28.097656 20.875 28.03125 21.117188 C 27.925781 21.769531 27.894531 22.386719 27.894531 22.933594 C 27.894531 23.484375 27.925781 24.101562 28.03125 24.753906 C 28.097656 24.992188 27.960938 25.234375 27.753906 25.335938 L 25.214844 26.8125 C 25.214844 26.8125 25.214844 26.847656 25.214844 26.847656 C 24.738281 27.085938 24.597656 27.671875 24.875 28.183594 L 26.65625 31.308594 C 26.828125 31.582031 27.136719 31.753906 27.515625 31.753906 C 27.6875 31.753906 27.824219 31.71875 27.996094 31.617188 L 30.570312 30.140625 C 30.636719 30.105469 30.742188 30.070312 30.84375 30.070312 Z M 30.84375 30.070312 " fill-opacity="1" fill-rule="evenodd"/></g><path fill="#2c74dd" d="M 37.5 31.03125 C 33.039062 31.03125 29.402344 27.394531 29.402344 22.933594 C 29.402344 18.476562 33.039062 14.835938 37.5 14.835938 C 41.960938 14.835938 45.5625 18.476562 45.5625 22.933594 C 45.5625 27.394531 41.960938 31.03125 37.5 31.03125 Z M 37.5 16.003906 C 33.65625 16.003906 30.570312 19.09375 30.570312 22.933594 C 30.570312 26.777344 33.65625 29.867188 37.5 29.867188 C 41.308594 29.867188 44.429688 26.777344 44.429688 22.933594 C 44.429688 19.09375 41.308594 16.003906 37.5 16.003906 Z M 37.5 16.003906 " fill-opacity="1" fill-rule="evenodd"/><path fill="#2c74dd" d="M 37.5 28.289062 C 37.398438 28.289062 37.292969 28.253906 37.191406 28.183594 L 33.074219 25.78125 C 32.902344 25.679688 32.800781 25.507812 32.800781 25.300781 L 32.800781 20.566406 C 32.800781 20.363281 32.902344 20.191406 33.074219 20.085938 L 37.191406 17.683594 C 37.398438 17.582031 37.601562 17.582031 37.773438 17.683594 L 41.890625 20.085938 C 42.0625 20.191406 42.167969 20.363281 42.167969 20.566406 L 42.167969 25.300781 C 42.167969 25.507812 42.0625 25.679688 41.890625 25.78125 L 37.773438 28.183594 C 37.707031 28.253906 37.601562 28.289062 37.5 28.289062 Z M 33.964844 24.960938 L 37.5 27.050781 L 41.035156 24.960938 L 41.035156 20.910156 L 37.5 18.816406 L 33.964844 20.910156 Z M 33.964844 24.960938 " fill-opacity="1" fill-rule="evenodd"/><path fill="#2c74dd" d="M 37.5 28.289062 C 37.191406 28.289062 36.917969 28.011719 36.917969 27.703125 L 36.917969 23.277344 L 33.109375 21.046875 C 32.832031 20.910156 32.730469 20.566406 32.867188 20.292969 C 33.039062 20.019531 33.382812 19.914062 33.65625 20.085938 L 37.773438 22.453125 C 37.945312 22.558594 38.082031 22.730469 38.082031 22.933594 L 38.082031 27.703125 C 38.082031 28.011719 37.808594 28.289062 37.5 28.289062 Z M 37.5 28.289062 " fill-opacity="1" fill-rule="evenodd"/><path fill="#2c74dd" d="M 37.5 23.519531 C 37.292969 23.519531 37.089844 23.414062 36.984375 23.210938 C 36.847656 22.933594 36.949219 22.59375 37.226562 22.453125 L 41.308594 20.085938 C 41.582031 19.914062 41.960938 20.019531 42.097656 20.292969 C 42.269531 20.566406 42.167969 20.910156 41.890625 21.046875 L 37.773438 23.414062 C 37.707031 23.484375 37.601562 23.519531 37.5 23.519531 Z M 37.5 23.519531 " fill-opacity="1" fill-rule="evenodd"/><path fill="#2c74dd" d="M 21.375 37.824219 C 21.066406 37.824219 20.789062 37.550781 20.789062 37.242188 L 20.789062 33.023438 C 20.789062 31.582031 21.957031 30.414062 23.398438 30.414062 L 25.835938 30.414062 C 26.144531 30.414062 26.417969 30.6875 26.417969 31 C 26.417969 31.308594 26.144531 31.582031 25.835938 31.582031 L 23.398438 31.582031 C 22.609375 31.582031 21.957031 32.234375 21.957031 33.023438 L 21.957031 37.242188 C 21.957031 37.550781 21.683594 37.824219 21.375 37.824219 Z M 21.375 37.824219 " fill-opacity="1" fill-rule="evenodd"/><path fill="#2c74dd" d="M 53.625 37.824219 C 53.28125 37.824219 53.042969 37.550781 53.042969 37.242188 L 53.042969 33.023438 C 53.042969 32.199219 52.425781 31.582031 51.636719 31.582031 L 49.199219 31.582031 C 48.855469 31.582031 48.617188 31.308594 48.617188 31 C 48.617188 30.6875 48.855469 30.414062 49.199219 30.414062 L 51.636719 30.414062 C 53.042969 30.414062 54.175781 31.582031 54.175781 33.023438 L 54.175781 37.242188 C 54.175781 37.550781 53.933594 37.824219 53.625 37.824219 Z M 53.625 37.824219 " fill-opacity="1" fill-rule="evenodd"/><path fill="#2c74dd" d="M 37.5 39.851562 C 37.191406 39.851562 36.917969 39.609375 36.917969 39.300781 L 36.917969 37.070312 C 36.917969 36.761719 37.191406 36.488281 37.5 36.488281 C 37.808594 36.488281 38.082031 36.761719 38.082031 37.070312 L 38.082031 39.300781 C 38.082031 39.609375 37.808594 39.851562 37.5 39.851562 Z M 37.5 39.851562 " fill-opacity="1" fill-rule="evenodd"/><path fill="#2c74dd" d="M 21.375 41.53125 C 20.035156 41.53125 18.9375 40.46875 18.9375 39.128906 C 18.9375 37.757812 20.035156 36.660156 21.375 36.660156 C 22.746094 36.660156 23.84375 37.757812 23.84375 39.128906 C 23.84375 40.46875 22.746094 41.53125 21.375 41.53125 Z M 21.375 37.824219 C 20.652344 37.824219 20.105469 38.410156 20.105469 39.128906 C 20.105469 39.851562 20.652344 40.398438 21.375 40.398438 C 22.09375 40.398438 22.675781 39.816406 22.675781 39.128906 C 22.675781 38.410156 22.09375 37.824219 21.375 37.824219 Z M 21.375 37.824219 " fill-opacity="1" fill-rule="evenodd"/><path fill="#2c74dd" d="M 37.5 43.589844 C 36.128906 43.589844 35.0625 42.527344 35.0625 41.152344 C 35.0625 39.816406 36.160156 38.71875 37.5 38.71875 C 38.871094 38.71875 39.9375 39.78125 39.9375 41.152344 C 39.9375 42.527344 38.871094 43.589844 37.5 43.589844 Z M 37.5 39.851562 C 36.78125 39.851562 36.230469 40.433594 36.230469 41.152344 C 36.230469 41.875 36.78125 42.457031 37.5 42.457031 C 38.253906 42.457031 38.804688 41.910156 38.804688 41.152344 C 38.804688 40.433594 38.21875 39.851562 37.5 39.851562 Z M 37.5 39.851562 " fill-opacity="1" fill-rule="evenodd"/><path fill="#2c74dd" d="M 53.625 41.53125 C 52.289062 41.53125 51.191406 40.46875 51.191406 39.128906 C 51.191406 37.757812 52.289062 36.660156 53.625 36.660156 C 54.964844 36.660156 56.0625 37.757812 56.0625 39.128906 C 56.0625 40.46875 55 41.53125 53.625 41.53125 Z M 53.625 37.824219 C 52.90625 37.824219 52.324219 38.410156 52.324219 39.128906 C 52.324219 39.851562 52.90625 40.398438 53.625 40.398438 C 54.347656 40.398438 54.929688 39.851562 54.929688 39.128906 C 54.929688 38.410156 54.347656 37.824219 53.625 37.824219 Z M 53.625 37.824219 " fill-opacity="1" fill-rule="evenodd"/><path fill="#2c74dd" d="M 21.75 23.792969 L 19.28125 23.792969 C 18.972656 23.792969 18.699219 23.519531 18.699219 23.210938 C 18.699219 22.902344 18.972656 22.625 19.28125 22.625 L 21.75 22.625 C 22.058594 22.625 22.335938 22.902344 22.335938 23.210938 C 22.335938 23.519531 22.058594 23.792969 21.75 23.792969 Z M 21.75 23.792969 " fill-opacity="1" fill-rule="evenodd"/><path fill="#2c74dd" d="M 23.125 25.75 L 19.28125 25.75 C 18.972656 25.75 18.699219 25.472656 18.699219 25.164062 C 18.699219 24.855469 18.972656 24.582031 19.28125 24.582031 L 23.125 24.582031 C 23.433594 24.582031 23.707031 24.855469 23.707031 25.164062 C 23.707031 25.472656 23.433594 25.75 23.125 25.75 Z M 23.125 25.75 " fill-opacity="1" fill-rule="evenodd"/><path fill="#2c74dd" d="M 55.753906 23.792969 L 53.28125 23.792969 C 52.941406 23.792969 52.699219 23.519531 52.699219 23.210938 C 52.699219 22.902344 52.941406 22.625 53.28125 22.625 L 55.753906 22.625 C 56.0625 22.625 56.300781 22.902344 56.300781 23.210938 C 56.300781 23.519531 56.0625 23.792969 55.753906 23.792969 Z M 55.753906 23.792969 " fill-opacity="1" fill-rule="evenodd"/><path fill="#2c74dd" d="M 55.753906 25.75 L 51.875 25.75 C 51.53125 25.75 51.292969 25.472656 51.292969 25.164062 C 51.292969 24.855469 51.53125 24.582031 51.875 24.582031 L 55.753906 24.582031 C 56.0625 24.582031 56.300781 24.855469 56.300781 25.164062 C 56.300781 25.472656 56.0625 25.75 55.753906 25.75 Z M 55.753906 25.75 " fill-opacity="1" fill-rule="evenodd"/></svg>