<svg xmlns="http://www.w3.org/2000/svg" xmlns:xlink="http://www.w3.org/1999/xlink" width="100" zoomAndPan="magnify" viewBox="0 0 75 74.999997" height="100" preserveAspectRatio="xMidYMid meet" version="1.0"><defs><clipPath id="753b67f5da"><path d="M 12.902344 10.054688 L 62.402344 10.054688 L 62.402344 64.804688 L 12.902344 64.804688 Z M 12.902344 10.054688 " clip-rule="nonzero"/></clipPath></defs><g clip-path="url(#753b67f5da)"><path fill="#2c74dd" d="M 50.839844 10.472656 C 50.566406 10.199219 50.21875 10.054688 49.832031 10.054688 L 42.273438 10.054688 C 41.464844 10.054688 40.804688 10.714844 40.804688 11.527344 L 40.804688 25.1875 C 40.804688 26 41.464844 26.65625 42.273438 26.65625 L 52.15625 26.65625 C 52.96875 26.65625 53.628906 25.996094 53.628906 25.1875 L 53.628906 13.855469 C 53.628906 13.460938 53.480469 13.109375 53.210938 12.84375 Z M 52.074219 25.101562 L 42.359375 25.101562 L 42.359375 11.613281 L 49.777344 11.613281 L 52.074219 13.910156 Z M 49.550781 15.015625 C 49.980469 15.015625 50.328125 15.363281 50.328125 15.792969 C 50.328125 16.222656 49.980469 16.574219 49.550781 16.574219 L 44.882812 16.574219 C 44.453125 16.574219 44.105469 16.222656 44.105469 15.792969 C 44.105469 15.363281 44.453125 15.015625 44.882812 15.015625 Z M 50.328125 18.964844 C 50.328125 19.394531 49.980469 19.746094 49.550781 19.746094 L 44.882812 19.746094 C 44.453125 19.746094 44.105469 19.394531 44.105469 18.964844 C 44.105469 18.535156 44.453125 18.1875 44.882812 18.1875 L 49.550781 18.1875 C 49.980469 18.1875 50.328125 18.535156 50.328125 18.964844 Z M 50.328125 22.355469 C 50.328125 22.785156 49.980469 23.132812 49.550781 23.132812 L 44.882812 23.132812 C 44.453125 23.132812 44.105469 22.785156 44.105469 22.355469 C 44.105469 21.925781 44.453125 21.578125 44.882812 21.578125 L 49.550781 21.578125 C 49.980469 21.578125 50.328125 21.925781 50.328125 22.355469 Z M 49.832031 48.34375 L 42.273438 48.34375 C 41.464844 48.34375 40.804688 49.003906 40.804688 49.816406 L 40.804688 63.476562 C 40.804688 64.285156 41.464844 64.945312 42.273438 64.945312 L 52.15625 64.945312 C 52.96875 64.945312 53.628906 64.285156 53.628906 63.476562 L 53.628906 52.140625 C 53.628906 51.753906 53.484375 51.402344 53.210938 51.128906 L 50.839844 48.761719 C 50.566406 48.488281 50.21875 48.34375 49.832031 48.34375 Z M 52.074219 63.390625 L 42.359375 63.390625 L 42.359375 49.898438 L 49.777344 49.898438 L 52.074219 52.195312 Z M 49.550781 53.304688 C 49.980469 53.304688 50.328125 53.652344 50.328125 54.082031 C 50.328125 54.511719 49.980469 54.859375 49.550781 54.859375 L 44.882812 54.859375 C 44.453125 54.859375 44.105469 54.511719 44.105469 54.082031 C 44.105469 53.652344 44.453125 53.304688 44.882812 53.304688 Z M 50.328125 57.253906 C 50.328125 57.683594 49.980469 58.03125 49.550781 58.03125 L 44.882812 58.03125 C 44.453125 58.03125 44.105469 57.683594 44.105469 57.253906 C 44.105469 56.824219 44.453125 56.476562 44.882812 56.476562 L 49.550781 56.476562 C 49.980469 56.476562 50.328125 56.824219 50.328125 57.253906 Z M 50.328125 60.644531 C 50.328125 61.074219 49.980469 61.421875 49.550781 61.421875 L 44.882812 61.421875 C 44.453125 61.421875 44.105469 61.074219 44.105469 60.644531 C 44.105469 60.214844 44.453125 59.867188 44.882812 59.867188 L 49.550781 59.867188 C 49.980469 59.867188 50.328125 60.214844 50.328125 60.644531 Z M 14.8125 39.691406 L 13.964844 40.179688 C 12.949219 40.769531 12.597656 42.078125 13.1875 43.097656 L 15.085938 46.386719 C 15.371094 46.878906 15.832031 47.234375 16.382812 47.382812 C 16.933594 47.527344 17.511719 47.453125 18.003906 47.167969 L 18.847656 46.683594 C 18.980469 46.605469 19.121094 46.617188 19.242188 46.710938 C 19.71875 47.097656 20.230469 47.445312 20.757812 47.75 C 21.277344 48.050781 21.835938 48.320312 22.417969 48.546875 C 22.5625 48.601562 22.644531 48.722656 22.644531 48.875 L 22.644531 49.847656 C 22.644531 51.027344 23.601562 51.984375 24.78125 51.984375 L 25.894531 51.984375 L 25.894531 57.511719 C 25.894531 57.71875 25.976562 57.917969 26.121094 58.0625 C 26.269531 58.210938 26.464844 58.289062 26.671875 58.289062 L 26.675781 58.289062 L 33.621094 58.246094 C 33.914062 59.183594 34.792969 59.867188 35.828125 59.867188 C 37.101562 59.867188 38.136719 58.832031 38.136719 57.558594 C 38.136719 56.285156 37.101562 55.25 35.828125 55.25 C 34.863281 55.25 34.035156 55.847656 33.691406 56.6875 L 27.449219 56.730469 L 27.449219 51.984375 L 28.578125 51.984375 C 29.757812 51.984375 30.714844 51.027344 30.714844 49.847656 L 30.714844 48.871094 C 30.714844 48.71875 30.796875 48.601562 30.941406 48.542969 C 31.34375 48.386719 31.542969 47.9375 31.386719 47.535156 C 31.230469 47.136719 30.78125 46.9375 30.378906 47.09375 C 29.636719 47.378906 29.160156 48.078125 29.160156 48.871094 L 29.160156 49.847656 C 29.160156 50.164062 28.894531 50.429688 28.578125 50.429688 L 24.78125 50.429688 C 24.460938 50.429688 24.203125 50.167969 24.203125 49.847656 L 24.203125 48.875 C 24.203125 48.082031 23.722656 47.386719 22.980469 47.097656 C 22.476562 46.898438 21.988281 46.667969 21.535156 46.402344 C 21.074219 46.136719 20.632812 45.835938 20.21875 45.5 C 19.601562 45.003906 18.753906 44.9375 18.066406 45.335938 L 17.226562 45.820312 C 17.09375 45.898438 16.9375 45.917969 16.785156 45.878906 C 16.636719 45.839844 16.511719 45.742188 16.433594 45.609375 L 14.535156 42.320312 C 14.375 42.042969 14.46875 41.6875 14.742188 41.527344 L 15.589844 41.039062 C 16.277344 40.644531 16.644531 39.882812 16.523438 39.09375 C 16.355469 38.027344 16.355469 36.957031 16.519531 35.90625 C 16.640625 35.121094 16.273438 34.359375 15.585938 33.957031 L 14.746094 33.476562 C 14.46875 33.316406 14.375 32.957031 14.535156 32.679688 L 16.433594 29.390625 C 16.59375 29.117188 16.949219 29.019531 17.226562 29.179688 L 18.066406 29.664062 C 18.753906 30.0625 19.597656 30 20.222656 29.5 C 21.050781 28.828125 21.976562 28.292969 22.980469 27.910156 C 23.722656 27.621094 24.203125 26.921875 24.203125 26.128906 L 24.203125 25.152344 C 24.203125 24.832031 24.460938 24.574219 24.78125 24.574219 L 28.578125 24.574219 C 28.894531 24.574219 29.160156 24.839844 29.160156 25.152344 L 29.160156 26.125 C 29.160156 26.917969 29.636719 27.617188 30.375 27.90625 C 30.773438 28.0625 31.226562 27.863281 31.382812 27.464844 C 31.539062 27.0625 31.339844 26.613281 30.941406 26.457031 C 30.796875 26.398438 30.714844 26.28125 30.714844 26.125 L 30.714844 25.152344 C 30.714844 23.976562 29.757812 23.015625 28.578125 23.015625 L 27.449219 23.015625 L 27.449219 18.867188 L 33.691406 18.910156 C 34.035156 19.753906 34.863281 20.347656 35.828125 20.347656 C 37.101562 20.347656 38.136719 19.3125 38.136719 18.039062 C 38.136719 16.765625 37.101562 15.726562 35.828125 15.726562 C 34.792969 15.726562 33.914062 16.414062 33.621094 17.355469 L 26.675781 17.304688 L 26.671875 17.304688 C 26.464844 17.304688 26.269531 17.386719 26.121094 17.53125 C 25.976562 17.679688 25.894531 17.878906 25.894531 18.085938 L 25.894531 23.015625 L 24.78125 23.015625 C 23.601562 23.015625 22.644531 23.976562 22.644531 25.152344 L 22.644531 26.128906 C 22.644531 26.28125 22.5625 26.402344 22.417969 26.457031 C 21.265625 26.902344 20.199219 27.515625 19.246094 28.289062 C 19.121094 28.386719 18.980469 28.398438 18.84375 28.316406 L 18.003906 27.832031 C 16.984375 27.246094 15.675781 27.59375 15.085938 28.613281 L 13.1875 31.902344 C 12.597656 32.921875 12.949219 34.230469 13.96875 34.824219 L 14.808594 35.304688 C 14.945312 35.382812 15.003906 35.515625 14.980469 35.667969 C 14.792969 36.875 14.792969 38.109375 14.984375 39.332031 C 15.007812 39.484375 14.945312 39.617188 14.8125 39.691406 Z M 35.828125 56.808594 C 36.242188 56.808594 36.578125 57.144531 36.578125 57.558594 C 36.578125 57.976562 36.242188 58.3125 35.828125 58.3125 C 35.410156 58.3125 35.074219 57.976562 35.074219 57.558594 C 35.074219 57.144531 35.410156 56.808594 35.828125 56.808594 Z M 35.828125 17.285156 C 36.242188 17.285156 36.578125 17.621094 36.578125 18.039062 C 36.578125 18.453125 36.242188 18.792969 35.828125 18.792969 C 35.410156 18.792969 35.074219 18.453125 35.074219 18.039062 C 35.074219 17.621094 35.410156 17.285156 35.828125 17.285156 Z M 62.09375 45.035156 L 62.09375 29.964844 C 62.09375 29.117188 61.40625 28.425781 60.554688 28.425781 L 52.21875 28.425781 C 52.109375 28.425781 52.007812 28.445312 51.914062 28.488281 C 51.710938 28.488281 51.515625 28.566406 51.367188 28.714844 L 48.371094 31.757812 C 48.226562 31.90625 48.148438 32.097656 48.148438 32.292969 C 48.121094 32.371094 48.109375 32.449219 48.109375 32.535156 L 48.109375 45.035156 C 48.109375 45.886719 48.800781 46.578125 49.652344 46.578125 L 60.554688 46.578125 C 61.40625 46.578125 62.09375 45.886719 62.09375 45.035156 Z M 51.144531 31.160156 L 51.144531 31.457031 C 51.140625 31.457031 51.136719 31.457031 51.132812 31.457031 L 50.839844 31.46875 Z M 60.539062 45.019531 L 49.664062 45.019531 L 49.664062 33.0625 L 51.179688 33.015625 C 52.03125 32.988281 52.699219 32.308594 52.699219 31.46875 L 52.699219 29.980469 L 60.539062 29.980469 Z M 57.675781 34.007812 C 58.105469 34.007812 58.453125 34.355469 58.453125 34.785156 C 58.453125 35.214844 58.105469 35.5625 57.675781 35.5625 L 52.53125 35.5625 C 52.101562 35.5625 51.75 35.214844 51.75 34.785156 C 51.75 34.355469 52.101562 34.007812 52.53125 34.007812 Z M 58.453125 38.480469 C 58.453125 38.910156 58.105469 39.257812 57.675781 39.257812 L 52.53125 39.257812 C 52.101562 39.257812 51.75 38.910156 51.75 38.480469 C 51.75 38.050781 52.101562 37.699219 52.53125 37.699219 L 57.675781 37.699219 C 58.105469 37.699219 58.453125 38.050781 58.453125 38.480469 Z M 58.453125 42.171875 C 58.453125 42.601562 58.105469 42.949219 57.675781 42.949219 L 52.53125 42.949219 C 52.101562 42.949219 51.75 42.601562 51.75 42.171875 C 51.75 41.742188 52.101562 41.390625 52.53125 41.390625 L 57.675781 41.390625 C 58.105469 41.390625 58.453125 41.742188 58.453125 42.171875 Z M 38.308594 36.8125 L 32.429688 36.773438 C 32.207031 35.035156 31.207031 33.417969 29.578125 32.476562 C 28.238281 31.703125 26.671875 31.496094 25.175781 31.898438 C 23.679688 32.296875 22.429688 33.257812 21.65625 34.597656 C 20.058594 37.367188 21.007812 40.921875 23.777344 42.527344 C 24.6875 43.050781 25.683594 43.300781 26.667969 43.300781 C 28.675781 43.300781 30.628906 42.261719 31.703125 40.402344 C 32.082031 39.742188 32.316406 39.039062 32.417969 38.328125 L 38.355469 38.371094 C 38.738281 39.738281 39.996094 40.746094 41.484375 40.746094 C 43.273438 40.746094 44.726562 39.289062 44.726562 37.5 C 44.726562 35.710938 43.273438 34.253906 41.484375 34.253906 C 39.929688 34.253906 38.625 35.351562 38.308594 36.8125 Z M 30.355469 39.625 C 29.183594 41.648438 26.582031 42.347656 24.554688 41.179688 C 22.53125 40.003906 21.832031 37.402344 23.003906 35.378906 C 23.570312 34.394531 24.484375 33.691406 25.582031 33.398438 C 25.945312 33.300781 26.316406 33.253906 26.6875 33.253906 C 27.421875 33.253906 28.148438 33.445312 28.800781 33.824219 C 30.828125 34.996094 31.523438 37.597656 30.355469 39.625 Z M 41.484375 35.8125 C 42.414062 35.8125 43.171875 36.566406 43.171875 37.5 C 43.171875 38.433594 42.414062 39.191406 41.484375 39.191406 C 40.550781 39.191406 39.792969 38.433594 39.792969 37.5 C 39.792969 36.566406 40.550781 35.8125 41.484375 35.8125 Z M 41.484375 35.8125 " fill-opacity="1" fill-rule="nonzero"/></g></svg>