<svg xmlns="http://www.w3.org/2000/svg" xmlns:xlink="http://www.w3.org/1999/xlink" width="100" zoomAndPan="magnify" viewBox="0 0 75 74.999997" height="100" preserveAspectRatio="xMidYMid meet" version="1.0"><defs><clipPath id="49bb4d4cd7"><path d="M 13.253906 16.070312 L 62 16.070312 L 62 58.820312 L 13.253906 58.820312 Z M 13.253906 16.070312 " clip-rule="nonzero"/></clipPath></defs><g clip-path="url(#49bb4d4cd7)"><path fill="#62cdec" d="M 61.113281 25.136719 L 21.117188 25.136719 L 21.117188 20.558594 C 21.117188 20.226562 20.847656 19.953125 20.515625 19.953125 L 19.652344 19.953125 C 16.140625 19.953125 13.28125 22.8125 13.28125 26.324219 L 13.28125 54.257812 C 13.28125 56.828125 15.375 58.921875 17.945312 58.921875 L 61.113281 58.921875 C 61.445312 58.921875 61.714844 58.652344 61.714844 58.316406 L 61.714844 25.742188 C 61.714844 25.410156 61.445312 25.136719 61.113281 25.136719 Z M 14.488281 26.324219 C 14.488281 23.476562 16.804688 21.160156 19.652344 21.160156 L 19.914062 21.160156 L 19.914062 49.59375 L 17.945312 49.59375 C 16.578125 49.59375 15.34375 50.1875 14.488281 51.132812 Z M 60.507812 57.714844 L 17.945312 57.714844 C 16.039062 57.714844 14.488281 56.164062 14.488281 54.257812 C 14.488281 52.351562 16.039062 50.800781 17.945312 50.800781 L 20.515625 50.800781 C 20.847656 50.800781 21.117188 50.53125 21.117188 50.199219 L 21.117188 26.34375 L 60.507812 26.34375 Z M 51.445312 37.671875 C 51.445312 35.296875 49.511719 33.367188 47.140625 33.367188 C 44.769531 33.367188 42.835938 35.296875 42.835938 37.671875 C 42.835938 40.042969 44.769531 41.972656 47.140625 41.972656 C 49.511719 41.972656 51.445312 40.042969 51.445312 37.671875 Z M 47.140625 40.769531 C 45.429688 40.769531 44.042969 39.378906 44.042969 37.671875 C 44.042969 35.960938 45.429688 34.574219 47.140625 34.574219 C 48.847656 34.574219 50.238281 35.960938 50.238281 37.671875 C 50.238281 39.378906 48.847656 40.769531 47.140625 40.769531 Z M 34.488281 50.660156 C 36.863281 50.660156 38.792969 48.730469 38.792969 46.359375 C 38.792969 43.984375 36.863281 42.054688 34.488281 42.054688 C 32.117188 42.054688 30.183594 43.984375 30.183594 46.359375 C 30.183594 48.730469 32.117188 50.660156 34.488281 50.660156 Z M 34.488281 43.257812 C 36.195312 43.257812 37.585938 44.648438 37.585938 46.355469 C 37.585938 48.066406 36.195312 49.453125 34.488281 49.453125 C 32.78125 49.453125 31.390625 48.066406 31.390625 46.355469 C 31.390625 44.648438 32.78125 43.257812 34.488281 43.257812 Z M 26.820312 48.304688 L 27.679688 48.605469 C 27.792969 48.9375 27.925781 49.265625 28.085938 49.582031 L 27.691406 50.402344 C 27.460938 50.875 27.554688 51.417969 27.925781 51.789062 L 29.058594 52.921875 C 29.429688 53.292969 29.972656 53.386719 30.445312 53.15625 L 31.265625 52.757812 C 31.582031 52.917969 31.910156 53.054688 32.242188 53.164062 L 32.542969 54.027344 C 32.714844 54.519531 33.164062 54.839844 33.6875 54.839844 L 35.292969 54.839844 C 35.816406 54.839844 36.265625 54.519531 36.4375 54.027344 L 36.734375 53.164062 C 37.070312 53.054688 37.398438 52.917969 37.714844 52.757812 L 38.535156 53.15625 C 39.003906 53.386719 39.550781 53.292969 39.921875 52.921875 L 41.054688 51.789062 C 41.425781 51.417969 41.515625 50.875 41.289062 50.402344 L 40.890625 49.582031 C 41.050781 49.265625 41.1875 48.9375 41.296875 48.601562 L 42.160156 48.304688 C 42.441406 48.207031 42.664062 48.019531 42.804688 47.777344 L 43.429688 48.402344 C 42.933594 50.234375 43.457031 52.234375 44.808594 53.589844 C 45.835938 54.617188 47.207031 55.15625 48.597656 55.15625 C 49.390625 55.15625 50.1875 54.980469 50.929688 54.621094 C 51.105469 54.535156 51.226562 54.371094 51.261719 54.175781 C 51.292969 53.984375 51.230469 53.789062 51.09375 53.652344 L 48.351562 50.910156 L 49.699219 49.5625 L 52.4375 52.304688 C 52.578125 52.441406 52.773438 52.507812 52.964844 52.472656 C 53.15625 52.441406 53.320312 52.316406 53.40625 52.140625 C 54.402344 50.09375 53.988281 47.632812 52.375 46.023438 C 51.554688 45.199219 50.492188 44.683594 49.375 44.519531 L 49.390625 44.476562 C 49.726562 44.367188 50.050781 44.230469 50.367188 44.070312 L 51.1875 44.46875 C 51.660156 44.695312 52.203125 44.605469 52.574219 44.234375 L 53.707031 43.097656 C 54.078125 42.730469 54.171875 42.183594 53.941406 41.710938 L 53.546875 40.894531 C 53.707031 40.578125 53.839844 40.25 53.953125 39.914062 L 54.8125 39.617188 C 55.308594 39.445312 55.628906 38.992188 55.628906 38.46875 L 55.628906 36.867188 C 55.628906 36.34375 55.308594 35.894531 54.8125 35.722656 L 53.953125 35.421875 C 53.839844 35.085938 53.707031 34.757812 53.546875 34.445312 L 53.941406 33.625 C 54.171875 33.152344 54.078125 32.609375 53.707031 32.238281 L 52.574219 31.101562 C 52.203125 30.730469 51.660156 30.640625 51.1875 30.867188 L 50.367188 31.265625 C 50.050781 31.105469 49.726562 30.96875 49.390625 30.859375 L 49.089844 30 C 48.917969 29.503906 48.46875 29.183594 47.945312 29.183594 L 46.339844 29.183594 C 45.816406 29.183594 45.367188 29.503906 45.195312 30 L 44.898438 30.859375 C 44.5625 30.96875 44.234375 31.105469 43.917969 31.265625 L 43.097656 30.867188 C 42.628906 30.640625 42.082031 30.730469 41.710938 31.101562 L 40.578125 32.238281 C 40.207031 32.609375 40.117188 33.152344 40.34375 33.625 L 40.742188 34.445312 C 40.582031 34.757812 40.445312 35.085938 40.335938 35.421875 L 39.476562 35.722656 C 39.183594 35.820312 38.957031 36.019531 38.816406 36.269531 L 38.203125 35.65625 C 38.695312 33.820312 38.175781 31.824219 36.820312 30.46875 C 35.210938 28.859375 32.75 28.441406 30.703125 29.4375 C 30.527344 29.523438 30.402344 29.6875 30.371094 29.878906 C 30.339844 30.070312 30.402344 30.269531 30.539062 30.40625 L 33.277344 33.148438 L 31.933594 34.496094 L 29.191406 31.753906 C 29.054688 31.617188 28.859375 31.554688 28.664062 31.585938 C 28.472656 31.617188 28.308594 31.742188 28.222656 31.917969 C 27.230469 33.964844 27.644531 36.425781 29.253906 38.035156 C 30.074219 38.855469 31.132812 39.371094 32.246094 39.539062 L 32.242188 39.550781 C 31.90625 39.660156 31.578125 39.796875 31.261719 39.957031 L 30.441406 39.558594 C 29.972656 39.332031 29.425781 39.421875 29.058594 39.792969 L 27.921875 40.929688 C 27.550781 41.300781 27.460938 41.84375 27.6875 42.316406 L 28.085938 43.136719 C 27.925781 43.449219 27.789062 43.777344 27.679688 44.113281 L 26.820312 44.414062 C 26.324219 44.585938 26.003906 45.035156 26.003906 45.558594 L 26.003906 47.160156 C 26.007812 47.683594 26.324219 48.132812 26.820312 48.304688 Z M 39.867188 36.863281 L 41.015625 36.460938 C 41.203125 36.398438 41.347656 36.246094 41.398438 36.054688 C 41.527344 35.601562 41.707031 35.164062 41.941406 34.753906 C 42.035156 34.582031 42.042969 34.371094 41.957031 34.195312 L 41.429688 33.089844 L 42.570312 31.957031 L 43.664062 32.488281 C 43.84375 32.574219 44.050781 32.566406 44.222656 32.46875 C 44.636719 32.238281 45.074219 32.054688 45.527344 31.929688 C 45.714844 31.875 45.867188 31.734375 45.933594 31.546875 L 46.339844 30.390625 L 47.949219 30.398438 L 48.347656 31.546875 C 48.414062 31.734375 48.566406 31.875 48.753906 31.929688 C 49.207031 32.054688 49.644531 32.238281 50.058594 32.46875 C 50.230469 32.566406 50.4375 32.574219 50.617188 32.488281 L 51.71875 31.957031 L 52.855469 33.097656 L 52.324219 34.195312 C 52.238281 34.371094 52.246094 34.582031 52.339844 34.753906 C 52.574219 35.164062 52.753906 35.601562 52.882812 36.054688 C 52.933594 36.246094 53.078125 36.398438 53.265625 36.460938 L 54.417969 36.867188 L 54.414062 38.480469 L 53.261719 38.878906 C 53.074219 38.941406 52.933594 39.09375 52.878906 39.285156 C 52.753906 39.738281 52.570312 40.175781 52.339844 40.585938 C 52.242188 40.757812 52.238281 40.96875 52.324219 41.144531 L 52.851562 42.25 L 51.710938 43.382812 L 50.613281 42.851562 C 50.4375 42.765625 50.230469 42.773438 50.054688 42.871094 C 49.644531 43.101562 49.207031 43.285156 48.753906 43.410156 C 48.5625 43.464844 48.414062 43.605469 48.347656 43.792969 L 48.109375 44.480469 C 47.796875 44.507812 47.488281 44.5625 47.1875 44.644531 L 39.863281 37.324219 Z M 29.007812 33.273438 L 31.507812 35.773438 C 31.621094 35.886719 31.773438 35.949219 31.933594 35.949219 C 32.09375 35.949219 32.246094 35.886719 32.359375 35.773438 L 34.558594 33.574219 C 34.792969 33.339844 34.792969 32.957031 34.558594 32.722656 L 32.058594 30.226562 C 33.445312 29.890625 34.933594 30.285156 35.96875 31.324219 C 37.085938 32.441406 37.472656 34.132812 36.949219 35.628906 C 36.871094 35.847656 36.925781 36.089844 37.089844 36.253906 L 46.589844 45.753906 C 46.753906 45.917969 47 45.972656 47.21875 45.898438 C 48.714844 45.371094 50.402344 45.757812 51.523438 46.878906 C 52.558594 47.914062 52.957031 49.402344 52.621094 50.785156 L 50.121094 48.289062 C 49.886719 48.050781 49.503906 48.050781 49.269531 48.289062 L 47.070312 50.484375 C 46.835938 50.71875 46.835938 51.101562 47.070312 51.335938 L 49.570312 53.835938 C 48.1875 54.171875 46.699219 53.773438 45.664062 52.738281 C 44.542969 51.617188 44.15625 49.929688 44.679688 48.433594 C 44.757812 48.214844 44.703125 47.972656 44.539062 47.808594 L 35.039062 38.304688 C 34.925781 38.191406 34.769531 38.128906 34.613281 38.128906 C 34.546875 38.128906 34.476562 38.140625 34.414062 38.164062 C 32.917969 38.6875 31.226562 38.304688 30.109375 37.183594 C 29.070312 36.148438 28.675781 34.660156 29.007812 33.273438 Z M 27.21875 45.550781 L 28.367188 45.148438 C 28.554688 45.085938 28.695312 44.933594 28.75 44.742188 C 28.875 44.292969 29.058594 43.851562 29.289062 43.441406 C 29.386719 43.269531 29.390625 43.058594 29.304688 42.882812 L 28.777344 41.777344 L 29.917969 40.644531 L 31.015625 41.175781 C 31.191406 41.261719 31.402344 41.253906 31.574219 41.15625 C 31.984375 40.925781 32.421875 40.742188 32.875 40.617188 C 33.066406 40.5625 33.214844 40.421875 33.28125 40.234375 L 33.507812 39.578125 C 33.824219 39.550781 34.136719 39.5 34.441406 39.414062 L 41.761719 46.738281 L 41.761719 47.164062 L 40.609375 47.566406 C 40.425781 47.628906 40.28125 47.78125 40.226562 47.972656 C 40.101562 48.425781 39.917969 48.863281 39.6875 49.273438 C 39.59375 49.445312 39.585938 49.65625 39.671875 49.832031 L 40.199219 50.9375 L 39.058594 52.070312 L 37.964844 51.539062 C 37.785156 51.453125 37.578125 51.460938 37.40625 51.558594 C 36.992188 51.789062 36.554688 51.972656 36.101562 52.097656 C 35.914062 52.152344 35.761719 52.292969 35.695312 52.480469 L 35.289062 53.636719 L 33.679688 53.628906 L 33.28125 52.480469 C 33.214844 52.292969 33.0625 52.152344 32.871094 52.097656 C 32.421875 51.972656 31.984375 51.789062 31.570312 51.558594 C 31.398438 51.460938 31.191406 51.453125 31.011719 51.539062 L 29.910156 52.070312 L 28.773438 50.929688 L 29.304688 49.832031 C 29.390625 49.65625 29.382812 49.445312 29.285156 49.273438 C 29.054688 48.863281 28.875 48.425781 28.746094 47.972656 C 28.695312 47.78125 28.550781 47.628906 28.363281 47.566406 L 27.210938 47.160156 Z M 59.394531 16.066406 L 34.003906 16.066406 L 34.003906 16.070312 C 33.925781 16.070312 33.84375 16.082031 33.769531 16.113281 L 27.277344 18.855469 C 27.054688 18.949219 26.910156 19.167969 26.910156 19.410156 C 26.910156 19.652344 27.054688 19.871094 27.277344 19.964844 L 33.769531 22.707031 C 33.84375 22.738281 33.925781 22.753906 34.003906 22.753906 L 59.398438 22.753906 C 60.675781 22.753906 61.714844 21.714844 61.714844 20.433594 L 61.714844 18.386719 C 61.714844 17.109375 60.675781 16.066406 59.394531 16.066406 Z M 33.402344 21.242188 L 29.0625 19.410156 L 33.402344 17.578125 Z M 54.238281 17.273438 L 55.804688 17.273438 L 55.804688 21.546875 L 54.238281 21.546875 Z M 53.035156 21.546875 L 34.605469 21.546875 L 34.605469 17.273438 L 53.035156 17.273438 Z M 60.507812 20.433594 C 60.507812 21.046875 60.011719 21.546875 59.394531 21.546875 L 57.007812 21.546875 L 57.007812 17.273438 L 59.394531 17.273438 C 60.011719 17.273438 60.507812 17.773438 60.507812 18.386719 Z M 60.507812 20.433594 " fill-opacity="1" fill-rule="nonzero"/></g></svg>