<svg xmlns="http://www.w3.org/2000/svg" xmlns:xlink="http://www.w3.org/1999/xlink" width="100" zoomAndPan="magnify" viewBox="0 0 75 74.999997" height="100" preserveAspectRatio="xMidYMid meet" version="1.0"><defs><clipPath id="ebe291e6ef"><path d="M 16.820312 12.960938 L 62.570312 12.960938 L 62.570312 56.460938 L 16.820312 56.460938 Z M 16.820312 12.960938 " clip-rule="nonzero"/></clipPath></defs><g clip-path="url(#ebe291e6ef)"><path fill="#62cdec" d="M 50.847656 49.746094 C 50.847656 50.085938 50.574219 50.359375 50.234375 50.359375 L 48.765625 50.359375 L 48.765625 51.828125 C 48.765625 52.167969 48.488281 52.441406 48.152344 52.441406 C 47.8125 52.441406 47.539062 52.167969 47.539062 51.828125 L 47.539062 50.359375 L 46.066406 50.359375 C 45.726562 50.359375 45.453125 50.085938 45.453125 49.746094 C 45.453125 49.40625 45.726562 49.132812 46.066406 49.132812 L 47.539062 49.132812 L 47.539062 47.660156 C 47.539062 47.324219 47.8125 47.050781 48.152344 47.050781 C 48.488281 47.050781 48.765625 47.324219 48.765625 47.660156 L 48.765625 49.132812 L 50.234375 49.132812 C 50.574219 49.132812 50.847656 49.40625 50.847656 49.746094 Z M 30.316406 50.359375 L 30.316406 51.960938 C 30.316406 52.300781 30.589844 52.574219 30.929688 52.574219 C 31.269531 52.574219 31.542969 52.300781 31.542969 51.960938 L 31.542969 50.359375 C 31.542969 50.019531 31.269531 49.746094 30.929688 49.746094 C 30.589844 49.746094 30.316406 50.019531 30.316406 50.359375 Z M 30.929688 53.800781 C 30.589844 53.800781 30.316406 54.074219 30.316406 54.414062 L 30.316406 56.015625 C 30.316406 56.355469 30.589844 56.628906 30.929688 56.628906 C 31.269531 56.628906 31.542969 56.355469 31.542969 56.015625 L 31.542969 54.414062 C 31.542969 54.074219 31.269531 53.800781 30.929688 53.800781 Z M 33.75 52.574219 L 32.148438 52.574219 C 31.808594 52.574219 31.535156 52.847656 31.535156 53.1875 C 31.535156 53.527344 31.808594 53.800781 32.148438 53.800781 L 33.75 53.800781 C 34.089844 53.800781 34.363281 53.527344 34.363281 53.1875 C 34.363281 52.847656 34.089844 52.574219 33.75 52.574219 Z M 29.703125 52.574219 L 28.101562 52.574219 C 27.761719 52.574219 27.488281 52.847656 27.488281 53.1875 C 27.488281 53.527344 27.761719 53.800781 28.101562 53.800781 L 29.703125 53.800781 C 30.042969 53.800781 30.316406 53.527344 30.316406 53.1875 C 30.316406 52.847656 30.042969 52.574219 29.703125 52.574219 Z M 38.984375 13.582031 L 38.984375 15.683594 C 38.984375 16.023438 39.257812 16.296875 39.597656 16.296875 C 39.9375 16.296875 40.210938 16.023438 40.210938 15.683594 L 40.210938 13.582031 C 40.210938 13.242188 39.9375 12.96875 39.597656 12.96875 C 39.257812 12.96875 38.984375 13.242188 38.984375 13.582031 Z M 47.394531 24.085938 L 49.488281 24.085938 C 49.828125 24.085938 50.101562 23.8125 50.101562 23.472656 C 50.101562 23.132812 49.828125 22.859375 49.488281 22.859375 L 47.394531 22.859375 C 47.054688 22.859375 46.78125 23.132812 46.78125 23.472656 C 46.78125 23.8125 47.054688 24.085938 47.394531 24.085938 Z M 29.703125 22.859375 C 29.367188 22.859375 29.089844 23.132812 29.089844 23.472656 C 29.089844 23.8125 29.367188 24.085938 29.703125 24.085938 L 31.796875 24.085938 C 32.136719 24.085938 32.410156 23.8125 32.410156 23.472656 C 32.410156 23.132812 32.136719 22.859375 31.796875 22.859375 Z M 45.113281 18.578125 C 45.269531 18.578125 45.425781 18.519531 45.546875 18.398438 L 47.027344 16.917969 C 47.265625 16.679688 47.265625 16.292969 47.027344 16.050781 C 46.789062 15.8125 46.398438 15.8125 46.160156 16.050781 L 44.679688 17.53125 C 44.441406 17.773438 44.441406 18.160156 44.679688 18.398438 C 44.800781 18.519531 44.957031 18.578125 45.113281 18.578125 Z M 34.082031 18.578125 C 34.238281 18.578125 34.394531 18.519531 34.515625 18.398438 C 34.753906 18.160156 34.753906 17.773438 34.515625 17.53125 L 33.035156 16.050781 C 32.792969 15.8125 32.40625 15.8125 32.167969 16.050781 C 31.925781 16.292969 31.925781 16.679688 32.167969 16.917969 L 33.648438 18.398438 C 33.765625 18.519531 33.925781 18.578125 34.082031 18.578125 Z M 62.121094 33.402344 C 62.851562 35.269531 61.929688 37.378906 60.066406 38.113281 L 60.0625 38.117188 C 59.632812 38.28125 59.1875 38.363281 58.742188 38.363281 C 58.214844 38.363281 57.683594 38.246094 57.1875 38.011719 C 56.34375 37.597656 55.703125 36.902344 55.367188 36.050781 C 55.035156 35.203125 55.03125 34.277344 55.359375 33.441406 C 55.71875 32.488281 56.472656 31.722656 57.421875 31.351562 C 59.277344 30.632812 61.386719 31.550781 62.121094 33.402344 Z M 58.734375 32.332031 C 58.445312 32.332031 58.152344 32.382812 57.867188 32.496094 C 57.242188 32.738281 56.746094 33.246094 56.503906 33.882812 C 56.285156 34.4375 56.289062 35.042969 56.507812 35.601562 C 56.734375 36.179688 57.152344 36.628906 57.71875 36.910156 C 58.3125 37.1875 58.992188 37.210938 59.621094 36.972656 C 60.875 36.476562 61.46875 35.105469 60.980469 33.851562 C 60.605469 32.910156 59.695312 32.332031 58.734375 32.332031 Z M 51.234375 35.609375 L 51.234375 35.347656 L 48.140625 35.347656 L 48.140625 38.335938 C 48.140625 38.535156 48.101562 38.722656 48.039062 38.898438 L 50.773438 41.449219 L 50.882812 41.316406 C 51.121094 41.046875 51.484375 40.925781 51.835938 40.996094 C 52.1875 41.066406 52.476562 41.320312 52.589844 41.65625 L 53.109375 43.277344 C 53.214844 43.617188 53.140625 43.96875 52.910156 44.230469 C 52.71875 44.453125 52.445312 44.574219 52.160156 44.574219 C 52.101562 44.574219 52.046875 44.570312 51.992188 44.558594 L 51.988281 44.558594 L 50.320312 44.277344 C 49.96875 44.21875 49.671875 43.972656 49.550781 43.632812 C 49.425781 43.289062 49.496094 42.910156 49.734375 42.636719 L 49.964844 42.371094 L 47.261719 39.847656 C 47 39.996094 46.707031 40.089844 46.386719 40.089844 L 40.265625 40.089844 L 40.265625 42.890625 L 40.53125 42.890625 C 40.894531 42.890625 41.21875 43.078125 41.394531 43.394531 C 41.574219 43.707031 41.570312 44.09375 41.386719 44.398438 L 40.507812 45.863281 C 40.320312 46.160156 40.003906 46.335938 39.652344 46.335938 C 39.304688 46.335938 38.984375 46.160156 38.800781 45.863281 L 37.921875 44.40625 C 37.738281 44.089844 37.734375 43.707031 37.910156 43.394531 C 38.089844 43.078125 38.414062 42.890625 38.777344 42.890625 L 39.039062 42.890625 L 39.039062 40.089844 L 32.921875 40.089844 C 32.601562 40.089844 32.304688 39.996094 32.046875 39.847656 L 29.339844 42.371094 L 29.574219 42.636719 C 29.808594 42.910156 29.882812 43.289062 29.757812 43.632812 C 29.636719 43.972656 29.339844 44.21875 28.980469 44.277344 L 27.316406 44.558594 C 27.257812 44.570312 27.203125 44.574219 27.148438 44.574219 C 26.863281 44.574219 26.589844 44.453125 26.398438 44.230469 C 26.167969 43.96875 26.09375 43.617188 26.195312 43.285156 L 26.714844 41.664062 C 26.832031 41.320312 27.117188 41.066406 27.46875 40.996094 C 27.820312 40.921875 28.183594 41.046875 28.421875 41.316406 L 28.535156 41.449219 L 31.265625 38.898438 C 31.207031 38.722656 31.164062 38.535156 31.164062 38.335938 L 31.164062 35.347656 L 27.960938 35.347656 L 27.960938 35.609375 C 27.960938 35.972656 27.773438 36.296875 27.457031 36.476562 C 27.304688 36.5625 27.132812 36.605469 26.960938 36.605469 C 26.785156 36.605469 26.605469 36.558594 26.449219 36.46875 L 24.992188 35.585938 C 24.691406 35.402344 24.511719 35.082031 24.511719 34.734375 C 24.511719 34.382812 24.691406 34.0625 24.988281 33.878906 L 24.992188 33.878906 L 26.445312 33 C 26.757812 32.816406 27.144531 32.8125 27.457031 32.988281 C 27.769531 33.167969 27.960938 33.492188 27.960938 33.855469 L 27.960938 34.121094 L 31.164062 34.121094 L 31.164062 31.128906 C 31.164062 30.824219 31.25 30.542969 31.390625 30.289062 L 28.621094 27.707031 L 28.507812 27.835938 C 28.316406 28.054688 28.039062 28.179688 27.753906 28.179688 C 27.6875 28.179688 27.621094 28.171875 27.558594 28.160156 C 27.207031 28.089844 26.917969 27.835938 26.804688 27.496094 L 26.28125 25.875 C 26.179688 25.539062 26.253906 25.183594 26.480469 24.921875 C 26.710938 24.660156 27.058594 24.539062 27.398438 24.59375 L 27.402344 24.59375 L 29.070312 24.878906 C 29.421875 24.933594 29.71875 25.179688 29.84375 25.523438 C 29.964844 25.863281 29.894531 26.246094 29.65625 26.515625 L 29.425781 26.78125 L 32.28125 29.445312 C 32.296875 29.460938 32.300781 29.476562 32.3125 29.492188 C 32.503906 29.421875 32.707031 29.375 32.921875 29.375 L 35.699219 29.375 C 35.480469 28.949219 35.203125 28.542969 34.851562 28.179688 C 33.671875 26.941406 33.023438 25.296875 33.03125 23.554688 C 33.074219 19.929688 36.042969 17.003906 39.660156 17.003906 C 39.679688 17.003906 39.695312 17.003906 39.714844 17.003906 C 43.363281 17.046875 46.304688 20.042969 46.273438 23.6875 C 46.253906 25.417969 45.574219 27.054688 44.363281 28.289062 C 44.023438 28.632812 43.753906 28.996094 43.539062 29.375 L 46.386719 29.375 C 46.507812 29.375 46.625 29.390625 46.742188 29.414062 L 49.5625 26.785156 L 49.328125 26.515625 C 49.089844 26.246094 49.019531 25.863281 49.144531 25.523438 C 49.265625 25.183594 49.5625 24.933594 49.917969 24.875 L 51.585938 24.59375 C 51.929688 24.539062 52.273438 24.660156 52.503906 24.921875 C 52.734375 25.183594 52.808594 25.539062 52.707031 25.871094 L 52.183594 27.488281 C 52.070312 27.832031 51.78125 28.089844 51.433594 28.160156 C 51.367188 28.171875 51.300781 28.179688 51.234375 28.179688 C 50.949219 28.179688 50.671875 28.058594 50.480469 27.835938 L 50.371094 27.710938 L 47.800781 30.101562 C 48.011719 30.390625 48.140625 30.746094 48.140625 31.128906 L 48.140625 34.121094 L 51.234375 34.121094 L 51.234375 33.855469 C 51.234375 33.492188 51.421875 33.167969 51.738281 32.988281 C 52.046875 32.8125 52.433594 32.816406 52.742188 33 L 54.207031 33.878906 C 54.503906 34.0625 54.679688 34.382812 54.679688 34.734375 C 54.679688 35.082031 54.503906 35.402344 54.207031 35.585938 L 52.75 36.464844 C 52.589844 36.558594 52.410156 36.605469 52.230469 36.605469 C 52.0625 36.605469 51.890625 36.5625 51.738281 36.476562 C 51.421875 36.296875 51.234375 35.972656 51.234375 35.609375 Z M 50.519531 26.019531 L 51.140625 26.730469 L 51.417969 25.867188 Z M 27.84375 26.730469 L 28.464844 26.019531 L 27.566406 25.867188 Z M 26.734375 34.257812 L 25.949219 34.734375 L 26.734375 35.207031 Z M 28.382812 43.136719 L 27.761719 42.425781 L 27.480469 43.289062 Z M 40.128906 44.117188 L 39.179688 44.117188 L 39.652344 44.902344 Z M 51.546875 42.425781 L 50.925781 43.136719 L 51.824219 43.289062 Z M 38.539062 35.511719 C 38.539062 35.734375 38.628906 35.949219 38.796875 36.113281 C 38.976562 36.285156 39.214844 36.378906 39.472656 36.382812 L 39.578125 36.382812 C 40.09375 36.367188 40.523438 36.003906 40.53125 35.527344 L 40.53125 35.339844 L 38.542969 35.320312 Z M 41.074219 34.109375 C 41.347656 34.082031 41.5625 33.886719 41.566406 33.628906 L 41.578125 32.539062 L 37.554688 32.496094 L 37.542969 33.589844 C 37.539062 33.839844 37.765625 34.054688 38.046875 34.082031 Z M 37.039062 29.375 L 37.058594 29.375 L 37.195312 29.808594 C 37.195312 29.8125 37.195312 29.816406 37.195312 29.816406 C 37.195312 29.820312 37.195312 29.820312 37.195312 29.820312 C 37.34375 30.292969 37.414062 30.769531 37.410156 31.261719 L 41.808594 31.308594 C 41.746094 30.84375 41.835938 30.316406 42.015625 29.792969 L 42.15625 29.375 L 42.175781 29.375 C 42.464844 28.683594 42.898438 28.027344 43.488281 27.429688 C 44.476562 26.421875 45.03125 25.085938 45.046875 23.671875 C 45.070312 20.707031 42.675781 18.261719 39.703125 18.230469 C 39.6875 18.230469 39.671875 18.230469 39.65625 18.230469 C 36.710938 18.230469 34.292969 20.613281 34.257812 23.566406 C 34.25 24.984375 34.777344 26.324219 35.738281 27.332031 C 36.320312 27.9375 36.757812 28.640625 37.039062 29.375 Z M 46.914062 31.128906 C 46.914062 30.839844 46.679688 30.601562 46.386719 30.601562 L 43.070312 30.601562 C 43.0625 30.628906 43.054688 30.652344 43.050781 30.679688 C 43.003906 30.910156 42.972656 31.140625 42.972656 31.367188 C 42.96875 31.570312 42.902344 31.753906 42.8125 31.917969 L 42.792969 33.644531 C 42.78125 34.339844 42.363281 34.917969 41.761719 35.183594 L 41.757812 35.542969 C 41.742188 36.6875 40.777344 37.609375 39.59375 37.609375 C 39.585938 37.609375 39.578125 37.609375 39.570312 37.609375 L 39.464844 37.609375 C 38.886719 37.601562 38.347656 37.382812 37.945312 36.992188 C 37.53125 36.589844 37.308594 36.0625 37.3125 35.5 L 37.320312 35.132812 C 36.71875 34.847656 36.304688 34.253906 36.316406 33.574219 L 36.335938 31.867188 C 36.246094 31.699219 36.183594 31.519531 36.183594 31.320312 C 36.1875 31.089844 36.167969 30.875 36.132812 30.660156 C 36.128906 30.640625 36.125 30.621094 36.121094 30.601562 L 32.921875 30.601562 C 32.628906 30.601562 32.394531 30.839844 32.394531 31.128906 L 32.394531 38.335938 C 32.394531 38.625 32.628906 38.863281 32.921875 38.863281 L 46.386719 38.863281 C 46.679688 38.863281 46.914062 38.625 46.914062 38.335938 Z M 52.460938 35.207031 L 53.246094 34.734375 L 52.460938 34.257812 Z M 19.125 38.113281 C 17.265625 37.378906 16.34375 35.269531 17.070312 33.40625 C 17.808594 31.550781 19.917969 30.632812 21.769531 31.351562 C 22.71875 31.722656 23.472656 32.488281 23.835938 33.449219 C 24.164062 34.277344 24.160156 35.203125 23.824219 36.050781 C 23.492188 36.902344 22.847656 37.597656 22.015625 38.007812 C 21.511719 38.242188 20.980469 38.363281 20.449219 38.363281 C 20.003906 38.363281 19.558594 38.28125 19.132812 38.117188 Z M 19.574219 36.972656 C 20.199219 37.210938 20.878906 37.183594 21.484375 36.902344 C 22.039062 36.628906 22.457031 36.179688 22.683594 35.601562 C 22.90625 35.042969 22.90625 34.4375 22.695312 33.890625 C 22.449219 33.246094 21.953125 32.738281 21.324219 32.492188 C 20.097656 32.015625 18.699219 32.628906 18.214844 33.855469 C 17.722656 35.105469 18.320312 36.476562 19.574219 36.972656 Z M 43.042969 49.078125 C 43.765625 50.9375 42.84375 53.042969 40.992188 53.777344 C 40.5625 53.949219 40.109375 54.03125 39.660156 54.03125 C 39.164062 54.03125 38.671875 53.929688 38.207031 53.726562 C 37.316406 53.335938 36.632812 52.625 36.28125 51.722656 L 36.28125 51.71875 C 35.917969 50.78125 35.957031 49.757812 36.382812 48.84375 C 36.796875 48 37.492188 47.359375 38.34375 47.023438 C 39.191406 46.691406 40.121094 46.6875 40.953125 47.015625 C 41.910156 47.378906 42.671875 48.128906 43.042969 49.078125 Z M 41.902344 49.523438 C 41.65625 48.898438 41.152344 48.402344 40.511719 48.160156 C 39.960938 47.941406 39.351562 47.945312 38.792969 48.164062 C 38.21875 48.390625 37.765625 48.808594 37.488281 49.375 C 37.210938 49.972656 37.183594 50.652344 37.425781 51.277344 C 37.65625 51.875 38.109375 52.34375 38.695312 52.601562 C 39.289062 52.863281 39.941406 52.875 40.539062 52.636719 C 41.769531 52.148438 42.378906 50.753906 41.902344 49.523438 Z M 26.046875 44.417969 C 26.925781 45.300781 27.394531 46.480469 27.375 47.738281 C 27.332031 50.335938 25.195312 52.476562 22.613281 52.507812 C 22.589844 52.507812 22.5625 52.507812 22.539062 52.507812 C 21.265625 52.507812 20.042969 51.984375 19.175781 51.0625 C 18.359375 50.175781 17.925781 49.03125 17.945312 47.828125 C 17.957031 46.671875 18.414062 45.515625 19.203125 44.664062 C 20.101562 43.664062 21.382812 43.078125 22.710938 43.070312 C 22.730469 43.070312 22.75 43.070312 22.773438 43.070312 C 24.015625 43.070312 25.179688 43.546875 26.046875 44.417969 Z M 26.148438 47.71875 C 26.164062 46.792969 25.820312 45.929688 25.175781 45.285156 C 24.539062 44.644531 23.6875 44.292969 22.769531 44.292969 C 22.753906 44.292969 22.738281 44.296875 22.722656 44.296875 C 21.734375 44.304688 20.78125 44.738281 20.109375 45.488281 C 19.519531 46.125 19.179688 46.984375 19.171875 47.847656 C 19.15625 48.734375 19.476562 49.578125 20.074219 50.226562 C 20.726562 50.921875 21.648438 51.300781 22.59375 51.28125 L 22.597656 51.28125 C 24.523438 51.257812 26.117188 49.660156 26.148438 47.71875 Z M 56.136719 26.085938 C 54.894531 26.085938 53.734375 25.609375 52.863281 24.734375 C 51.984375 23.855469 51.515625 22.675781 51.535156 21.417969 C 51.566406 18.820312 53.703125 16.679688 56.296875 16.644531 C 56.324219 16.644531 56.347656 16.644531 56.371094 16.644531 C 57.644531 16.644531 58.867188 17.171875 59.734375 18.09375 C 60.550781 18.976562 60.988281 20.125 60.964844 21.324219 C 60.953125 22.480469 60.496094 23.636719 59.707031 24.492188 C 58.808594 25.492188 57.527344 26.074219 56.199219 26.085938 C 56.179688 26.085938 56.15625 26.085938 56.136719 26.085938 Z M 53.734375 23.871094 C 54.378906 24.519531 55.265625 24.835938 56.1875 24.859375 C 57.175781 24.851562 58.128906 24.417969 58.800781 23.667969 C 59.390625 23.027344 59.730469 22.167969 59.738281 21.308594 C 59.753906 20.417969 59.433594 19.578125 58.835938 18.929688 C 58.195312 18.246094 57.320312 17.871094 56.375 17.871094 C 56.355469 17.871094 56.335938 17.871094 56.316406 17.871094 L 56.3125 17.871094 C 54.378906 17.894531 52.785156 19.496094 52.761719 21.433594 C 52.746094 22.359375 53.089844 23.226562 53.734375 23.871094 Z M 19.28125 24.488281 C 18.5 23.636719 18.042969 22.480469 18.03125 21.320312 C 18.007812 20.125 18.445312 18.976562 19.257812 18.097656 C 20.128906 17.171875 21.351562 16.644531 22.625 16.644531 C 22.648438 16.644531 22.671875 16.644531 22.699219 16.644531 C 25.28125 16.679688 27.417969 18.820312 27.460938 21.417969 C 27.480469 22.675781 27.007812 23.855469 26.128906 24.734375 C 25.261719 25.609375 24.101562 26.085938 22.855469 26.085938 C 22.835938 26.085938 22.816406 26.085938 22.792969 26.085938 C 21.46875 26.074219 20.1875 25.492188 19.28125 24.488281 Z M 19.253906 21.304688 C 19.265625 22.167969 19.605469 23.027344 20.1875 23.660156 C 20.867188 24.417969 21.820312 24.851562 22.808594 24.859375 C 23.761719 24.851562 24.613281 24.519531 25.261719 23.871094 C 25.902344 23.226562 26.25 22.363281 26.234375 21.4375 C 26.203125 19.496094 24.609375 17.894531 22.679688 17.871094 C 22.660156 17.871094 22.640625 17.871094 22.621094 17.871094 C 21.675781 17.871094 20.800781 18.246094 20.15625 18.933594 C 19.5625 19.578125 19.238281 20.417969 19.253906 21.304688 Z M 60.109375 44.667969 C 60.894531 45.515625 61.351562 46.671875 61.363281 47.835938 C 61.382812 49.03125 60.945312 50.175781 60.132812 51.058594 C 59.261719 51.984375 58.039062 52.507812 56.765625 52.507812 C 56.742188 52.507812 56.71875 52.507812 56.695312 52.507812 C 54.109375 52.476562 51.972656 50.335938 51.933594 47.738281 C 51.910156 46.480469 52.382812 45.300781 53.261719 44.417969 C 54.144531 43.53125 55.320312 43.019531 56.597656 43.070312 C 57.925781 43.078125 59.207031 43.664062 60.109375 44.667969 Z M 60.136719 47.851562 C 60.128906 46.984375 59.789062 46.128906 59.203125 45.492188 C 58.523438 44.738281 57.570312 44.304688 56.585938 44.296875 C 56.570312 44.296875 56.554688 44.296875 56.539062 44.296875 C 55.617188 44.296875 54.765625 44.644531 54.128906 45.285156 C 53.488281 45.929688 53.144531 46.792969 53.160156 47.71875 C 53.191406 49.660156 54.78125 51.257812 56.710938 51.28125 L 56.714844 51.28125 C 56.730469 51.285156 56.75 51.285156 56.769531 51.285156 C 57.71875 51.285156 58.59375 50.90625 59.238281 50.222656 C 59.832031 49.578125 60.152344 48.734375 60.136719 47.851562 Z M 60.136719 47.851562 " fill-opacity="1" fill-rule="nonzero"/></g></svg>