<svg xmlns="http://www.w3.org/2000/svg" xmlns:xlink="http://www.w3.org/1999/xlink" width="100" zoomAndPan="magnify" viewBox="0 0 75 74.999997" height="100" preserveAspectRatio="xMidYMid meet" version="1.0"><defs><clipPath id="7666fe8499"><path d="M 14.367188 46 L 60.867188 46 L 60.867188 58 L 14.367188 58 Z M 14.367188 46 " clip-rule="nonzero"/></clipPath><clipPath id="dbb50929df"><path d="M 28 59 L 50 59 L 50 63 L 28 63 Z M 28 59 " clip-rule="nonzero"/></clipPath><clipPath id="6da2089786"><path d="M 37 7.5 L 59 7.5 L 59 29 L 37 29 Z M 37 7.5 " clip-rule="nonzero"/></clipPath></defs><g clip-path="url(#7666fe8499)"><path fill="#2c74dd" d="M 55.179688 57.472656 L 19.820312 57.472656 C 16.808594 57.472656 14.367188 55.03125 14.367188 52.019531 C 14.367188 49.007812 16.808594 46.566406 19.820312 46.566406 L 55.167969 46.566406 C 58.179688 46.566406 60.621094 49.007812 60.621094 52.019531 C 60.621094 55.03125 58.179688 57.472656 55.179688 57.472656 Z M 19.820312 48.015625 C 17.609375 48.015625 15.820312 49.804688 15.820312 52.019531 C 15.820312 54.230469 17.609375 56.019531 19.820312 56.019531 L 55.167969 56.019531 C 57.378906 56.019531 59.171875 54.230469 59.171875 52.019531 C 59.171875 49.804688 57.378906 48.015625 55.167969 48.015625 Z M 19.820312 48.015625 " fill-opacity="1" fill-rule="nonzero"/></g><path fill="#2c74dd" d="M 54.914062 54.414062 C 53.597656 54.414062 52.519531 53.335938 52.519531 52.019531 C 52.519531 50.699219 53.597656 49.636719 54.914062 49.636719 C 56.230469 49.636719 57.308594 50.710938 57.308594 52.03125 C 57.308594 53.347656 56.230469 54.414062 54.914062 54.414062 Z M 54.914062 51.085938 C 54.394531 51.085938 53.972656 51.511719 53.972656 52.03125 C 53.972656 52.550781 54.394531 52.972656 54.914062 52.972656 C 55.433594 52.972656 55.855469 52.550781 55.855469 52.03125 C 55.855469 51.511719 55.433594 51.085938 54.914062 51.085938 Z M 54.914062 51.085938 " fill-opacity="1" fill-rule="nonzero"/><path fill="#2c74dd" d="M 46.207031 54.414062 C 44.890625 54.414062 43.8125 53.335938 43.8125 52.019531 C 43.8125 50.699219 44.890625 49.636719 46.207031 49.636719 C 47.527344 49.636719 48.601562 50.710938 48.601562 52.03125 C 48.601562 53.347656 47.527344 54.414062 46.207031 54.414062 Z M 46.207031 51.085938 C 45.6875 51.085938 45.265625 51.511719 45.265625 52.03125 C 45.265625 52.550781 45.6875 52.972656 46.207031 52.972656 C 46.726562 52.972656 47.152344 52.550781 47.152344 52.03125 C 47.152344 51.511719 46.726562 51.085938 46.207031 51.085938 Z M 46.207031 51.085938 " fill-opacity="1" fill-rule="nonzero"/><path fill="#2c74dd" d="M 37.5 54.414062 C 36.183594 54.414062 35.105469 53.335938 35.105469 52.019531 C 35.105469 50.699219 36.183594 49.636719 37.5 49.636719 C 38.820312 49.636719 39.894531 50.710938 39.894531 52.03125 C 39.894531 53.347656 38.820312 54.414062 37.5 54.414062 Z M 37.5 51.085938 C 36.980469 51.085938 36.558594 51.511719 36.558594 52.03125 C 36.558594 52.550781 36.980469 52.972656 37.5 52.972656 C 38.019531 52.972656 38.445312 52.550781 38.445312 52.03125 C 38.445312 51.511719 38.019531 51.085938 37.5 51.085938 Z M 37.5 51.085938 " fill-opacity="1" fill-rule="nonzero"/><path fill="#2c74dd" d="M 28.792969 54.414062 C 27.476562 54.414062 26.398438 53.335938 26.398438 52.019531 C 26.398438 50.699219 27.476562 49.636719 28.792969 49.636719 C 30.113281 49.636719 31.1875 50.710938 31.1875 52.03125 C 31.1875 53.347656 30.113281 54.414062 28.792969 54.414062 Z M 28.792969 51.085938 C 28.273438 51.085938 27.851562 51.511719 27.851562 52.03125 C 27.851562 52.550781 28.273438 52.972656 28.792969 52.972656 C 29.3125 52.972656 29.738281 52.550781 29.738281 52.03125 C 29.738281 51.511719 29.3125 51.085938 28.792969 51.085938 Z M 28.792969 51.085938 " fill-opacity="1" fill-rule="nonzero"/><path fill="#2c74dd" d="M 20.085938 54.414062 C 18.769531 54.414062 17.691406 53.335938 17.691406 52.019531 C 17.691406 50.699219 18.769531 49.636719 20.085938 49.636719 C 21.40625 49.636719 22.480469 50.710938 22.480469 52.03125 C 22.480469 53.347656 21.40625 54.414062 20.085938 54.414062 Z M 20.085938 51.085938 C 19.566406 51.085938 19.144531 51.511719 19.144531 52.03125 C 19.144531 52.550781 19.566406 52.972656 20.085938 52.972656 C 20.609375 52.972656 21.03125 52.550781 21.03125 52.03125 C 21.03125 51.511719 20.609375 51.085938 20.085938 51.085938 Z M 20.085938 51.085938 " fill-opacity="1" fill-rule="nonzero"/><path fill="#2c74dd" d="M 49.074219 61.34375 L 28.902344 61.34375 C 28.503906 61.34375 28.175781 61.015625 28.175781 60.617188 C 28.175781 60.21875 28.503906 59.890625 28.902344 59.890625 L 47.042969 59.890625 L 46.339844 59.324219 C 46.027344 59.070312 45.988281 58.609375 46.242188 58.308594 C 46.496094 57.992188 46.957031 57.957031 47.257812 58.210938 L 49.519531 60.070312 C 49.761719 60.265625 49.847656 60.59375 49.738281 60.882812 C 49.652344 61.148438 49.375 61.34375 49.074219 61.34375 Z M 49.074219 61.34375 " fill-opacity="1" fill-rule="nonzero"/><g clip-path="url(#dbb50929df)"><path fill="#2c74dd" d="M 46.8125 63.203125 C 46.605469 63.203125 46.402344 63.121094 46.253906 62.9375 C 46 62.625 46.050781 62.175781 46.351562 61.921875 L 47.054688 61.355469 L 28.914062 61.355469 C 28.515625 61.355469 28.191406 61.027344 28.191406 60.628906 C 28.191406 60.230469 28.515625 59.902344 28.914062 59.902344 L 49.074219 59.902344 C 49.375 59.902344 49.652344 60.097656 49.75 60.386719 C 49.859375 60.675781 49.761719 60.992188 49.53125 61.195312 L 47.269531 63.058594 C 47.136719 63.144531 46.96875 63.203125 46.8125 63.203125 Z M 46.8125 63.203125 " fill-opacity="1" fill-rule="nonzero"/></g><path fill="#2c74dd" d="M 32.335938 48.015625 L 20.546875 48.015625 C 20.148438 48.015625 19.820312 47.691406 19.820312 47.289062 L 19.820312 36.191406 C 19.820312 35.789062 20.148438 35.464844 20.546875 35.464844 L 32.335938 35.464844 C 32.734375 35.464844 33.0625 35.789062 33.0625 36.191406 L 33.0625 47.289062 C 33.0625 47.703125 32.734375 48.015625 32.335938 48.015625 Z M 21.273438 46.566406 L 31.613281 46.566406 L 31.613281 36.914062 L 21.273438 36.914062 Z M 21.273438 46.566406 " fill-opacity="1" fill-rule="nonzero"/><path fill="#2c74dd" d="M 28.308594 40.058594 L 24.683594 40.058594 C 24.285156 40.058594 23.957031 39.734375 23.957031 39.332031 L 23.957031 36.191406 C 23.957031 35.789062 24.285156 35.464844 24.683594 35.464844 L 28.308594 35.464844 C 28.710938 35.464844 29.035156 35.789062 29.035156 36.191406 L 29.035156 39.332031 C 29.035156 39.746094 28.710938 40.058594 28.308594 40.058594 Z M 25.40625 38.609375 L 27.585938 38.609375 L 27.585938 36.914062 L 25.40625 36.914062 Z M 25.40625 38.609375 " fill-opacity="1" fill-rule="nonzero"/><path fill="#2c74dd" d="M 52.714844 48.015625 L 41.46875 48.015625 C 41.066406 48.015625 40.742188 47.691406 40.742188 47.289062 L 40.742188 36.191406 C 40.742188 35.789062 41.066406 35.464844 41.46875 35.464844 L 52.714844 35.464844 C 53.113281 35.464844 53.4375 35.789062 53.4375 36.191406 L 53.4375 47.289062 C 53.4375 47.703125 53.113281 48.015625 52.714844 48.015625 Z M 42.191406 46.566406 L 51.988281 46.566406 L 51.988281 36.914062 L 42.191406 36.914062 Z M 42.191406 46.566406 " fill-opacity="1" fill-rule="nonzero"/><path fill="#2c74dd" d="M 48.867188 40.058594 L 45.410156 40.058594 C 45.011719 40.058594 44.683594 39.734375 44.683594 39.332031 L 44.683594 36.191406 C 44.683594 35.789062 45.011719 35.464844 45.410156 35.464844 L 48.867188 35.464844 C 49.265625 35.464844 49.59375 35.789062 49.59375 36.191406 L 49.59375 39.332031 C 49.59375 39.746094 49.265625 40.058594 48.867188 40.058594 Z M 46.136719 38.609375 L 48.140625 38.609375 L 48.140625 36.914062 L 46.136719 36.914062 Z M 46.136719 38.609375 " fill-opacity="1" fill-rule="nonzero"/><path fill="#2c74dd" d="M 55.53125 36.238281 C 55.253906 36.238281 54.988281 36.070312 54.867188 35.800781 C 54.707031 35.441406 54.878906 35.003906 55.242188 34.847656 C 55.808594 34.605469 56.859375 34.023438 57.476562 32.863281 C 58.324219 31.304688 58.105469 29.222656 56.933594 27.566406 C 56.703125 27.242188 56.777344 26.78125 57.101562 26.550781 C 57.429688 26.320312 57.890625 26.394531 58.117188 26.722656 C 59.628906 28.863281 59.871094 31.484375 58.746094 33.554688 C 57.914062 35.089844 56.546875 35.851562 55.808594 36.175781 C 55.722656 36.214844 55.628906 36.238281 55.53125 36.238281 Z M 55.53125 36.238281 " fill-opacity="1" fill-rule="nonzero"/><path fill="#2c74dd" d="M 57.585938 37.460938 C 57.5 37.460938 57.417969 37.445312 57.332031 37.410156 L 54.648438 36.382812 C 54.332031 36.261719 54.140625 35.933594 54.1875 35.597656 L 54.574219 32.960938 C 54.636719 32.5625 55 32.296875 55.398438 32.34375 C 55.796875 32.40625 56.0625 32.765625 56.015625 33.167969 L 55.710938 35.234375 L 57.851562 36.054688 C 58.226562 36.203125 58.410156 36.625 58.277344 36.988281 C 58.15625 37.277344 57.875 37.460938 57.585938 37.460938 Z M 57.585938 37.460938 " fill-opacity="1" fill-rule="nonzero"/><path fill="#2c74dd" d="M 39.703125 31.882812 L 22.664062 31.882812 C 22.265625 31.882812 21.9375 31.558594 21.9375 31.160156 C 21.9375 30.761719 22.265625 30.433594 22.664062 30.433594 L 37.828125 30.433594 L 36.800781 29.488281 C 36.507812 29.222656 36.484375 28.765625 36.75 28.460938 C 37.015625 28.171875 37.476562 28.148438 37.777344 28.414062 L 40.183594 30.613281 C 40.402344 30.820312 40.476562 31.136719 40.367188 31.414062 C 40.269531 31.691406 40.003906 31.882812 39.703125 31.882812 Z M 39.703125 31.882812 " fill-opacity="1" fill-rule="nonzero"/><path fill="#2c74dd" d="M 37.28125 34.085938 C 37.089844 34.085938 36.894531 34 36.75 33.84375 C 36.484375 33.554688 36.496094 33.09375 36.800781 32.816406 L 37.828125 31.871094 L 22.664062 31.871094 C 22.265625 31.871094 21.9375 31.546875 21.9375 31.148438 C 21.9375 30.746094 22.265625 30.421875 22.664062 30.421875 L 39.703125 30.421875 C 40.003906 30.421875 40.269531 30.601562 40.378906 30.878906 C 40.488281 31.160156 40.414062 31.472656 40.199219 31.679688 L 37.789062 33.878906 C 37.632812 34.011719 37.464844 34.085938 37.28125 34.085938 Z M 37.28125 34.085938 " fill-opacity="1" fill-rule="nonzero"/><path fill="#2c74dd" d="M 16.496094 32.984375 C 16.097656 32.984375 15.769531 32.660156 15.769531 32.257812 L 15.769531 26.007812 C 15.769531 23.382812 17.910156 21.242188 20.535156 21.242188 C 20.933594 21.242188 21.261719 21.570312 21.261719 21.96875 C 21.261719 22.367188 20.933594 22.695312 20.535156 22.695312 C 18.707031 22.695312 17.222656 24.179688 17.222656 26.007812 L 17.222656 32.257812 C 17.222656 32.660156 16.90625 32.984375 16.496094 32.984375 Z M 16.496094 32.984375 " fill-opacity="1" fill-rule="nonzero"/><path fill="#2c74dd" d="M 19.90625 24.207031 C 19.773438 24.207031 19.628906 24.167969 19.507812 24.085938 C 19.167969 23.867188 19.082031 23.417969 19.300781 23.082031 L 20.097656 21.871094 L 19.121094 20.988281 C 18.816406 20.722656 18.804688 20.261719 19.070312 19.960938 C 19.335938 19.660156 19.796875 19.648438 20.097656 19.914062 L 21.539062 21.21875 C 21.804688 21.460938 21.851562 21.859375 21.660156 22.148438 L 20.523438 23.878906 C 20.378906 24.085938 20.148438 24.207031 19.90625 24.207031 Z M 19.90625 24.207031 " fill-opacity="1" fill-rule="nonzero"/><path fill="#2c74dd" d="M 29.761719 23.480469 C 28.082031 23.480469 26.726562 22.113281 26.726562 20.445312 C 26.726562 18.777344 28.09375 17.410156 29.761719 17.410156 C 31.429688 17.410156 32.796875 18.777344 32.796875 20.445312 C 32.796875 22.113281 31.429688 23.480469 29.761719 23.480469 Z M 29.761719 18.847656 C 28.890625 18.847656 28.175781 19.5625 28.175781 20.433594 C 28.175781 21.304688 28.890625 22.015625 29.761719 22.015625 C 30.632812 22.015625 31.34375 21.304688 31.34375 20.433594 C 31.34375 19.5625 30.632812 18.847656 29.761719 18.847656 Z M 29.761719 18.847656 " fill-opacity="1" fill-rule="nonzero"/><path fill="#2c74dd" d="M 29.761719 26.1875 C 26.59375 26.1875 24.015625 23.613281 24.015625 20.445312 C 24.015625 17.277344 26.582031 14.6875 29.761719 14.6875 C 32.941406 14.6875 35.503906 17.265625 35.503906 20.433594 C 35.503906 23.601562 32.929688 26.1875 29.761719 26.1875 Z M 29.761719 16.140625 C 27.390625 16.140625 25.46875 18.0625 25.46875 20.433594 C 25.46875 22.804688 27.390625 24.726562 29.761719 24.726562 C 32.132812 24.726562 34.054688 22.804688 34.054688 20.433594 C 34.054688 18.0625 32.121094 16.140625 29.761719 16.140625 Z M 29.761719 16.140625 " fill-opacity="1" fill-rule="nonzero"/><path fill="#2c74dd" d="M 29.761719 16.140625 C 29.363281 16.140625 29.035156 15.8125 29.035156 15.414062 L 29.035156 13.625 C 29.035156 13.226562 29.363281 12.898438 29.761719 12.898438 C 30.160156 12.898438 30.488281 13.226562 30.488281 13.625 L 30.488281 15.414062 C 30.488281 15.824219 30.160156 16.140625 29.761719 16.140625 Z M 29.761719 16.140625 " fill-opacity="1" fill-rule="nonzero"/><path fill="#2c74dd" d="M 33.304688 17.617188 C 33.125 17.617188 32.929688 17.542969 32.796875 17.398438 C 32.519531 17.121094 32.519531 16.660156 32.796875 16.371094 L 34.066406 15.101562 C 34.34375 14.820312 34.804688 14.820312 35.09375 15.101562 C 35.371094 15.378906 35.371094 15.835938 35.09375 16.128906 L 33.824219 17.398438 C 33.679688 17.542969 33.5 17.617188 33.304688 17.617188 Z M 33.304688 17.617188 " fill-opacity="1" fill-rule="nonzero"/><path fill="#2c74dd" d="M 36.570312 21.171875 L 34.78125 21.171875 C 34.378906 21.171875 34.054688 20.84375 34.054688 20.445312 C 34.054688 20.046875 34.378906 19.71875 34.78125 19.71875 L 36.570312 19.71875 C 36.96875 19.71875 37.296875 20.046875 37.296875 20.445312 C 37.296875 20.84375 36.96875 21.171875 36.570312 21.171875 Z M 36.570312 21.171875 " fill-opacity="1" fill-rule="nonzero"/><path fill="#2c74dd" d="M 34.574219 25.984375 C 34.394531 25.984375 34.199219 25.910156 34.066406 25.765625 L 32.796875 24.496094 C 32.519531 24.21875 32.519531 23.757812 32.796875 23.46875 C 33.074219 23.191406 33.535156 23.191406 33.824219 23.46875 L 35.09375 24.738281 C 35.371094 25.015625 35.371094 25.476562 35.09375 25.765625 C 34.949219 25.910156 34.753906 25.984375 34.574219 25.984375 Z M 34.574219 25.984375 " fill-opacity="1" fill-rule="nonzero"/><path fill="#2c74dd" d="M 29.761719 27.980469 C 29.363281 27.980469 29.035156 27.652344 29.035156 27.253906 L 29.035156 25.464844 C 29.035156 25.0625 29.363281 24.738281 29.761719 24.738281 C 30.160156 24.738281 30.488281 25.0625 30.488281 25.464844 L 30.488281 27.253906 C 30.488281 27.652344 30.160156 27.980469 29.761719 27.980469 Z M 29.761719 27.980469 " fill-opacity="1" fill-rule="nonzero"/><path fill="#2c74dd" d="M 24.9375 25.984375 C 24.753906 25.984375 24.5625 25.910156 24.429688 25.765625 C 24.152344 25.488281 24.152344 25.027344 24.429688 24.738281 L 25.699219 23.46875 C 25.976562 23.191406 26.4375 23.191406 26.726562 23.46875 C 27.003906 23.746094 27.003906 24.207031 26.726562 24.496094 L 25.457031 25.765625 C 25.3125 25.910156 25.117188 25.984375 24.9375 25.984375 Z M 24.9375 25.984375 " fill-opacity="1" fill-rule="nonzero"/><path fill="#2c74dd" d="M 24.730469 21.171875 L 22.941406 21.171875 C 22.542969 21.171875 22.214844 20.84375 22.214844 20.445312 C 22.214844 20.046875 22.542969 19.71875 22.941406 19.71875 L 24.730469 19.71875 C 25.128906 19.71875 25.457031 20.046875 25.457031 20.445312 C 25.457031 20.84375 25.128906 21.171875 24.730469 21.171875 Z M 24.730469 21.171875 " fill-opacity="1" fill-rule="nonzero"/><path fill="#2c74dd" d="M 26.207031 17.617188 C 26.023438 17.617188 25.832031 17.542969 25.699219 17.398438 L 24.429688 16.140625 C 24.152344 15.863281 24.152344 15.402344 24.429688 15.113281 C 24.707031 14.820312 25.167969 14.835938 25.457031 15.113281 L 26.714844 16.382812 C 26.992188 16.660156 26.992188 17.121094 26.714844 17.410156 C 26.582031 17.542969 26.386719 17.617188 26.207031 17.617188 Z M 26.207031 17.617188 " fill-opacity="1" fill-rule="nonzero"/><path fill="#2c74dd" d="M 48.238281 23.070312 C 45.507812 23.070312 43.292969 20.855469 43.292969 18.125 C 43.292969 15.390625 45.507812 13.175781 48.238281 13.175781 C 50.972656 13.175781 53.183594 15.390625 53.183594 18.125 C 53.183594 20.855469 50.960938 23.070312 48.238281 23.070312 Z M 48.238281 14.628906 C 46.316406 14.628906 44.746094 16.199219 44.746094 18.125 C 44.746094 20.046875 46.316406 21.617188 48.238281 21.617188 C 50.160156 21.617188 51.734375 20.046875 51.734375 18.125 C 51.734375 16.199219 50.160156 14.628906 48.238281 14.628906 Z M 48.238281 14.628906 " fill-opacity="1" fill-rule="nonzero"/><g clip-path="url(#6da2089786)"><path fill="#2c74dd" d="M 49.628906 28.714844 L 46.835938 28.714844 C 46.4375 28.714844 46.109375 28.390625 46.109375 27.992188 L 46.109375 26.40625 C 45.324219 26.199219 44.574219 25.898438 43.875 25.476562 L 42.75 26.601562 C 42.617188 26.734375 42.421875 26.816406 42.242188 26.816406 C 42.046875 26.816406 41.867188 26.746094 41.734375 26.601562 L 39.761719 24.628906 C 39.628906 24.496094 39.542969 24.300781 39.542969 24.121094 C 39.542969 23.941406 39.617188 23.746094 39.761719 23.613281 L 40.886719 22.488281 C 40.476562 21.789062 40.160156 21.039062 39.957031 20.25 L 38.371094 20.25 C 37.972656 20.25 37.644531 19.925781 37.644531 19.527344 L 37.644531 16.734375 C 37.644531 16.332031 37.972656 16.007812 38.371094 16.007812 L 39.957031 16.007812 C 40.160156 15.222656 40.464844 14.472656 40.886719 13.769531 L 39.761719 12.644531 C 39.628906 12.511719 39.542969 12.320312 39.542969 12.136719 C 39.542969 11.957031 39.617188 11.761719 39.761719 11.628906 L 41.734375 9.644531 C 41.867188 9.511719 42.058594 9.429688 42.242188 9.429688 C 42.433594 9.429688 42.617188 9.5 42.75 9.644531 L 43.875 10.769531 C 44.574219 10.359375 45.324219 10.046875 46.109375 9.839844 L 46.109375 8.253906 C 46.109375 7.855469 46.4375 7.53125 46.835938 7.53125 L 49.628906 7.53125 C 50.027344 7.53125 50.355469 7.855469 50.355469 8.253906 L 50.355469 9.839844 C 51.140625 10.046875 51.890625 10.347656 52.59375 10.769531 L 53.71875 9.644531 C 53.851562 9.511719 54.042969 9.429688 54.226562 9.429688 C 54.417969 9.429688 54.597656 9.5 54.734375 9.644531 L 56.703125 11.617188 C 56.835938 11.75 56.921875 11.945312 56.921875 12.125 C 56.921875 12.308594 56.847656 12.5 56.703125 12.632812 L 55.578125 13.757812 C 55.988281 14.460938 56.304688 15.207031 56.511719 15.996094 L 58.09375 15.996094 C 58.492188 15.996094 58.820312 16.320312 58.820312 16.71875 L 58.820312 19.527344 C 58.820312 19.925781 58.492188 20.25 58.09375 20.25 L 56.511719 20.25 C 56.304688 21.039062 56.003906 21.789062 55.578125 22.488281 L 56.703125 23.613281 C 56.835938 23.746094 56.921875 23.941406 56.921875 24.121094 C 56.921875 24.300781 56.847656 24.496094 56.703125 24.628906 L 54.734375 26.601562 C 54.597656 26.734375 54.40625 26.816406 54.226562 26.816406 C 54.03125 26.816406 53.851562 26.746094 53.71875 26.601562 L 52.59375 25.476562 C 51.890625 25.886719 51.140625 26.199219 50.355469 26.40625 L 50.355469 27.992188 C 50.355469 28.390625 50.027344 28.714844 49.628906 28.714844 Z M 47.574219 27.265625 L 48.917969 27.265625 L 48.917969 25.828125 C 48.917969 25.476562 49.171875 25.171875 49.507812 25.113281 C 50.511719 24.929688 51.445312 24.542969 52.289062 23.964844 C 52.582031 23.757812 52.96875 23.792969 53.222656 24.046875 L 54.238281 25.0625 L 55.179688 24.121094 L 54.164062 23.105469 C 53.910156 22.851562 53.886719 22.464844 54.078125 22.175781 C 54.660156 21.339844 55.046875 20.398438 55.226562 19.394531 C 55.289062 19.042969 55.589844 18.800781 55.941406 18.800781 L 57.378906 18.800781 L 57.378906 17.457031 L 55.941406 17.457031 C 55.589844 17.457031 55.289062 17.203125 55.226562 16.867188 C 55.046875 15.863281 54.660156 14.929688 54.078125 14.085938 C 53.875 13.792969 53.910156 13.40625 54.164062 13.152344 L 55.179688 12.136719 L 54.238281 11.195312 L 53.222656 12.210938 C 52.96875 12.464844 52.582031 12.488281 52.289062 12.292969 C 51.457031 11.714844 50.511719 11.328125 49.507812 11.144531 C 49.15625 11.085938 48.917969 10.78125 48.917969 10.433594 L 48.917969 8.980469 L 47.574219 8.980469 L 47.574219 10.421875 C 47.574219 10.769531 47.320312 11.074219 46.980469 11.132812 C 45.976562 11.316406 45.046875 11.703125 44.199219 12.28125 C 43.910156 12.488281 43.523438 12.453125 43.269531 12.199219 L 42.253906 11.183594 L 41.308594 12.125 L 42.324219 13.140625 C 42.578125 13.394531 42.605469 13.78125 42.410156 14.070312 C 41.828125 14.90625 41.441406 15.851562 41.261719 16.855469 C 41.199219 17.203125 40.898438 17.445312 40.546875 17.445312 L 39.109375 17.445312 L 39.109375 18.800781 L 40.546875 18.800781 C 40.898438 18.800781 41.199219 19.054688 41.261719 19.394531 C 41.441406 20.398438 41.828125 21.328125 42.410156 22.175781 C 42.617188 22.464844 42.578125 22.851562 42.324219 23.105469 L 41.308594 24.121094 L 42.253906 25.0625 L 43.269531 24.046875 C 43.523438 23.792969 43.910156 23.769531 44.199219 23.964844 C 45.035156 24.542969 45.976562 24.929688 46.980469 25.113281 C 47.332031 25.171875 47.574219 25.476562 47.574219 25.828125 Z M 47.574219 27.265625 " fill-opacity="1" fill-rule="nonzero"/></g></svg>