<svg xmlns="http://www.w3.org/2000/svg" xmlns:xlink="http://www.w3.org/1999/xlink" width="100" zoomAndPan="magnify" viewBox="0 0 75 74.999997" height="100" preserveAspectRatio="xMidYMid meet" version="1.0"><defs><clipPath id="1e2650a546"><path d="M 19.023438 9.894531 L 55.773438 9.894531 L 55.773438 60.894531 L 19.023438 60.894531 Z M 19.023438 9.894531 " clip-rule="nonzero"/></clipPath></defs><g clip-path="url(#1e2650a546)"><path fill="#2c74dd" d="M 36.863281 12.894531 L 36.863281 10.523438 C 36.863281 10.175781 37.148438 9.894531 37.496094 9.894531 C 37.84375 9.894531 38.128906 10.175781 38.128906 10.523438 L 38.128906 12.894531 C 38.128906 13.246094 37.84375 13.527344 37.496094 13.527344 C 37.148438 13.527344 36.863281 13.246094 36.863281 12.894531 Z M 26.488281 17.714844 C 26.609375 17.839844 26.773438 17.902344 26.933594 17.902344 C 27.09375 17.902344 27.257812 17.839844 27.378906 17.714844 C 27.625 17.46875 27.625 17.070312 27.378906 16.824219 L 25.703125 15.144531 C 25.457031 14.898438 25.058594 14.898438 24.8125 15.144531 C 24.566406 15.390625 24.566406 15.792969 24.8125 16.039062 Z M 20.1875 28.464844 L 22.558594 28.464844 C 22.90625 28.464844 23.191406 28.179688 23.191406 27.832031 C 23.191406 27.484375 22.90625 27.203125 22.558594 27.203125 L 20.1875 27.203125 C 19.839844 27.203125 19.558594 27.484375 19.558594 27.832031 C 19.558594 28.179688 19.839844 28.464844 20.1875 28.464844 Z M 48.058594 17.902344 C 48.21875 17.902344 48.382812 17.839844 48.503906 17.714844 L 50.179688 16.039062 C 50.425781 15.792969 50.425781 15.394531 50.179688 15.144531 C 49.933594 14.898438 49.535156 14.898438 49.289062 15.144531 L 47.613281 16.824219 C 47.367188 17.070312 47.367188 17.46875 47.613281 17.714844 C 47.734375 17.839844 47.898438 17.902344 48.058594 17.902344 Z M 52.433594 28.464844 L 54.804688 28.464844 C 55.152344 28.464844 55.433594 28.179688 55.433594 27.832031 C 55.433594 27.484375 55.152344 27.203125 54.804688 27.203125 L 52.433594 27.203125 C 52.085938 27.203125 51.800781 27.484375 51.800781 27.832031 C 51.800781 28.179688 52.085938 28.464844 52.433594 28.464844 Z M 33.597656 28.40625 C 33.5 28.210938 33.507812 27.972656 33.625 27.785156 L 38.050781 20.667969 C 38.207031 20.421875 38.503906 20.3125 38.777344 20.398438 C 39.054688 20.488281 39.234375 20.75 39.21875 21.035156 L 38.972656 25.402344 L 40.871094 25.527344 C 41.09375 25.542969 41.292969 25.671875 41.394531 25.871094 C 41.492188 26.070312 41.484375 26.304688 41.367188 26.492188 L 36.546875 34.171875 C 36.425781 34.363281 36.222656 34.46875 36.011719 34.46875 C 35.945312 34.46875 35.875 34.457031 35.808594 34.433594 C 35.53125 34.339844 35.355469 34.070312 35.382812 33.78125 L 35.828125 28.871094 L 34.113281 28.75 C 33.894531 28.734375 33.699219 28.601562 33.597656 28.40625 Z M 35.25 27.5625 L 36.558594 27.65625 C 36.730469 27.667969 36.886719 27.75 36.996094 27.878906 C 37.105469 28.007812 37.160156 28.175781 37.144531 28.34375 L 36.875 31.269531 L 39.734375 26.71875 L 38.265625 26.621094 C 37.921875 26.597656 37.65625 26.300781 37.679688 25.953125 L 37.820312 23.433594 L 35.25 27.566406 Z M 55.945312 40.335938 L 55.945312 43.964844 C 55.945312 44.832031 55.417969 45.578125 54.59375 45.863281 L 52.304688 46.660156 C 52.011719 47.617188 51.625 48.546875 51.152344 49.429688 L 52.210938 51.617188 C 52.589844 52.398438 52.4375 53.300781 51.824219 53.914062 L 49.261719 56.480469 C 48.644531 57.09375 47.742188 57.246094 46.960938 56.867188 L 44.777344 55.808594 C 43.890625 56.28125 42.960938 56.667969 42.003906 56.957031 L 41.207031 59.25 C 40.921875 60.070312 40.179688 60.601562 39.308594 60.601562 L 35.683594 60.601562 C 34.8125 60.601562 34.070312 60.070312 33.785156 59.25 L 32.988281 56.957031 C 32.03125 56.667969 31.101562 56.28125 30.214844 55.808594 L 28.03125 56.867188 C 27.25 57.246094 26.347656 57.09375 25.730469 56.480469 L 23.167969 53.914062 C 22.550781 53.300781 22.402344 52.398438 22.78125 51.617188 L 23.839844 49.433594 C 23.367188 48.546875 22.980469 47.617188 22.6875 46.660156 L 20.394531 45.863281 C 19.574219 45.578125 19.046875 44.835938 19.046875 43.964844 L 19.046875 40.335938 C 19.046875 39.46875 19.574219 38.722656 20.394531 38.4375 L 22.6875 37.644531 C 22.980469 36.6875 23.367188 35.757812 23.839844 34.871094 L 22.777344 32.683594 C 22.398438 31.902344 22.550781 31 23.164062 30.386719 L 25.730469 27.820312 C 25.839844 27.710938 25.960938 27.617188 26.089844 27.535156 C 26.089844 27.496094 26.089844 27.457031 26.089844 27.417969 C 26.089844 21.132812 31.207031 16.015625 37.492188 16.015625 C 43.78125 16.015625 48.898438 21.132812 48.898438 27.417969 C 48.898438 27.457031 48.894531 27.496094 48.894531 27.535156 C 49.023438 27.617188 49.144531 27.710938 49.257812 27.820312 L 51.820312 30.386719 C 52.4375 31 52.589844 31.902344 52.207031 32.683594 L 51.148438 34.871094 C 51.621094 35.753906 52.007812 36.683594 52.300781 37.644531 L 54.59375 38.4375 C 55.414062 38.722656 55.941406 39.46875 55.941406 40.335938 Z M 27.355469 27.417969 C 27.355469 30.503906 28.734375 33.386719 31.144531 35.324219 C 32.347656 36.292969 33.105469 37.554688 33.371094 39.007812 C 33.410156 39.003906 33.449219 39 33.488281 39 L 41.5 39 C 41.542969 39 41.582031 39.003906 41.617188 39.007812 C 41.886719 37.554688 42.644531 36.292969 43.847656 35.324219 C 46.253906 33.386719 47.636719 30.503906 47.636719 27.417969 C 47.636719 21.824219 43.085938 17.277344 37.496094 17.277344 C 31.90625 17.277344 27.355469 21.828125 27.355469 27.417969 Z M 27.980469 42.152344 C 27.980469 47.398438 32.25 51.667969 37.496094 51.667969 C 42.742188 51.667969 47.011719 47.398438 47.011719 42.152344 C 47.011719 39.9375 46.25 37.824219 44.859375 36.125 C 44.785156 36.1875 44.714844 36.25 44.636719 36.308594 C 43.605469 37.140625 42.980469 38.242188 42.816406 39.511719 C 43.210938 39.871094 43.460938 40.386719 43.460938 40.957031 C 43.460938 41.46875 43.261719 41.933594 42.9375 42.28125 C 43.261719 42.632812 43.460938 43.097656 43.460938 43.609375 C 43.460938 44.6875 42.582031 45.5625 41.503906 45.5625 L 40.820312 45.5625 L 40.601562 46.664062 C 40.480469 47.269531 39.964844 47.691406 39.351562 47.691406 L 35.640625 47.691406 C 35.027344 47.691406 34.511719 47.269531 34.390625 46.664062 L 34.171875 45.5625 L 33.488281 45.5625 C 32.410156 45.5625 31.53125 44.6875 31.53125 43.609375 C 31.53125 43.097656 31.730469 42.632812 32.054688 42.28125 C 31.730469 41.933594 31.53125 41.46875 31.53125 40.957031 C 31.53125 40.382812 31.78125 39.871094 32.171875 39.511719 C 32.011719 38.242188 31.386719 37.140625 30.351562 36.308594 C 30.277344 36.25 30.203125 36.1875 30.132812 36.125 C 28.742188 37.820312 27.980469 39.9375 27.980469 42.148438 Z M 41.503906 42.914062 C 41.503906 42.914062 33.492188 42.914062 33.492188 42.914062 C 33.109375 42.914062 32.796875 43.226562 32.796875 43.609375 C 32.796875 43.992188 33.109375 44.304688 33.492188 44.304688 L 41.503906 44.304688 C 41.886719 44.304688 42.195312 43.992188 42.195312 43.609375 C 42.195312 43.226562 41.886719 42.914062 41.503906 42.914062 Z M 35.460938 45.566406 L 35.632812 46.417969 C 35.632812 46.429688 35.632812 46.429688 35.640625 46.429688 L 39.351562 46.429688 C 39.359375 46.429688 39.359375 46.429688 39.363281 46.417969 L 39.53125 45.566406 Z M 41.503906 40.261719 L 33.492188 40.261719 C 33.109375 40.261719 32.796875 40.574219 32.796875 40.957031 C 32.796875 41.339844 33.109375 41.652344 33.492188 41.652344 L 41.503906 41.652344 C 41.886719 41.652344 42.195312 41.339844 42.195312 40.957031 C 42.195312 40.574219 41.886719 40.261719 41.503906 40.261719 Z M 54.683594 40.335938 C 54.683594 40.007812 54.492188 39.738281 54.179688 39.628906 L 51.582031 38.726562 C 51.386719 38.660156 51.238281 38.5 51.179688 38.300781 C 50.878906 37.222656 50.445312 36.175781 49.894531 35.195312 C 49.792969 35.015625 49.785156 34.796875 49.875 34.609375 L 51.074219 32.132812 C 51.21875 31.835938 51.164062 31.507812 50.929688 31.277344 L 48.773438 29.117188 C 48.429688 31.425781 47.386719 33.558594 45.78125 35.253906 C 47.390625 37.1875 48.273438 39.613281 48.273438 42.148438 C 48.273438 48.09375 43.441406 52.925781 37.496094 52.925781 C 31.550781 52.925781 26.71875 48.09375 26.71875 42.148438 C 26.71875 39.613281 27.597656 37.1875 29.210938 35.253906 C 27.601562 33.558594 26.5625 31.425781 26.21875 29.117188 L 24.058594 31.277344 C 23.828125 31.507812 23.773438 31.835938 23.914062 32.132812 L 25.117188 34.609375 C 25.207031 34.796875 25.199219 35.011719 25.097656 35.195312 C 24.546875 36.175781 24.113281 37.222656 23.8125 38.300781 C 23.753906 38.5 23.605469 38.65625 23.410156 38.726562 L 20.808594 39.628906 C 20.5 39.734375 20.308594 40.007812 20.308594 40.335938 L 20.308594 43.964844 C 20.308594 44.292969 20.5 44.5625 20.808594 44.671875 L 23.410156 45.574219 C 23.605469 45.640625 23.753906 45.800781 23.8125 46 C 24.113281 47.082031 24.546875 48.125 25.097656 49.105469 C 25.199219 49.285156 25.207031 49.503906 25.117188 49.691406 L 23.914062 52.167969 C 23.773438 52.464844 23.828125 52.789062 24.058594 53.023438 L 26.625 55.585938 C 26.855469 55.820312 27.183594 55.875 27.480469 55.730469 L 29.957031 54.53125 C 30.144531 54.441406 30.363281 54.449219 30.542969 54.546875 C 31.523438 55.101562 32.570312 55.535156 33.648438 55.835938 C 33.847656 55.890625 34.003906 56.042969 34.074219 56.238281 L 34.976562 58.835938 C 35.082031 59.148438 35.355469 59.339844 35.683594 59.339844 L 39.3125 59.339844 C 39.640625 59.339844 39.910156 59.148438 40.019531 58.835938 L 40.921875 56.238281 C 40.988281 56.042969 41.148438 55.890625 41.347656 55.835938 C 42.425781 55.53125 43.472656 55.101562 44.453125 54.546875 C 44.632812 54.449219 44.851562 54.441406 45.035156 54.53125 L 47.515625 55.730469 C 47.808594 55.875 48.136719 55.820312 48.371094 55.585938 L 50.933594 53.023438 C 51.167969 52.789062 51.222656 52.464844 51.078125 52.167969 L 49.878906 49.691406 C 49.785156 49.503906 49.792969 49.285156 49.894531 49.105469 C 50.445312 48.125 50.878906 47.078125 51.183594 46 C 51.238281 45.800781 51.386719 45.640625 51.582031 45.574219 L 54.183594 44.671875 C 54.492188 44.5625 54.6875 44.292969 54.6875 43.964844 L 54.6875 40.335938 Z M 54.683594 40.335938 " fill-opacity="1" fill-rule="nonzero"/></g></svg>