<svg xmlns="http://www.w3.org/2000/svg" xmlns:xlink="http://www.w3.org/1999/xlink" width="100" zoomAndPan="magnify" viewBox="0 0 75 74.999997" height="100" preserveAspectRatio="xMidYMid meet" version="1.0"><defs><clipPath id="375b3eaaf0"><path d="M 16.085938 7.5 L 61 7.5 L 61 67.5 L 16.085938 67.5 Z M 16.085938 7.5 " clip-rule="nonzero"/></clipPath></defs><g clip-path="url(#375b3eaaf0)"><path fill="#2c74dd" d="M 31.34375 14.566406 C 31.34375 16.253906 32.597656 19.316406 35.039062 23.644531 L 16.808594 29.574219 C 16.492188 29.691406 16.257812 29.9375 16.160156 30.230469 L 16.101562 30.269531 L 16.113281 34.578125 C 16.03125 35.128906 16.304688 35.636719 16.800781 35.8125 L 25.75 38.917969 L 16.78125 41.839844 C 16.472656 41.96875 16.25 42.207031 16.15625 42.496094 L 16.101562 42.53125 L 16.113281 46.835938 C 16.03125 47.375 16.289062 47.871094 16.800781 48.082031 L 25.367188 51.050781 L 16.820312 53.832031 C 16.628906 53.898438 16.464844 54.019531 16.34375 54.164062 L 16.101562 54.171875 L 16.101562 58.851562 C 16.03125 59.40625 16.308594 59.898438 16.800781 60.074219 L 38.039062 67.453125 L 38.644531 67.496094 L 60.015625 60.074219 L 60.035156 60.066406 C 60.210938 60 60.582031 59.800781 60.6875 59.269531 L 60.714844 55.027344 L 60.703125 54.839844 C 60.707031 54.785156 60.710938 54.734375 60.707031 54.679688 C 60.703125 54.664062 60.695312 54.648438 60.691406 54.636719 L 60.691406 54.578125 L 60.671875 54.566406 C 60.585938 54.222656 60.335938 53.945312 59.976562 53.824219 L 51.449219 51.050781 L 60.015625 48.082031 L 60.058594 48.0625 C 60.53125 47.871094 60.785156 47.375 60.699219 46.832031 L 60.699219 43.03125 L 60.6875 42.832031 C 60.6875 42.773438 60.714844 42.71875 60.707031 42.65625 C 60.699219 42.609375 60.679688 42.566406 60.664062 42.523438 L 60.636719 42.140625 L 60.453125 42.144531 C 60.332031 42.007812 60.175781 41.898438 59.976562 41.816406 L 51.066406 38.917969 L 60.015625 35.8125 L 60.019531 35.808594 C 60.515625 35.632812 60.785156 35.136719 60.699219 34.578125 L 60.699219 30.699219 C 60.710938 30.617188 60.71875 30.535156 60.710938 30.449219 C 60.707031 30.398438 60.6875 30.355469 60.675781 30.308594 L 60.675781 30.292969 L 60.671875 30.292969 C 60.582031 29.953125 60.324219 29.671875 59.976562 29.5625 L 50.792969 26.566406 L 49.839844 26.257812 L 49.167969 26.039062 L 41.777344 23.644531 C 44.21875 19.320312 45.472656 16.257812 45.472656 14.566406 C 45.472656 10.671875 42.300781 7.503906 38.40625 7.503906 C 34.511719 7.503906 31.34375 10.671875 31.34375 14.566406 Z M 31.730469 32.15625 L 34.175781 33.183594 C 34.386719 33.273438 34.527344 33.46875 34.546875 33.6875 C 34.554688 33.761719 34.550781 33.835938 34.53125 33.910156 L 34.058594 35.761719 L 19.058594 30.554688 L 28.417969 27.515625 L 29.988281 28.464844 C 30.15625 28.566406 30.265625 28.75 30.28125 28.941406 L 30.300781 29.359375 L 30.292969 29.359375 L 30.332031 29.871094 L 30.390625 31.007812 L 30.566406 31 C 30.796875 31.507812 31.195312 31.925781 31.730469 32.15625 Z M 38.410156 65.851562 L 17.734375 58.671875 L 17.734375 56.082031 L 38.039062 63.136719 L 38.113281 63.144531 C 38.214844 63.171875 38.316406 63.203125 38.417969 63.203125 C 38.546875 63.203125 38.667969 63.179688 38.777344 63.136719 L 59.082031 56.074219 L 59.082031 58.671875 Z M 57.742188 54.8125 L 38.410156 61.535156 L 36.859375 61 L 19.066406 54.816406 L 27.917969 51.9375 L 38.039062 55.445312 L 38.507812 55.492188 L 38.53125 55.480469 L 38.644531 55.492188 L 48.898438 51.9375 Z M 59.070312 46.683594 L 48.878906 50.214844 L 48.875 50.214844 L 38.410156 53.847656 L 27.941406 50.214844 L 27.9375 50.214844 L 17.746094 46.683594 L 17.738281 44.085938 L 36.316406 50.53125 L 38.042969 51.128906 L 38.09375 51.132812 C 38.25 51.183594 38.40625 51.191406 38.558594 51.167969 L 38.644531 51.175781 L 38.773438 51.128906 L 59.070312 44.089844 Z M 57.765625 42.8125 L 42.9375 47.960938 L 38.40625 49.53125 L 24.265625 44.628906 L 19.042969 42.816406 L 28.296875 39.804688 L 38.039062 43.1875 L 38.507812 43.234375 L 38.53125 43.226562 L 38.644531 43.234375 L 48.519531 39.804688 Z M 59.070312 34.414062 L 48.5 38.082031 L 38.40625 41.589844 L 28.316406 38.082031 L 17.746094 34.414062 L 17.738281 31.820312 L 37.90625 38.824219 L 38.039062 38.871094 L 38.09375 38.875 C 38.253906 38.925781 38.40625 38.933594 38.558594 38.910156 L 38.644531 38.917969 L 38.773438 38.871094 L 59.070312 31.820312 Z M 49.804688 27.960938 L 57.746094 30.550781 L 42.179688 35.964844 L 38.410156 37.273438 L 35.605469 36.300781 L 36.113281 34.3125 C 36.148438 34.179688 36.167969 34.042969 36.179688 33.90625 C 36.179688 33.898438 36.175781 33.890625 36.175781 33.882812 C 36.203125 33.484375 36.121094 33.097656 35.953125 32.753906 C 35.949219 32.75 35.949219 32.746094 35.949219 32.746094 C 35.71875 32.28125 35.324219 31.898438 34.808594 31.679688 L 33.210938 31.007812 L 32.976562 30.910156 L 36.460938 30.777344 C 37.152344 30.753906 37.824219 30.972656 38.355469 31.378906 C 38.605469 31.574219 38.875 31.726562 39.15625 31.863281 C 39.234375 31.902344 39.3125 31.933594 39.394531 31.964844 C 39.628906 32.0625 39.867188 32.136719 40.117188 32.195312 C 40.179688 32.207031 40.238281 32.230469 40.304688 32.238281 C 40.574219 32.289062 40.847656 32.320312 41.125 32.320312 C 41.164062 32.320312 41.203125 32.3125 41.242188 32.3125 C 41.296875 32.308594 41.351562 32.304688 41.40625 32.300781 C 41.726562 32.28125 42.050781 32.238281 42.367188 32.148438 L 46.410156 31.007812 C 47.421875 30.71875 48.300781 30.09375 48.882812 29.253906 Z M 47.550781 28.316406 C 47.167969 28.859375 46.621094 29.25 45.964844 29.4375 L 41.929688 30.578125 C 41.011719 30.832031 40.078125 30.65625 39.355469 30.089844 C 39.152344 29.933594 38.933594 29.796875 38.707031 29.679688 C 38.617188 29.628906 38.519531 29.597656 38.425781 29.558594 C 38.285156 29.496094 38.148438 29.429688 38 29.378906 C 37.902344 29.347656 37.796875 29.332031 37.699219 29.304688 C 37.546875 29.265625 37.398438 29.222656 37.246094 29.199219 C 37.144531 29.1875 37.042969 29.183594 36.941406 29.175781 C 36.808594 29.164062 36.675781 29.144531 36.539062 29.144531 C 36.496094 29.144531 36.453125 29.144531 36.40625 29.144531 L 31.9375 29.316406 L 31.90625 28.828125 C 31.847656 28.089844 31.441406 27.429688 30.828125 27.066406 L 30.464844 26.847656 L 35.867188 25.089844 C 35.933594 25.203125 35.992188 25.300781 36.054688 25.410156 C 36.105469 25.488281 36.152344 25.570312 36.199219 25.648438 C 36.371094 25.9375 36.539062 26.21875 36.695312 26.46875 C 36.699219 26.480469 36.710938 26.484375 36.71875 26.496094 C 37.085938 27.082031 37.714844 27.433594 38.40625 27.433594 C 39.113281 27.433594 39.753906 27.074219 40.160156 26.40625 C 40.300781 26.175781 40.453125 25.929688 40.609375 25.667969 C 40.664062 25.578125 40.714844 25.492188 40.769531 25.402344 C 40.832031 25.296875 40.890625 25.199219 40.953125 25.09375 L 48.175781 27.433594 Z M 43.839844 14.566406 C 43.839844 16.015625 42.394531 19.347656 39.871094 23.710938 C 39.476562 24.402344 39.097656 25.023438 38.726562 25.625 C 38.679688 25.699219 38.621094 25.742188 38.566406 25.765625 C 38.507812 25.796875 38.449219 25.804688 38.40625 25.804688 C 38.328125 25.804688 38.183594 25.78125 38.085938 25.621094 C 37.75 25.070312 37.363281 24.421875 36.941406 23.699219 L 36.933594 23.6875 C 34.382812 19.273438 32.976562 16.035156 32.976562 14.566406 C 32.976562 11.570312 35.414062 9.132812 38.40625 9.132812 C 41.402344 9.132812 43.839844 11.570312 43.839844 14.566406 Z M 34.984375 14.164062 C 34.984375 16.054688 36.519531 17.589844 38.40625 17.589844 C 40.296875 17.589844 41.832031 16.054688 41.832031 14.164062 C 41.832031 12.277344 40.296875 10.742188 38.40625 10.742188 C 36.519531 10.742188 34.984375 12.277344 34.984375 14.164062 Z M 40.203125 14.164062 C 40.203125 15.15625 39.398438 15.960938 38.40625 15.960938 C 37.417969 15.960938 36.613281 15.15625 36.613281 14.164062 C 36.613281 13.175781 37.417969 12.371094 38.40625 12.371094 C 39.398438 12.371094 40.203125 13.175781 40.203125 14.164062 Z M 40.203125 14.164062 " fill-opacity="1" fill-rule="nonzero"/></g></svg>