<svg xmlns="http://www.w3.org/2000/svg" xmlns:xlink="http://www.w3.org/1999/xlink" width="100" zoomAndPan="magnify" viewBox="0 0 75 74.999997" height="100" preserveAspectRatio="xMidYMid meet" version="1.0"><defs><clipPath id="5687a03253"><path d="M 11 12.378906 L 64 12.378906 L 64 62.628906 L 11 62.628906 Z M 11 12.378906 " clip-rule="nonzero"/></clipPath></defs><g clip-path="url(#5687a03253)"><path fill="#36a9e4" d="M 60.671875 38.859375 C 60.59375 39.941406 60.445312 41.003906 60.230469 42.042969 C 59.226562 41.328125 58.105469 40.757812 56.902344 40.375 C 56.980469 39.875 57.042969 39.367188 57.085938 38.859375 Z M 53.203125 41.242188 C 47.3125 41.242188 42.535156 46.019531 42.535156 51.910156 C 42.535156 57.800781 47.3125 62.574219 53.203125 62.574219 C 59.09375 62.574219 63.867188 57.800781 63.867188 51.910156 C 63.867188 46.019531 59.09375 41.242188 53.203125 41.242188 Z M 55.898438 46.496094 L 55.898438 52.363281 L 58.359375 52.363281 L 53.203125 57.324219 L 48.046875 52.363281 L 50.503906 52.363281 L 50.503906 46.496094 Z M 21.421875 45.972656 L 35.511719 54.109375 C 36.199219 54.507812 37.089844 54.269531 37.488281 53.578125 C 37.886719 52.890625 37.648438 51.996094 36.957031 51.601562 L 22.867188 43.464844 C 22.179688 43.066406 21.289062 43.304688 20.890625 43.992188 C 20.492188 44.683594 20.730469 45.574219 21.421875 45.972656 Z M 47.882812 31.621094 C 46.914062 33.679688 45.09375 35.203125 42.414062 36.199219 C 36.0625 38.007812 36.84375 36.652344 38.453125 43.058594 C 38.933594 45.875 38.523438 48.214844 37.222656 50.082031 L 24.050781 42.476562 C 25.015625 40.417969 26.839844 38.894531 29.519531 37.902344 C 35.871094 36.089844 35.085938 37.445312 33.480469 31.039062 C 33 28.222656 33.40625 25.882812 34.707031 24.015625 Z M 34.972656 22.5 L 49.0625 30.632812 C 49.75 31.03125 50.640625 30.792969 51.039062 30.105469 C 51.4375 29.414062 51.199219 28.523438 50.511719 28.125 L 36.421875 19.992188 C 35.730469 19.59375 34.839844 19.832031 34.441406 20.519531 C 34.042969 21.210938 34.28125 22.101562 34.972656 22.5 Z M 44.484375 60.316406 C 41.828125 61.289062 38.957031 61.816406 35.964844 61.816406 C 22.285156 61.816406 11.195312 50.730469 11.195312 37.050781 C 11.195312 23.976562 21.320312 13.269531 34.160156 12.34375 L 34.160156 15.929688 C 23.296875 16.847656 14.769531 25.953125 14.769531 37.050781 C 14.769531 48.753906 24.261719 58.246094 35.96875 58.246094 C 38.1875 58.246094 40.328125 57.902344 42.339844 57.269531 C 42.894531 58.394531 43.621094 59.421875 44.484375 60.316406 Z M 39.6875 16.179688 L 40.613281 12.714844 C 39.6875 12.539062 38.738281 12.414062 37.773438 12.34375 L 37.773438 15.929688 C 38.417969 15.984375 39.058594 16.066406 39.6875 16.179688 Z M 44.960938 17.851562 L 46.753906 14.746094 C 45.898438 14.332031 45.015625 13.964844 44.109375 13.648438 L 43.179688 17.113281 C 43.785156 17.332031 44.382812 17.578125 44.960938 17.851562 Z M 52.15625 18.300781 L 49.621094 20.835938 C 49.128906 20.421875 48.621094 20.03125 48.09375 19.660156 L 49.886719 16.558594 C 50.675781 17.09375 51.433594 17.679688 52.15625 18.300781 Z M 53.292969 24.835938 L 56.425781 23.078125 C 55.949219 22.398438 55.253906 21.484375 54.710938 20.859375 L 52.175781 23.394531 C 52.511719 23.789062 52.988281 24.417969 53.292969 24.835938 Z M 59.445312 29.140625 C 59.074219 28.03125 58.699219 27.113281 58.179688 26.078125 L 55.078125 27.871094 C 55.453125 28.632812 55.605469 28.988281 55.886719 29.796875 Z M 60.671875 35.242188 C 60.605469 34.363281 60.496094 33.496094 60.34375 32.644531 L 56.878906 33.574219 C 56.96875 34.121094 57.039062 34.679688 57.085938 35.242188 Z M 60.671875 35.242188 " fill-opacity="1" fill-rule="evenodd"/></g></svg>